<?xml version="1.0" encoding="iso-8859-1"?>
<!-- Generator: Adobe Illustrator 19.0.0, SVG Export Plug-In . SVG Version: 6.00 Build 0)  -->
<svg version="1.1" id="Capa_1" xmlns="http://www.w3.org/2000/svg" xmlns:xlink="http://www.w3.org/1999/xlink" x="0px" y="0px"
	 viewBox="0 0 512 512" style="enable-background:new 0 0 512 512;" xml:space="preserve">
<g>
	<g>
		<path d="M435.2,409.6H76.8c-4.71,0-8.533,3.823-8.533,8.533v57.464c0,20.07,16.333,36.403,36.403,36.403h302.66
			c20.07,0,36.403-16.333,36.403-36.403v-57.464C443.733,413.423,439.91,409.6,435.2,409.6z M426.667,475.597
			c0,10.658-8.678,19.336-19.328,19.336H104.67c-10.658,0-19.337-8.678-19.337-19.336v-48.93h341.333V475.597z"/>
	</g>
</g>
<g>
	<g>
		<path d="M407.339,0H104.67c-20.07,0-36.403,16.333-36.403,36.403V76.8c0,4.71,3.823,8.533,8.533,8.533h358.4
			c4.71,0,8.533-3.823,8.533-8.533V36.403C443.733,16.333,427.401,0,407.339,0z M426.667,68.267H85.333V36.403
			c0-10.658,8.678-19.337,19.337-19.337h302.66c10.658,0,19.337,8.678,19.337,19.337V68.267z"/>
	</g>
</g>
<g>
	<g>
		<path d="M298.667,34.133h-85.333c-4.71,0-8.533,3.823-8.533,8.533c0,4.71,3.823,8.533,8.533,8.533h85.333
			c4.71,0,8.533-3.823,8.533-8.533C307.2,37.956,303.377,34.133,298.667,34.133z"/>
	</g>
</g>
<g>
	<g>
		<path d="M435.2,68.267H76.8c-4.71,0-8.533,3.823-8.533,8.533v341.333c0,4.71,3.823,8.533,8.533,8.533h358.4
			c4.71,0,8.533-3.823,8.533-8.533V76.8C443.733,72.09,439.91,68.267,435.2,68.267z M426.667,409.6H85.333V85.333h341.333V409.6z"/>
	</g>
</g>
<g>
	<g>
		<path d="M266.59,435.2h-21.188c-12.979,0-23.535,10.564-23.535,23.543v4.122c0,12.979,10.556,23.535,23.535,23.535h21.188
			c12.979,0,23.544-10.556,23.544-23.535v-4.122C290.133,445.764,279.569,435.2,266.59,435.2z M273.067,462.865
			c0,3.567-2.901,6.468-6.477,6.468h-21.188c-3.567,0-6.468-2.901-6.468-6.468v-4.122c0-3.575,2.901-6.477,6.468-6.477h21.188
			c3.576,0,6.477,2.901,6.477,6.477V462.865z"/>
	</g>
</g>
<g>
	<g>
		<path d="M153.6,110.933h-34.133c-4.71,0-8.533,3.823-8.533,8.533V153.6c0,4.71,3.823,8.533,8.533,8.533H153.6
			c4.71,0,8.533-3.823,8.533-8.533v-34.133C162.133,114.756,158.31,110.933,153.6,110.933z M145.067,145.067H128V128h17.067V145.067
			z"/>
	</g>
</g>
<g>
	<g>
		<path d="M230.4,110.933h-34.133c-4.71,0-8.533,3.823-8.533,8.533V153.6c0,4.71,3.823,8.533,8.533,8.533H230.4
			c4.71,0,8.533-3.823,8.533-8.533v-34.133C238.933,114.756,235.11,110.933,230.4,110.933z M221.867,145.067H204.8V128h17.067
			V145.067z"/>
	</g>
</g>
<g>
	<g>
		<path d="M392.533,110.933H358.4c-4.71,0-8.533,3.823-8.533,8.533V153.6c0,4.71,3.823,8.533,8.533,8.533h34.133
			c4.71,0,8.533-3.823,8.533-8.533v-34.133C401.067,114.756,397.244,110.933,392.533,110.933z M384,145.067h-17.067V128H384V145.067
			z"/>
	</g>
</g>
<g>
	<g>
		<path d="M315.733,110.933H281.6c-4.71,0-8.533,3.823-8.533,8.533V153.6c0,4.71,3.823,8.533,8.533,8.533h34.133
			c4.71,0,8.533-3.823,8.533-8.533v-34.133C324.267,114.756,320.444,110.933,315.733,110.933z M307.2,145.067h-17.067V128H307.2
			V145.067z"/>
	</g>
</g>
<g>
	<g>
		<path d="M153.6,187.733h-34.133c-4.71,0-8.533,3.823-8.533,8.533V230.4c0,4.71,3.823,8.533,8.533,8.533H153.6
			c4.71,0,8.533-3.823,8.533-8.533v-34.133C162.133,191.556,158.31,187.733,153.6,187.733z M145.067,221.867H128V204.8h17.067
			V221.867z"/>
	</g>
</g>
<g>
	<g>
		<path d="M230.4,187.733h-34.133c-4.71,0-8.533,3.823-8.533,8.533V230.4c0,4.71,3.823,8.533,8.533,8.533H230.4
			c4.71,0,8.533-3.823,8.533-8.533v-34.133C238.933,191.556,235.11,187.733,230.4,187.733z M221.867,221.867H204.8V204.8h17.067
			V221.867z"/>
	</g>
</g>
<g>
	<g>
		<path d="M392.533,187.733H358.4c-4.71,0-8.533,3.823-8.533,8.533V230.4c0,4.71,3.823,8.533,8.533,8.533h34.133
			c4.71,0,8.533-3.823,8.533-8.533v-34.133C401.067,191.556,397.244,187.733,392.533,187.733z M384,221.867h-17.067V204.8H384
			V221.867z"/>
	</g>
</g>
<g>
	<g>
		<path d="M315.733,187.733H281.6c-4.71,0-8.533,3.823-8.533,8.533V230.4c0,4.71,3.823,8.533,8.533,8.533h34.133
			c4.71,0,8.533-3.823,8.533-8.533v-34.133C324.267,191.556,320.444,187.733,315.733,187.733z M307.2,221.867h-17.067V204.8H307.2
			V221.867z"/>
	</g>
</g>
<g>
	<g>
		<path d="M153.6,264.533h-34.133c-4.71,0-8.533,3.823-8.533,8.533V307.2c0,4.71,3.823,8.533,8.533,8.533H153.6
			c4.71,0,8.533-3.823,8.533-8.533v-34.133C162.133,268.356,158.31,264.533,153.6,264.533z M145.067,298.667H128V281.6h17.067
			V298.667z"/>
	</g>
</g>
<g>
	<g>
		<path d="M230.4,264.533h-34.133c-4.71,0-8.533,3.823-8.533,8.533V307.2c0,4.71,3.823,8.533,8.533,8.533H230.4
			c4.71,0,8.533-3.823,8.533-8.533v-34.133C238.933,268.356,235.11,264.533,230.4,264.533z M221.867,298.667H204.8V281.6h17.067
			V298.667z"/>
	</g>
</g>
<g>
	<g>
		<path d="M392.533,264.533H358.4c-4.71,0-8.533,3.823-8.533,8.533V307.2c0,4.71,3.823,8.533,8.533,8.533h34.133
			c4.71,0,8.533-3.823,8.533-8.533v-34.133C401.067,268.356,397.244,264.533,392.533,264.533z M384,298.667h-17.067V281.6H384
			V298.667z"/>
	</g>
</g>
<g>
	<g>
		<path d="M315.733,264.533H281.6c-4.71,0-8.533,3.823-8.533,8.533V307.2c0,4.71,3.823,8.533,8.533,8.533h34.133
			c4.71,0,8.533-3.823,8.533-8.533v-34.133C324.267,268.356,320.444,264.533,315.733,264.533z M307.2,298.667h-17.067V281.6H307.2
			V298.667z"/>
	</g>
</g>
<g>
	<g>
		<path d="M332.8,332.8H119.467c-4.71,0-8.533,3.823-8.533,8.533s3.823,8.533,8.533,8.533H332.8c4.71,0,8.533-3.823,8.533-8.533
			S337.51,332.8,332.8,332.8z"/>
	</g>
</g>
<g>
	<g>
		<path d="M392.533,332.8h-25.6c-4.71,0-8.533,3.823-8.533,8.533s3.823,8.533,8.533,8.533h25.6c4.71,0,8.533-3.823,8.533-8.533
			S397.244,332.8,392.533,332.8z"/>
	</g>
</g>
<g>
	<g>
		<path d="M392.533,366.933H179.2c-4.71,0-8.533,3.823-8.533,8.533S174.49,384,179.2,384h213.333c4.71,0,8.533-3.823,8.533-8.533
			S397.244,366.933,392.533,366.933z"/>
	</g>
</g>
<g>
	<g>
		<path d="M145.067,366.933h-25.6c-4.71,0-8.533,3.823-8.533,8.533s3.823,8.533,8.533,8.533h25.6c4.71,0,8.533-3.823,8.533-8.533
			S149.777,366.933,145.067,366.933z"/>
	</g>
</g>
<g>
</g>
<g>
</g>
<g>
</g>
<g>
</g>
<g>
</g>
<g>
</g>
<g>
</g>
<g>
</g>
<g>
</g>
<g>
</g>
<g>
</g>
<g>
</g>
<g>
</g>
<g>
</g>
<g>
</g>
</svg>
