<?xml version="1.0" encoding="iso-8859-1"?>
<!-- Generator: Adobe Illustrator 19.0.0, SVG Export Plug-In . SVG Version: 6.00 Build 0)  -->
<svg version="1.1" id="Capa_1" xmlns="http://www.w3.org/2000/svg" xmlns:xlink="http://www.w3.org/1999/xlink" x="0px" y="0px"
	 viewBox="0 0 512 512" style="enable-background:new 0 0 512 512;" xml:space="preserve">
<g>
	<g>
		<path d="M307.226,0H204.783C176.555,0,153.6,22.955,153.6,51.183v341.35c0,4.71,3.823,8.533,8.533,8.533h187.733
			c4.71,0,8.533-3.823,8.533-8.533V51.183C358.4,22.955,335.445,0,307.226,0z M341.333,384H170.667V51.183
			c0-18.816,15.3-34.116,34.116-34.116h102.434c18.816,0,34.116,15.3,34.116,34.116V384z"/>
	</g>
</g>
<g>
	<g>
		<path d="M315.733,68.267H196.267c-4.71,0-8.533,3.823-8.533,8.533v59.733c0,4.71,3.823,8.533,8.533,8.533h119.467
			c4.71,0,8.533-3.823,8.533-8.533V76.8C324.267,72.09,320.444,68.267,315.733,68.267z M307.2,128H204.8V85.333h102.4V128z"/>
	</g>
</g>
<g>
	<g>
		<path d="M315.733,34.133h-17.067c-4.71,0-8.533,3.823-8.533,8.533c0,4.71,3.823,8.533,8.533,8.533h17.067
			c4.71,0,8.533-3.823,8.533-8.533C324.267,37.956,320.444,34.133,315.733,34.133z"/>
	</g>
</g>
<g>
	<g>
		<path d="M256,34.133h-59.733c-4.71,0-8.533,3.823-8.533,8.533c0,4.71,3.823,8.533,8.533,8.533H256c4.71,0,8.533-3.823,8.533-8.533
			C264.533,37.956,260.71,34.133,256,34.133z"/>
	</g>
</g>
<g>
	<g>
		<path d="M375.467,384H136.533c-4.71,0-8.533,3.823-8.533,8.533v34.133c0,4.71,3.823,8.533,8.533,8.533h238.933
			c4.71,0,8.533-3.823,8.533-8.533v-34.133C384,387.823,380.177,384,375.467,384z M366.933,418.133H145.067v-17.067h221.867V418.133
			z"/>
	</g>
</g>
<g>
	<g>
		<path d="M213.333,213.333h-17.067c-4.71,0-8.533,3.823-8.533,8.533c0,4.71,3.823,8.533,8.533,8.533h17.067
			c4.71,0,8.533-3.823,8.533-8.533C221.867,217.156,218.044,213.333,213.333,213.333z"/>
	</g>
</g>
<g>
	<g>
		<path d="M230.4,162.133h-34.133c-4.71,0-8.533,3.823-8.533,8.533s3.823,8.533,8.533,8.533H230.4c4.71,0,8.533-3.823,8.533-8.533
			S235.11,162.133,230.4,162.133z"/>
	</g>
</g>
<g>
	<g>
		<path d="M315.733,213.333h-17.067c-4.71,0-8.533,3.823-8.533,8.533c0,4.71,3.823,8.533,8.533,8.533h17.067
			c4.71,0,8.533-3.823,8.533-8.533C324.267,217.156,320.444,213.333,315.733,213.333z"/>
	</g>
</g>
<g>
	<g>
		<path d="M264.533,213.333h-17.067c-4.71,0-8.533,3.823-8.533,8.533c0,4.71,3.823,8.533,8.533,8.533h17.067
			c4.71,0,8.533-3.823,8.533-8.533C273.067,217.156,269.244,213.333,264.533,213.333z"/>
	</g>
</g>
<g>
	<g>
		<path d="M213.333,247.467h-17.067c-4.71,0-8.533,3.823-8.533,8.533s3.823,8.533,8.533,8.533h17.067
			c4.71,0,8.533-3.823,8.533-8.533S218.044,247.467,213.333,247.467z"/>
	</g>
</g>
<g>
	<g>
		<path d="M315.733,247.467h-17.067c-4.71,0-8.533,3.823-8.533,8.533s3.823,8.533,8.533,8.533h17.067
			c4.71,0,8.533-3.823,8.533-8.533S320.444,247.467,315.733,247.467z"/>
	</g>
</g>
<g>
	<g>
		<path d="M264.533,247.467h-17.067c-4.71,0-8.533,3.823-8.533,8.533s3.823,8.533,8.533,8.533h17.067
			c4.71,0,8.533-3.823,8.533-8.533S269.244,247.467,264.533,247.467z"/>
	</g>
</g>
<g>
	<g>
		<path d="M213.333,281.6h-17.067c-4.71,0-8.533,3.823-8.533,8.533s3.823,8.533,8.533,8.533h17.067c4.71,0,8.533-3.823,8.533-8.533
			S218.044,281.6,213.333,281.6z"/>
	</g>
</g>
<g>
	<g>
		<path d="M315.733,281.6h-17.067c-4.71,0-8.533,3.823-8.533,8.533s3.823,8.533,8.533,8.533h17.067c4.71,0,8.533-3.823,8.533-8.533
			S320.444,281.6,315.733,281.6z"/>
	</g>
</g>
<g>
	<g>
		<path d="M264.533,281.6h-17.067c-4.71,0-8.533,3.823-8.533,8.533s3.823,8.533,8.533,8.533h17.067c4.71,0,8.533-3.823,8.533-8.533
			S269.244,281.6,264.533,281.6z"/>
	</g>
</g>
<g>
	<g>
		<path d="M213.333,315.733h-17.067c-4.71,0-8.533,3.823-8.533,8.533s3.823,8.533,8.533,8.533h17.067
			c4.71,0,8.533-3.823,8.533-8.533S218.044,315.733,213.333,315.733z"/>
	</g>
</g>
<g>
	<g>
		<path d="M315.733,315.733h-17.067c-4.71,0-8.533,3.823-8.533,8.533s3.823,8.533,8.533,8.533h17.067
			c4.71,0,8.533-3.823,8.533-8.533S320.444,315.733,315.733,315.733z"/>
	</g>
</g>
<g>
	<g>
		<path d="M264.533,315.733h-17.067c-4.71,0-8.533,3.823-8.533,8.533s3.823,8.533,8.533,8.533h17.067
			c4.71,0,8.533-3.823,8.533-8.533S269.244,315.733,264.533,315.733z"/>
	</g>
</g>
<g>
	<g>
		<path d="M264.533,349.867h-17.067c-4.71,0-8.533,3.823-8.533,8.533s3.823,8.533,8.533,8.533h17.067
			c4.71,0,8.533-3.823,8.533-8.533S269.244,349.867,264.533,349.867z"/>
	</g>
</g>
<g>
	<g>
		<path d="M196.267,162.133c-4.71,0-8.533,3.823-8.533,8.533v17.067c0,4.71,3.823,8.533,8.533,8.533s8.533-3.823,8.533-8.533
			v-17.067C204.8,165.956,200.977,162.133,196.267,162.133z"/>
	</g>
</g>
<g>
	<g>
		<path d="M230.4,162.133c-4.71,0-8.533,3.823-8.533,8.533v17.067c0,4.71,3.823,8.533,8.533,8.533c4.71,0,8.533-3.823,8.533-8.533
			v-17.067C238.933,165.956,235.11,162.133,230.4,162.133z"/>
	</g>
</g>
<g>
	<g>
		<path d="M315.733,162.133H281.6c-4.71,0-8.533,3.823-8.533,8.533s3.823,8.533,8.533,8.533h34.133c4.71,0,8.533-3.823,8.533-8.533
			S320.444,162.133,315.733,162.133z"/>
	</g>
</g>
<g>
	<g>
		<path d="M281.6,162.133c-4.71,0-8.533,3.823-8.533,8.533v17.067c0,4.71,3.823,8.533,8.533,8.533c4.71,0,8.533-3.823,8.533-8.533
			v-17.067C290.133,165.956,286.31,162.133,281.6,162.133z"/>
	</g>
</g>
<g>
	<g>
		<path d="M315.733,162.133c-4.71,0-8.533,3.823-8.533,8.533v17.067c0,4.71,3.823,8.533,8.533,8.533s8.533-3.823,8.533-8.533
			v-17.067C324.267,165.956,320.444,162.133,315.733,162.133z"/>
	</g>
</g>
<g>
	<g>
		<path d="M179.2,460.8h-68.267c-4.71,0-8.533,3.823-8.533,8.533v34.133c0,4.71,3.823,8.533,8.533,8.533H179.2
			c4.71,0,8.533-3.823,8.533-8.533v-34.133C187.733,464.623,183.91,460.8,179.2,460.8z M170.667,494.933h-51.2v-17.067h51.2V494.933
			z"/>
	</g>
</g>
<g>
	<g>
		<path d="M401.067,460.8H332.8c-4.71,0-8.533,3.823-8.533,8.533v34.133c0,4.71,3.823,8.533,8.533,8.533h68.267
			c4.71,0,8.533-3.823,8.533-8.533v-34.133C409.6,464.623,405.777,460.8,401.067,460.8z M392.533,494.933h-51.2v-17.067h51.2
			V494.933z"/>
	</g>
</g>
<g>
	<g>
		<path d="M349.867,230.4c-2.261,0-4.429,0.905-6.033,2.5c-1.604,1.596-2.5,3.772-2.5,6.033V384H170.667V238.933
			c0-2.261-0.905-4.429-2.5-6.033c-1.596-1.604-3.772-2.5-6.033-2.5c-47.053,0.017-85.333,38.298-85.333,85.35v153.583
			c0,4.71,3.823,8.533,8.533,8.533h341.333c4.71,0,8.533-3.823,8.533-8.533V315.75C435.2,268.698,396.919,230.409,349.867,230.4z
			 M418.133,460.8H93.867V315.742c0-34.748,26.104-63.522,59.733-67.746v144.538c0,4.71,3.823,8.533,8.533,8.533h187.733
			c4.71,0,8.533-3.823,8.533-8.533V248.004c33.63,4.224,59.733,32.998,59.733,67.746V460.8z"/>
	</g>
</g>
<g>
	<g>
		<path d="M401.067,0c-4.71,0-8.533,3.823-8.533,8.533V256c0,4.71,3.823,8.533,8.533,8.533S409.6,260.71,409.6,256V8.533
			C409.6,3.823,405.777,0,401.067,0z"/>
	</g>
</g>
<g>
</g>
<g>
</g>
<g>
</g>
<g>
</g>
<g>
</g>
<g>
</g>
<g>
</g>
<g>
</g>
<g>
</g>
<g>
</g>
<g>
</g>
<g>
</g>
<g>
</g>
<g>
</g>
<g>
</g>
</svg>
