<?xml version="1.0" encoding="iso-8859-1"?>
<!-- Generator: Adobe Illustrator 19.0.0, SVG Export Plug-In . SVG Version: 6.00 Build 0)  -->
<svg version="1.1" id="Capa_1" xmlns="http://www.w3.org/2000/svg" xmlns:xlink="http://www.w3.org/1999/xlink" x="0px" y="0px"
	 viewBox="0 0 512 512" style="enable-background:new 0 0 512 512;" xml:space="preserve">
<g>
	<g>
		<path d="M315.716,68.284H196.292c-23.543,0-42.692,19.149-42.692,42.692v358.332c0,23.535,19.149,42.692,42.692,42.692h119.415
			c23.535,0,42.692-19.157,42.692-42.701V110.976C358.4,87.433,339.251,68.284,315.716,68.284z M341.333,469.308
			c0,14.131-11.494,25.626-25.634,25.626H196.292c-14.131,0-25.626-11.494-25.626-25.634V110.976
			c0-14.123,11.494-25.626,25.626-25.626h119.424c14.123,0,25.617,11.494,25.617,25.626V469.308z"/>
	</g>
</g>
<g>
	<g>
		<path d="M315.733,136.533H196.267c-4.71,0-8.533,3.823-8.533,8.533v102.4c0,4.71,3.823,8.533,8.533,8.533h119.467
			c4.71,0,8.533-3.823,8.533-8.533v-102.4C324.267,140.356,320.444,136.533,315.733,136.533z M307.2,238.933H204.8V153.6h102.4
			V238.933z"/>
	</g>
</g>
<g>
	<g>
		<path d="M290.133,102.4h-68.267c-4.71,0-8.533,3.823-8.533,8.533s3.823,8.533,8.533,8.533h68.267c4.71,0,8.533-3.823,8.533-8.533
			S294.844,102.4,290.133,102.4z"/>
	</g>
</g>
<g>
	<g>
		<path d="M213.333,324.267h-17.067c-4.71,0-8.533,3.823-8.533,8.533c0,4.71,3.823,8.533,8.533,8.533h17.067
			c4.71,0,8.533-3.823,8.533-8.533C221.867,328.09,218.044,324.267,213.333,324.267z"/>
	</g>
</g>
<g>
	<g>
		<path d="M230.4,273.067h-34.133c-4.71,0-8.533,3.823-8.533,8.533s3.823,8.533,8.533,8.533H230.4c4.71,0,8.533-3.823,8.533-8.533
			S235.11,273.067,230.4,273.067z"/>
	</g>
</g>
<g>
	<g>
		<path d="M315.733,324.267h-17.067c-4.71,0-8.533,3.823-8.533,8.533c0,4.71,3.823,8.533,8.533,8.533h17.067
			c4.71,0,8.533-3.823,8.533-8.533C324.267,328.09,320.444,324.267,315.733,324.267z"/>
	</g>
</g>
<g>
	<g>
		<path d="M264.533,324.267h-17.067c-4.71,0-8.533,3.823-8.533,8.533c0,4.71,3.823,8.533,8.533,8.533h17.067
			c4.71,0,8.533-3.823,8.533-8.533C273.067,328.09,269.244,324.267,264.533,324.267z"/>
	</g>
</g>
<g>
	<g>
		<path d="M213.333,358.4h-17.067c-4.71,0-8.533,3.823-8.533,8.533s3.823,8.533,8.533,8.533h17.067c4.71,0,8.533-3.823,8.533-8.533
			S218.044,358.4,213.333,358.4z"/>
	</g>
</g>
<g>
	<g>
		<path d="M315.733,358.4h-17.067c-4.71,0-8.533,3.823-8.533,8.533s3.823,8.533,8.533,8.533h17.067c4.71,0,8.533-3.823,8.533-8.533
			S320.444,358.4,315.733,358.4z"/>
	</g>
</g>
<g>
	<g>
		<path d="M264.533,358.4h-17.067c-4.71,0-8.533,3.823-8.533,8.533s3.823,8.533,8.533,8.533h17.067c4.71,0,8.533-3.823,8.533-8.533
			S269.244,358.4,264.533,358.4z"/>
	</g>
</g>
<g>
	<g>
		<path d="M213.333,392.533h-17.067c-4.71,0-8.533,3.823-8.533,8.533s3.823,8.533,8.533,8.533h17.067
			c4.71,0,8.533-3.823,8.533-8.533S218.044,392.533,213.333,392.533z"/>
	</g>
</g>
<g>
	<g>
		<path d="M315.733,392.533h-17.067c-4.71,0-8.533,3.823-8.533,8.533s3.823,8.533,8.533,8.533h17.067
			c4.71,0,8.533-3.823,8.533-8.533S320.444,392.533,315.733,392.533z"/>
	</g>
</g>
<g>
	<g>
		<path d="M264.533,392.533h-17.067c-4.71,0-8.533,3.823-8.533,8.533s3.823,8.533,8.533,8.533h17.067
			c4.71,0,8.533-3.823,8.533-8.533S269.244,392.533,264.533,392.533z"/>
	</g>
</g>
<g>
	<g>
		<path d="M213.333,426.667h-17.067c-4.71,0-8.533,3.823-8.533,8.533s3.823,8.533,8.533,8.533h17.067
			c4.71,0,8.533-3.823,8.533-8.533S218.044,426.667,213.333,426.667z"/>
	</g>
</g>
<g>
	<g>
		<path d="M315.733,426.667h-17.067c-4.71,0-8.533,3.823-8.533,8.533s3.823,8.533,8.533,8.533h17.067
			c4.71,0,8.533-3.823,8.533-8.533S320.444,426.667,315.733,426.667z"/>
	</g>
</g>
<g>
	<g>
		<path d="M264.533,426.667h-17.067c-4.71,0-8.533,3.823-8.533,8.533s3.823,8.533,8.533,8.533h17.067
			c4.71,0,8.533-3.823,8.533-8.533S269.244,426.667,264.533,426.667z"/>
	</g>
</g>
<g>
	<g>
		<path d="M264.533,460.8h-17.067c-4.71,0-8.533,3.823-8.533,8.533s3.823,8.533,8.533,8.533h17.067c4.71,0,8.533-3.823,8.533-8.533
			S269.244,460.8,264.533,460.8z"/>
	</g>
</g>
<g>
	<g>
		<path d="M230.4,273.067c-4.71,0-8.533,3.823-8.533,8.533v17.067c0,4.71,3.823,8.533,8.533,8.533c4.71,0,8.533-3.823,8.533-8.533
			V281.6C238.933,276.89,235.11,273.067,230.4,273.067z"/>
	</g>
</g>
<g>
	<g>
		<path d="M196.267,273.067c-4.71,0-8.533,3.823-8.533,8.533v17.067c0,4.71,3.823,8.533,8.533,8.533s8.533-3.823,8.533-8.533V281.6
			C204.8,276.89,200.977,273.067,196.267,273.067z"/>
	</g>
</g>
<g>
	<g>
		<path d="M315.733,273.067H281.6c-4.71,0-8.533,3.823-8.533,8.533s3.823,8.533,8.533,8.533h34.133c4.71,0,8.533-3.823,8.533-8.533
			S320.444,273.067,315.733,273.067z"/>
	</g>
</g>
<g>
	<g>
		<path d="M281.6,273.067c-4.71,0-8.533,3.823-8.533,8.533v17.067c0,4.71,3.823,8.533,8.533,8.533c4.71,0,8.533-3.823,8.533-8.533
			V281.6C290.133,276.89,286.31,273.067,281.6,273.067z"/>
	</g>
</g>
<g>
	<g>
		<path d="M315.733,273.067c-4.71,0-8.533,3.823-8.533,8.533v17.067c0,4.71,3.823,8.533,8.533,8.533s8.533-3.823,8.533-8.533V281.6
			C324.267,276.89,320.444,273.067,315.733,273.067z"/>
	</g>
</g>
<g>
	<g>
		<path d="M273.067,204.8h-25.6v-17.067h25.6c4.71,0,8.533-3.823,8.533-8.533s-3.823-8.533-8.533-8.533h-34.133
			c-4.71,0-8.533,3.823-8.533,8.533v34.133c0,4.71,3.823,8.533,8.533,8.533h34.133c4.71,0,8.533-3.823,8.533-8.533
			C281.6,208.623,277.777,204.8,273.067,204.8z"/>
	</g>
</g>
<g>
	<g>
		<path d="M213.333,0c-14.114,0-25.6,11.486-25.6,25.6v51.2c0,4.71,3.823,8.533,8.533,8.533H230.4c4.71,0,8.533-3.823,8.533-8.533
			V25.6C238.933,11.486,227.447,0,213.333,0z M221.867,68.267H204.8V25.6c0-4.702,3.823-8.533,8.533-8.533s8.533,3.831,8.533,8.533
			V68.267z"/>
	</g>
</g>
<g>
</g>
<g>
</g>
<g>
</g>
<g>
</g>
<g>
</g>
<g>
</g>
<g>
</g>
<g>
</g>
<g>
</g>
<g>
</g>
<g>
</g>
<g>
</g>
<g>
</g>
<g>
</g>
<g>
</g>
</svg>
