<?xml version="1.0" encoding="iso-8859-1"?>
<!-- Generator: Adobe Illustrator 19.0.0, SVG Export Plug-In . SVG Version: 6.00 Build 0)  -->
<svg version="1.1" id="Capa_1" xmlns="http://www.w3.org/2000/svg" xmlns:xlink="http://www.w3.org/1999/xlink" x="0px" y="0px"
	 viewBox="0 0 512 512" style="enable-background:new 0 0 512 512;" xml:space="preserve">
<g>
	<g>
		<path d="M409.6,0H238.942c-32.939,0-59.733,26.795-59.733,59.733v392.533c0,32.93,26.795,59.733,59.733,59.733H409.6
			c32.939,0,59.733-26.803,59.733-59.733V59.733C469.333,26.803,442.539,0,409.6,0z M452.267,452.267
			c0,23.526-19.14,42.667-42.667,42.667H238.942c-23.526,0-42.667-19.14-42.667-42.667V59.733c0-23.526,19.14-42.667,42.667-42.667
			H409.6c23.526,0,42.667,19.14,42.667,42.667V452.267z"/>
	</g>
</g>
<g>
	<g>
		<path d="M392.533,34.133H384c-4.71,0-8.533,3.823-8.533,8.533c0,14.114-11.486,25.6-25.6,25.6h-51.2
			c-14.114,0-25.6-11.486-25.6-25.6c0-4.71-3.823-8.533-8.533-8.533H256c-23.526,0-42.667,19.14-42.667,42.667v366.908
			c0,18.833,15.326,34.159,34.159,34.159H401.05c18.833,0,34.15-15.326,34.15-34.159V76.8
			C435.2,53.274,416.06,34.133,392.533,34.133z M418.133,443.708c0,9.429-7.663,17.092-17.092,17.092H247.492
			c-9.421,0-17.092-7.663-17.092-17.092V76.8c0-14.114,11.486-25.6,25.6-25.6h0.853c3.968,19.447,21.205,34.133,41.813,34.133h51.2
			c20.608,0,37.845-14.686,41.813-34.133h0.853c14.114,0,25.6,11.486,25.6,25.6V443.708z"/>
	</g>
</g>
<g>
	<g>
		<path d="M349.867,34.133h-51.2c-4.71,0-8.533,3.823-8.533,8.533c0,4.71,3.823,8.533,8.533,8.533h51.2
			c4.719,0,8.533-3.823,8.533-8.533C358.4,37.956,354.577,34.133,349.867,34.133z"/>
	</g>
</g>
<g>
	<g>
		<path d="M384,426.667H264.533c-4.71,0-8.533,3.823-8.533,8.533s3.823,8.533,8.533,8.533H384c4.719,0,8.533-3.823,8.533-8.533
			S388.71,426.667,384,426.667z"/>
	</g>
</g>
<g>
	<g>
		<path d="M119.467,42.667c-18.825,0-34.133,15.309-34.133,34.133v68.267c0,18.825,15.309,34.133,34.133,34.133
			s34.133-15.309,34.133-34.133V76.8C153.6,57.975,138.291,42.667,119.467,42.667z M136.533,145.067
			c0,9.412-7.654,17.067-17.067,17.067c-9.412,0-17.067-7.654-17.067-17.067V76.8c0-9.412,7.654-17.067,17.067-17.067
			c9.412,0,17.067,7.654,17.067,17.067V145.067z"/>
	</g>
</g>
<g>
	<g>
		<path d="M119.467,76.8c-4.71,0-8.533,3.823-8.533,8.533v8.533c0,4.71,3.823,8.533,8.533,8.533S128,98.577,128,93.867v-8.533
			C128,80.623,124.177,76.8,119.467,76.8z"/>
	</g>
</g>
<g>
	<g>
		<path d="M119.467,119.467c-4.71,0-8.533,3.823-8.533,8.533v8.533c0,4.71,3.823,8.533,8.533,8.533s8.533-3.823,8.533-8.533V128
			C128,123.29,124.177,119.467,119.467,119.467z"/>
	</g>
</g>
<g>
	<g>
		<path d="M238.933,494.933c-23.526,0-42.667-19.14-42.667-42.667V59.733c0-23.526,19.14-42.667,42.667-42.667
			c4.71,0,8.533-3.823,8.533-8.533S243.644,0,238.933,0H102.4C69.461,0,42.667,26.795,42.667,59.733v392.533
			c0,32.93,26.795,59.733,59.733,59.733h136.542c4.71,0,8.525-3.823,8.525-8.533S243.644,494.933,238.933,494.933z M102.4,494.933
			c-23.526,0-42.667-19.14-42.667-42.667V59.733c0-23.526,19.14-42.667,42.667-42.667h94.771
			C186.086,27.913,179.2,43.034,179.2,59.733v392.533c0,16.7,6.895,31.821,17.971,42.667H102.4z"/>
	</g>
</g>
<g>
	<g>
		<path d="M384,110.933h-34.133c-4.71,0-8.533,3.823-8.533,8.533V153.6c0,4.71,3.823,8.533,8.533,8.533H384
			c4.719,0,8.533-3.823,8.533-8.533v-34.133C392.533,114.756,388.71,110.933,384,110.933z M375.467,145.067H358.4V128h17.067
			V145.067z"/>
	</g>
</g>
<g>
	<g>
		<path d="M298.667,110.933h-34.133c-4.71,0-8.533,3.823-8.533,8.533V153.6c0,4.71,3.823,8.533,8.533,8.533h34.133
			c4.719,0,8.533-3.823,8.533-8.533v-34.133C307.2,114.756,303.377,110.933,298.667,110.933z M290.133,145.067h-17.067V128h17.067
			V145.067z"/>
	</g>
</g>
<g>
	<g>
		<path d="M384,187.733h-34.133c-4.71,0-8.533,3.823-8.533,8.533V230.4c0,4.71,3.823,8.533,8.533,8.533H384
			c4.719,0,8.533-3.823,8.533-8.533v-34.133C392.533,191.556,388.71,187.733,384,187.733z M375.467,221.867H358.4V204.8h17.067
			V221.867z"/>
	</g>
</g>
<g>
	<g>
		<path d="M298.667,187.733h-34.133c-4.71,0-8.533,3.823-8.533,8.533V230.4c0,4.71,3.823,8.533,8.533,8.533h34.133
			c4.719,0,8.533-3.823,8.533-8.533v-34.133C307.2,191.556,303.377,187.733,298.667,187.733z M290.133,221.867h-17.067V204.8h17.067
			V221.867z"/>
	</g>
</g>
<g>
	<g>
		<path d="M384,264.533h-34.133c-4.71,0-8.533,3.823-8.533,8.533V307.2c0,4.71,3.823,8.533,8.533,8.533H384
			c4.719,0,8.533-3.823,8.533-8.533v-34.133C392.533,268.356,388.71,264.533,384,264.533z M375.467,298.667H358.4V281.6h17.067
			V298.667z"/>
	</g>
</g>
<g>
	<g>
		<path d="M298.667,264.533h-34.133c-4.71,0-8.533,3.823-8.533,8.533V307.2c0,4.71,3.823,8.533,8.533,8.533h34.133
			c4.719,0,8.533-3.823,8.533-8.533v-34.133C307.2,268.356,303.377,264.533,298.667,264.533z M290.133,298.667h-17.067V281.6h17.067
			V298.667z"/>
	</g>
</g>
<g>
	<g>
		<path d="M384,341.333h-34.133c-4.71,0-8.533,3.823-8.533,8.533V384c0,4.71,3.823,8.533,8.533,8.533H384
			c4.719,0,8.533-3.823,8.533-8.533v-34.133C392.533,345.156,388.71,341.333,384,341.333z M375.467,375.467H358.4V358.4h17.067
			V375.467z"/>
	</g>
</g>
<g>
	<g>
		<path d="M298.667,341.333h-34.133c-4.71,0-8.533,3.823-8.533,8.533V384c0,4.71,3.823,8.533,8.533,8.533h34.133
			c4.719,0,8.533-3.823,8.533-8.533v-34.133C307.2,345.156,303.377,341.333,298.667,341.333z M290.133,375.467h-17.067V358.4h17.067
			V375.467z"/>
	</g>
</g>
<g>
</g>
<g>
</g>
<g>
</g>
<g>
</g>
<g>
</g>
<g>
</g>
<g>
</g>
<g>
</g>
<g>
</g>
<g>
</g>
<g>
</g>
<g>
</g>
<g>
</g>
<g>
</g>
<g>
</g>
</svg>
