<?xml version="1.0" encoding="iso-8859-1"?>
<!-- Generator: Adobe Illustrator 19.0.0, SVG Export Plug-In . SVG Version: 6.00 Build 0)  -->
<svg version="1.1" id="Capa_1" xmlns="http://www.w3.org/2000/svg" xmlns:xlink="http://www.w3.org/1999/xlink" x="0px" y="0px"
	 viewBox="0 0 512.003 512.003" style="enable-background:new 0 0 512.003 512.003;" xml:space="preserve">
<g>
	<g>
		<path d="M474.054,88.066l-50.125-50.125c-3.337-3.337-8.73-3.337-12.066,0l-50.125,50.125c-3.337,3.337-3.337,8.73,0,12.066
			l50.125,50.133c1.596,1.604,3.772,2.5,6.033,2.5c2.261,0,4.437-0.896,6.033-2.5l50.125-50.133
			C477.39,96.795,477.39,91.402,474.054,88.066z M417.896,132.166l-38.059-38.067l38.059-38.059l38.059,38.059L417.896,132.166z"/>
	</g>
</g>
<g>
	<g>
		<path d="M98.109,464.019l-50.125-50.125c-3.336-3.337-8.73-3.337-12.066,0s-3.337,8.73,0,12.066l50.125,50.125
			c1.664,1.664,3.849,2.5,6.033,2.5c2.185,0,4.369-0.836,6.033-2.5C101.446,472.748,101.446,467.355,98.109,464.019z"/>
	</g>
</g>
<g>
	<g>
		<path d="M511.396,500.302l-33.417-83.541c-0.435-1.075-1.075-2.048-1.894-2.867L75.078,12.887
			C66.775,4.575,55.733,0.002,43.982,0.002c-11.75,0-22.792,4.574-31.095,12.877C4.575,21.19,0.001,32.232,0.001,43.974
			c0,11.75,4.574,22.793,12.885,31.104l401.007,401.007c0.811,0.819,1.792,1.459,2.859,1.894l83.541,33.417
			c1.033,0.41,2.108,0.606,3.174,0.606c2.219,0,4.403-0.87,6.033-2.5C511.916,507.086,512.659,503.468,511.396,500.302z
			 M424.723,462.773L24.953,63.003c-5.086-5.077-7.885-11.836-7.885-19.029c0-7.177,2.799-13.935,7.885-19.021
			c10.496-10.487,27.571-10.487,38.059,0l399.77,399.761l25.37,63.437L424.723,462.773z"/>
	</g>
</g>
<g>
	<g>
		<path d="M150.265,88.066L100.14,37.941c-3.337-3.337-8.73-3.337-12.066,0L37.949,88.066c-3.337,3.337-3.337,8.73,0,12.066
			l50.125,50.133c1.596,1.604,3.772,2.5,6.033,2.5s4.429-0.896,6.033-2.5l50.125-50.133
			C153.602,96.795,153.602,91.402,150.265,88.066z M94.107,132.166L56.048,94.099L94.107,56.04l38.059,38.059L94.107,132.166z"/>
	</g>
</g>
<g>
	<g>
		<path d="M476.085,413.894c-3.337-3.337-8.73-3.337-12.066,0l-50.125,50.125c-3.337,3.337-3.337,8.73,0,12.066
			c1.664,1.664,3.849,2.5,6.033,2.5c2.185,0,4.369-0.836,6.033-2.5l50.125-50.125C479.421,422.623,479.421,417.23,476.085,413.894z"
			/>
	</g>
</g>
<g>
	<g>
		<path d="M499.116,12.887c-8.303-8.311-19.354-12.885-31.095-12.885s-22.793,4.574-31.095,12.885L249.968,199.844
			c-3.337,3.336-3.337,8.73,0,12.066l50.125,50.125c1.664,1.664,3.849,2.5,6.033,2.5c2.185,0,4.369-0.836,6.033-2.5L499.116,75.078
			C516.26,57.926,516.26,30.039,499.116,12.887z M487.05,63.012L306.126,243.935l-38.059-38.059L448.991,24.953
			c10.496-10.487,27.571-10.487,38.059,0C497.538,35.449,497.538,52.524,487.05,63.012z"/>
	</g>
</g>
<g>
	<g>
		<path d="M262.035,300.093l-50.125-50.125c-3.337-3.337-8.73-3.337-12.066,0L35.918,413.894c-0.819,0.819-1.468,1.792-1.894,2.867
			L0.607,500.302c-1.263,3.166-0.521,6.784,1.894,9.199c1.63,1.63,3.814,2.5,6.033,2.5c1.067,0,2.142-0.196,3.174-0.606
			l83.541-33.417c1.067-0.435,2.039-1.075,2.859-1.894l163.925-163.925C265.371,308.823,265.371,303.43,262.035,300.093z
			 M87.28,462.773l-63.428,25.378l25.37-63.437l156.655-156.646l38.059,38.059L87.28,462.773z"/>
	</g>
</g>
<g>
</g>
<g>
</g>
<g>
</g>
<g>
</g>
<g>
</g>
<g>
</g>
<g>
</g>
<g>
</g>
<g>
</g>
<g>
</g>
<g>
</g>
<g>
</g>
<g>
</g>
<g>
</g>
<g>
</g>
</svg>
