<?xml version="1.0" encoding="iso-8859-1"?>
<!-- Generator: Adobe Illustrator 19.0.0, SVG Export Plug-In . SVG Version: 6.00 Build 0)  -->
<svg version="1.1" id="Capa_1" xmlns="http://www.w3.org/2000/svg" xmlns:xlink="http://www.w3.org/1999/xlink" x="0px" y="0px"
	 viewBox="0 0 512 512" style="enable-background:new 0 0 512 512;" xml:space="preserve">
<g>
	<g>
		<path d="M401.101,0H264.499c-42.325,0-76.766,34.441-76.766,76.766v358.468c0,42.325,34.44,76.766,76.766,76.766h136.602
			c42.325,0,76.766-34.44,76.766-76.766V76.766C477.867,34.441,443.426,0,401.101,0z M460.8,435.234
			c0,32.913-26.778,59.699-59.699,59.699H264.499c-32.922,0-59.699-26.786-59.699-59.699V76.766
			c0-32.913,26.778-59.699,59.699-59.699h136.602c32.922,0,59.699,26.786,59.699,59.699V435.234z"/>
	</g>
</g>
<g>
	<g>
		<path d="M401.067,0H264.533c-42.351,0-76.8,34.458-76.8,76.8v8.533h290.133V76.8C477.867,34.458,443.418,0,401.067,0z
			 M205.406,68.267c4.156-28.911,29.09-51.2,59.128-51.2h136.533c30.037,0,54.972,22.289,59.119,51.2H205.406z"/>
	</g>
</g>
<g>
	<g>
		<path d="M187.733,426.667v8.533c0,42.342,34.449,76.8,76.8,76.8h136.533c42.351,0,76.8-34.458,76.8-76.8v-8.533H187.733z
			 M401.067,494.933H264.533c-30.046,0-54.972-22.289-59.128-51.2h254.788C456.038,472.644,431.104,494.933,401.067,494.933z"/>
	</g>
</g>
<g>
	<g>
		<path d="M332.8,426.667c-23.526,0-42.667,19.14-42.667,42.667c0,23.526,19.14,42.667,42.667,42.667
			c23.526,0,42.667-19.14,42.667-42.667C375.467,445.807,356.326,426.667,332.8,426.667z M332.8,494.933
			c-14.114,0-25.6-11.486-25.6-25.6s11.486-25.6,25.6-25.6s25.6,11.486,25.6,25.6S346.914,494.933,332.8,494.933z"/>
	</g>
</g>
<g>
	<g>
		<path d="M358.4,34.133h-51.2c-4.71,0-8.533,3.823-8.533,8.533c0,4.71,3.823,8.533,8.533,8.533h51.2
			c4.71,0,8.533-3.823,8.533-8.533C366.933,37.956,363.11,34.133,358.4,34.133z"/>
	</g>
</g>
<g>
	<g>
		<path d="M162.133,59.733c-4.71,0-8.533,3.823-8.533,8.533v17.067c0,4.71,3.823,8.533,8.533,8.533c4.71,0,8.533-3.823,8.533-8.533
			V68.267C170.667,63.556,166.844,59.733,162.133,59.733z"/>
	</g>
</g>
<g>
	<g>
		<path d="M119.467,51.2H85.333c-4.71,0-8.533,3.823-8.533,8.533v34.133c0,4.71,3.823,8.533,8.533,8.533h34.133
			c4.71,0,8.533-3.823,8.533-8.533V59.733C128,55.023,124.177,51.2,119.467,51.2z M110.933,85.333H93.867V68.267h17.067V85.333z"/>
	</g>
</g>
<g>
	<g>
		<path d="M257.058,494.421c-29.79-3.721-52.258-29.158-52.258-59.187V76.766c0-30.02,22.468-55.467,52.25-59.187l68.147-8.491
			L257.05,0.649C253.483,0.205,250.445,0,247.501,0H110.899C68.574,0,34.133,34.441,34.133,76.766v358.468
			c0,42.325,34.441,76.766,76.766,76.766h136.602c2.944,0,5.982-0.205,9.557-0.649l68.147-8.439L257.058,494.421z M110.899,494.933
			c-32.922,0-59.699-26.786-59.699-59.699V76.766c0-32.913,26.778-59.699,59.699-59.699H216.32
			c-17.519,14.157-28.587,35.797-28.587,59.699v358.468c0,23.902,11.068,45.542,28.587,59.699H110.899z"/>
	</g>
</g>
<g>
	<g>
		<path d="M257.058,494.421c-29.79-3.721-52.258-29.158-52.258-59.187v-85.367H34.133v85.367c0,42.325,34.441,76.766,76.766,76.766
			h136.602c2.944,0,5.982-0.205,9.557-0.649l68.147-8.439L257.058,494.421z M110.899,494.933c-32.922,0-59.699-26.786-59.699-59.699
			v-68.301h136.533v68.301c0,23.902,11.068,45.542,28.587,59.699H110.899z"/>
	</g>
</g>
<g>
	<g>
		<path d="M273.067,110.933h-34.133c-4.71,0-8.533,3.823-8.533,8.533V153.6c0,4.71,3.823,8.533,8.533,8.533h34.133
			c4.71,0,8.533-3.823,8.533-8.533v-34.133C281.6,114.756,277.777,110.933,273.067,110.933z M264.533,145.067h-17.067V128h17.067
			V145.067z"/>
	</g>
</g>
<g>
	<g>
		<path d="M426.667,110.933h-34.133c-4.71,0-8.533,3.823-8.533,8.533V153.6c0,4.71,3.823,8.533,8.533,8.533h34.133
			c4.71,0,8.533-3.823,8.533-8.533v-34.133C435.2,114.756,431.377,110.933,426.667,110.933z M418.133,145.067h-17.067V128h17.067
			V145.067z"/>
	</g>
</g>
<g>
	<g>
		<path d="M349.867,110.933h-34.133c-4.71,0-8.533,3.823-8.533,8.533V153.6c0,4.71,3.823,8.533,8.533,8.533h34.133
			c4.71,0,8.533-3.823,8.533-8.533v-34.133C358.4,114.756,354.577,110.933,349.867,110.933z M341.333,145.067h-17.067V128h17.067
			V145.067z"/>
	</g>
</g>
<g>
	<g>
		<path d="M273.067,187.733h-34.133c-4.71,0-8.533,3.823-8.533,8.533V230.4c0,4.71,3.823,8.533,8.533,8.533h34.133
			c4.71,0,8.533-3.823,8.533-8.533v-34.133C281.6,191.556,277.777,187.733,273.067,187.733z M264.533,221.867h-17.067V204.8h17.067
			V221.867z"/>
	</g>
</g>
<g>
	<g>
		<path d="M426.667,187.733h-34.133c-4.71,0-8.533,3.823-8.533,8.533V230.4c0,4.71,3.823,8.533,8.533,8.533h34.133
			c4.71,0,8.533-3.823,8.533-8.533v-34.133C435.2,191.556,431.377,187.733,426.667,187.733z M418.133,221.867h-17.067V204.8h17.067
			V221.867z"/>
	</g>
</g>
<g>
	<g>
		<path d="M349.867,187.733h-34.133c-4.71,0-8.533,3.823-8.533,8.533V230.4c0,4.71,3.823,8.533,8.533,8.533h34.133
			c4.71,0,8.533-3.823,8.533-8.533v-34.133C358.4,191.556,354.577,187.733,349.867,187.733z M341.333,221.867h-17.067V204.8h17.067
			V221.867z"/>
	</g>
</g>
<g>
	<g>
		<path d="M273.067,264.533h-34.133c-4.71,0-8.533,3.823-8.533,8.533V307.2c0,4.71,3.823,8.533,8.533,8.533h34.133
			c4.71,0,8.533-3.823,8.533-8.533v-34.133C281.6,268.356,277.777,264.533,273.067,264.533z M264.533,298.667h-17.067V281.6h17.067
			V298.667z"/>
	</g>
</g>
<g>
	<g>
		<path d="M426.667,264.533h-34.133c-4.71,0-8.533,3.823-8.533,8.533V307.2c0,4.71,3.823,8.533,8.533,8.533h34.133
			c4.71,0,8.533-3.823,8.533-8.533v-34.133C435.2,268.356,431.377,264.533,426.667,264.533z M418.133,298.667h-17.067V281.6h17.067
			V298.667z"/>
	</g>
</g>
<g>
	<g>
		<path d="M349.867,264.533h-34.133c-4.71,0-8.533,3.823-8.533,8.533V307.2c0,4.71,3.823,8.533,8.533,8.533h34.133
			c4.71,0,8.533-3.823,8.533-8.533v-34.133C358.4,268.356,354.577,264.533,349.867,264.533z M341.333,298.667h-17.067V281.6h17.067
			V298.667z"/>
	</g>
</g>
<g>
	<g>
		<path d="M162.133,443.733H93.867c-4.71,0-8.533,3.823-8.533,8.533c0,4.71,3.823,8.533,8.533,8.533h68.267
			c4.71,0,8.533-3.823,8.533-8.533C170.667,447.556,166.844,443.733,162.133,443.733z"/>
	</g>
</g>
<g>
	<g>
		<path d="M145.067,401.067h-34.133c-4.71,0-8.533,3.823-8.533,8.533s3.823,8.533,8.533,8.533h34.133
			c4.71,0,8.533-3.823,8.533-8.533S149.777,401.067,145.067,401.067z"/>
	</g>
</g>
<g>
</g>
<g>
</g>
<g>
</g>
<g>
</g>
<g>
</g>
<g>
</g>
<g>
</g>
<g>
</g>
<g>
</g>
<g>
</g>
<g>
</g>
<g>
</g>
<g>
</g>
<g>
</g>
<g>
</g>
</svg>
