<?xml version="1.0" encoding="iso-8859-1"?>
<!-- Generator: Adobe Illustrator 19.0.0, SVG Export Plug-In . SVG Version: 6.00 Build 0)  -->
<svg version="1.1" id="Capa_1" xmlns="http://www.w3.org/2000/svg" xmlns:xlink="http://www.w3.org/1999/xlink" x="0px" y="0px"
	 viewBox="0 0 512 512" style="enable-background:new 0 0 512 512;" xml:space="preserve">
<g>
	<g>
		<path d="M475.733,273.067H36.267C16.273,273.067,0,289.331,0,309.333v98.133c0,20.002,16.273,36.267,36.267,36.267h439.467
			c19.994,0,36.267-16.265,36.267-36.267v-98.133C512,289.331,495.727,273.067,475.733,273.067z M494.933,407.467
			c0,10.581-8.61,19.2-19.2,19.2H36.267c-10.59,0-19.2-8.619-19.2-19.2v-98.133c0-10.581,8.61-19.2,19.2-19.2h439.467
			c10.59,0,19.2,8.619,19.2,19.2V407.467z"/>
	</g>
</g>
<g>
	<g>
		<path d="M110.933,426.667H42.667c-4.71,0-8.533,3.814-8.533,8.533v34.133c0,4.719,3.823,8.533,8.533,8.533h68.267
			c4.71,0,8.533-3.814,8.533-8.533V435.2C119.467,430.481,115.644,426.667,110.933,426.667z M102.4,460.8H51.2v-17.067h51.2V460.8z"
			/>
	</g>
</g>
<g>
	<g>
		<path d="M469.333,426.667h-68.267c-4.71,0-8.533,3.814-8.533,8.533v34.133c0,4.719,3.823,8.533,8.533,8.533h68.267
			c4.71,0,8.533-3.814,8.533-8.533V435.2C477.867,430.481,474.044,426.667,469.333,426.667z M460.8,460.8h-51.2v-17.067h51.2V460.8z
			"/>
	</g>
</g>
<g>
	<g>
		<path d="M68.267,34.133c-14.114,0-25.6,11.486-25.6,25.6V281.6c0,4.719,3.823,8.533,8.533,8.533h34.133
			c4.71,0,8.533-3.814,8.533-8.533V59.733C93.867,45.619,82.381,34.133,68.267,34.133z M76.8,273.067H59.733V59.733
			c0-4.71,3.831-8.533,8.533-8.533c4.702,0,8.533,3.823,8.533,8.533V273.067z"/>
	</g>
</g>
<g>
	<g>
		<path d="M443.733,34.133c-14.114,0-25.6,11.486-25.6,25.6V281.6c0,4.719,3.823,8.533,8.533,8.533H460.8
			c4.71,0,8.533-3.814,8.533-8.533V59.733C469.333,45.619,457.847,34.133,443.733,34.133z M452.267,273.067H435.2V59.733
			c0-4.71,3.831-8.533,8.533-8.533c4.702,0,8.533,3.823,8.533,8.533V273.067z"/>
	</g>
</g>
<g>
	<g>
		<path d="M119.467,315.733H51.2c-4.71,0-8.533,3.814-8.533,8.533v42.667c0,4.719,3.823,8.533,8.533,8.533h8.533v17.067
			c0,4.719,3.823,8.533,8.533,8.533H102.4c4.71,0,8.533-3.814,8.533-8.533v-17.067h8.533c4.71,0,8.533-3.814,8.533-8.533v-42.667
			C128,319.548,124.177,315.733,119.467,315.733z M110.933,358.4H102.4c-4.71,0-8.533,3.814-8.533,8.533V384H76.8v-17.067
			c0-4.719-3.823-8.533-8.533-8.533h-8.533v-25.6h51.2V358.4z"/>
	</g>
</g>
<g>
	<g>
		<path d="M460.8,315.733h-68.267c-4.71,0-8.533,3.814-8.533,8.533v42.667c0,4.719,3.823,8.533,8.533,8.533h8.533v17.067
			c0,4.719,3.823,8.533,8.533,8.533h34.133c4.71,0,8.533-3.814,8.533-8.533v-17.067h8.533c4.71,0,8.533-3.814,8.533-8.533v-42.667
			C469.333,319.548,465.51,315.733,460.8,315.733z M452.267,358.4h-8.533c-4.71,0-8.533,3.814-8.533,8.533V384h-17.067v-17.067
			c0-4.719-3.823-8.533-8.533-8.533h-8.533v-25.6h51.2V358.4z"/>
	</g>
</g>
<g>
	<g>
		<path d="M349.867,315.733H281.6c-4.71,0-8.533,3.814-8.533,8.533v42.667c0,4.719,3.823,8.533,8.533,8.533h8.533v17.067
			c0,4.719,3.823,8.533,8.533,8.533H332.8c4.71,0,8.533-3.814,8.533-8.533v-17.067h8.533c4.71,0,8.533-3.814,8.533-8.533v-42.667
			C358.4,319.548,354.577,315.733,349.867,315.733z M341.333,358.4H332.8c-4.71,0-8.533,3.814-8.533,8.533V384H307.2v-17.067
			c0-4.719-3.823-8.533-8.533-8.533h-8.533v-25.6h51.2V358.4z"/>
	</g>
</g>
<g>
	<g>
		<path d="M230.4,315.733h-68.267c-4.71,0-8.533,3.814-8.533,8.533v42.667c0,4.719,3.823,8.533,8.533,8.533h8.533v17.067
			c0,4.719,3.823,8.533,8.533,8.533h34.133c4.71,0,8.533-3.814,8.533-8.533v-17.067h8.533c4.71,0,8.533-3.814,8.533-8.533v-42.667
			C238.933,319.548,235.11,315.733,230.4,315.733z M221.867,358.4h-8.533c-4.71,0-8.533,3.814-8.533,8.533V384h-17.067v-17.067
			c0-4.719-3.823-8.533-8.533-8.533h-8.533v-25.6h51.2V358.4z"/>
	</g>
</g>
<g>
</g>
<g>
</g>
<g>
</g>
<g>
</g>
<g>
</g>
<g>
</g>
<g>
</g>
<g>
</g>
<g>
</g>
<g>
</g>
<g>
</g>
<g>
</g>
<g>
</g>
<g>
</g>
<g>
</g>
</svg>
