<?xml version="1.0" encoding="iso-8859-1"?>
<!-- Generator: Adobe Illustrator 19.0.0, SVG Export Plug-In . SVG Version: 6.00 Build 0)  -->
<svg version="1.1" id="Capa_1" xmlns="http://www.w3.org/2000/svg" xmlns:xlink="http://www.w3.org/1999/xlink" x="0px" y="0px"
	 viewBox="0 0 512 512" style="enable-background:new 0 0 512 512;" xml:space="preserve">
<g>
	<g>
		<path d="M366.976,0H145.033c-14.097,0-25.566,11.469-25.566,25.566v460.868c0,14.097,11.469,25.566,25.566,25.566h221.935
			c14.097,0,25.566-11.469,25.566-25.566V25.566C392.533,11.469,381.065,0,366.976,0z M375.467,486.434
			c0,4.685-3.814,8.499-8.491,8.499H145.033c-4.685,0-8.499-3.814-8.499-8.499V25.566c0-4.685,3.814-8.499,8.499-8.499h221.935
			c4.685,0,8.499,3.814,8.499,8.499V486.434z"/>
	</g>
</g>
<g>
	<g>
		<path d="M196.267,34.133h-34.133c-4.71,0-8.533,3.814-8.533,8.533V76.8c0,4.719,3.823,8.533,8.533,8.533h34.133
			c4.71,0,8.533-3.814,8.533-8.533V42.667C204.8,37.948,200.977,34.133,196.267,34.133z M187.733,68.267h-17.067V51.2h17.067V68.267
			z"/>
	</g>
</g>
<g>
	<g>
		<path d="M332.8,34.133h-42.667c-14.114,0-25.6,11.486-25.6,25.6s11.486,25.6,25.6,25.6H332.8c14.114,0,25.6-11.486,25.6-25.6
			S346.914,34.133,332.8,34.133z M332.8,68.267h-42.667c-4.702,0-8.533-3.823-8.533-8.533s3.831-8.533,8.533-8.533H332.8
			c4.702,0,8.533,3.823,8.533,8.533S337.502,68.267,332.8,68.267z"/>
	</g>
</g>
<g>
	<g>
		<path d="M196.267,102.4h-34.133c-4.71,0-8.533,3.814-8.533,8.533v34.133c0,4.719,3.823,8.533,8.533,8.533h34.133
			c4.71,0,8.533-3.814,8.533-8.533v-34.133C204.8,106.214,200.977,102.4,196.267,102.4z M187.733,136.533h-17.067v-17.067h17.067
			V136.533z"/>
	</g>
</g>
<g>
	<g>
		<path d="M349.867,102.4h-34.133c-4.71,0-8.533,3.814-8.533,8.533v34.133c0,4.719,3.823,8.533,8.533,8.533h34.133
			c4.71,0,8.533-3.814,8.533-8.533v-34.133C358.4,106.214,354.577,102.4,349.867,102.4z M341.333,136.533h-17.067v-17.067h17.067
			V136.533z"/>
	</g>
</g>
<g>
	<g>
		<path d="M273.067,102.4h-34.133c-4.71,0-8.533,3.814-8.533,8.533v34.133c0,4.719,3.823,8.533,8.533,8.533h34.133
			c4.71,0,8.533-3.814,8.533-8.533v-34.133C281.6,106.214,277.777,102.4,273.067,102.4z M264.533,136.533h-17.067v-17.067h17.067
			V136.533z"/>
	</g>
</g>
<g>
	<g>
		<path d="M196.267,170.667h-34.133c-4.71,0-8.533,3.814-8.533,8.533v34.133c0,4.719,3.823,8.533,8.533,8.533h34.133
			c4.71,0,8.533-3.814,8.533-8.533V179.2C204.8,174.481,200.977,170.667,196.267,170.667z M187.733,204.8h-17.067v-17.067h17.067
			V204.8z"/>
	</g>
</g>
<g>
	<g>
		<path d="M349.867,170.667h-34.133c-4.71,0-8.533,3.814-8.533,8.533v34.133c0,4.719,3.823,8.533,8.533,8.533h34.133
			c4.71,0,8.533-3.814,8.533-8.533V179.2C358.4,174.481,354.577,170.667,349.867,170.667z M341.333,204.8h-17.067v-17.067h17.067
			V204.8z"/>
	</g>
</g>
<g>
	<g>
		<path d="M273.067,170.667h-34.133c-4.71,0-8.533,3.814-8.533,8.533v34.133c0,4.719,3.823,8.533,8.533,8.533h34.133
			c4.71,0,8.533-3.814,8.533-8.533V179.2C281.6,174.481,277.777,170.667,273.067,170.667z M264.533,204.8h-17.067v-17.067h17.067
			V204.8z"/>
	</g>
</g>
<g>
	<g>
		<path d="M196.267,238.933h-34.133c-4.71,0-8.533,3.814-8.533,8.533V281.6c0,4.719,3.823,8.533,8.533,8.533h34.133
			c4.71,0,8.533-3.814,8.533-8.533v-34.133C204.8,242.748,200.977,238.933,196.267,238.933z M187.733,273.067h-17.067V256h17.067
			V273.067z"/>
	</g>
</g>
<g>
	<g>
		<path d="M349.867,238.933h-34.133c-4.71,0-8.533,3.814-8.533,8.533V281.6c0,4.719,3.823,8.533,8.533,8.533h34.133
			c4.71,0,8.533-3.814,8.533-8.533v-34.133C358.4,242.748,354.577,238.933,349.867,238.933z M341.333,273.067h-17.067V256h17.067
			V273.067z"/>
	</g>
</g>
<g>
	<g>
		<path d="M273.067,238.933h-34.133c-4.71,0-8.533,3.814-8.533,8.533V281.6c0,4.719,3.823,8.533,8.533,8.533h34.133
			c4.71,0,8.533-3.814,8.533-8.533v-34.133C281.6,242.748,277.777,238.933,273.067,238.933z M264.533,273.067h-17.067V256h17.067
			V273.067z"/>
	</g>
</g>
<g>
	<g>
		<path d="M256,307.2c-4.71,0-8.533,3.814-8.533,8.533v51.2c0,4.719,3.823,8.533,8.533,8.533c4.71,0,8.533-3.814,8.533-8.533v-51.2
			C264.533,311.014,260.71,307.2,256,307.2z"/>
	</g>
</g>
<g>
	<g>
		<path d="M256,409.6c-4.71,0-8.533,3.814-8.533,8.533v51.2c0,4.719,3.823,8.533,8.533,8.533c4.71,0,8.533-3.814,8.533-8.533v-51.2
			C264.533,413.414,260.71,409.6,256,409.6z"/>
	</g>
</g>
<g>
	<g>
		<path d="M332.8,384h-51.2c-4.71,0-8.533,3.814-8.533,8.533c0,4.719,3.823,8.533,8.533,8.533h51.2c4.71,0,8.533-3.814,8.533-8.533
			C341.333,387.814,337.51,384,332.8,384z"/>
	</g>
</g>
<g>
	<g>
		<path d="M230.4,384h-51.2c-4.71,0-8.533,3.814-8.533,8.533c0,4.719,3.823,8.533,8.533,8.533h51.2c4.71,0,8.533-3.814,8.533-8.533
			C238.933,387.814,235.11,384,230.4,384z"/>
	</g>
</g>
<g>
</g>
<g>
</g>
<g>
</g>
<g>
</g>
<g>
</g>
<g>
</g>
<g>
</g>
<g>
</g>
<g>
</g>
<g>
</g>
<g>
</g>
<g>
</g>
<g>
</g>
<g>
</g>
<g>
</g>
</svg>
