<?xml version="1.0" encoding="iso-8859-1"?>
<!-- Generator: Adobe Illustrator 19.0.0, SVG Export Plug-In . SVG Version: 6.00 Build 0)  -->
<svg version="1.1" id="Capa_1" xmlns="http://www.w3.org/2000/svg" xmlns:xlink="http://www.w3.org/1999/xlink" x="0px" y="0px"
	 viewBox="0 0 512 512" style="enable-background:new 0 0 512 512;" xml:space="preserve">
<g>
	<g>
		<path d="M435.2,0H76.8c-4.71,0-8.533,3.814-8.533,8.533v494.933c0,4.719,3.823,8.533,8.533,8.533h358.4
			c4.71,0,8.533-3.814,8.533-8.533V8.533C443.733,3.814,439.91,0,435.2,0z M426.667,494.933H85.333V17.067h341.333V494.933z"/>
	</g>
</g>
<g>
	<g>
		<path d="M392.533,42.667H119.467c-4.71,0-8.533,3.814-8.533,8.533v85.333c0,4.719,3.823,8.533,8.533,8.533h273.067
			c4.71,0,8.533-3.814,8.533-8.533V51.2C401.067,46.481,397.244,42.667,392.533,42.667z M384,128H128V59.733h256V128z"/>
	</g>
</g>
<g>
	<g>
		<path d="M375.467,170.667H136.533c-4.71,0-8.533,3.814-8.533,8.533v34.133c0,4.719,3.823,8.533,8.533,8.533h238.933
			c4.71,0,8.533-3.814,8.533-8.533V179.2C384,174.481,380.177,170.667,375.467,170.667z M366.933,204.8H145.067v-17.067h221.867
			V204.8z"/>
	</g>
</g>
<g>
	<g>
		<path d="M375.467,247.467H136.533c-4.71,0-8.533,3.814-8.533,8.533v34.133c0,4.719,3.823,8.533,8.533,8.533h238.933
			c4.71,0,8.533-3.814,8.533-8.533V256C384,251.281,380.177,247.467,375.467,247.467z M366.933,281.6H145.067v-17.067h221.867V281.6
			z"/>
	</g>
</g>
<g>
	<g>
		<path d="M358.4,324.267c-23.526,0-42.667,19.14-42.667,42.667S334.874,409.6,358.4,409.6c23.526,0,42.667-19.14,42.667-42.667
			S381.926,324.267,358.4,324.267z M358.4,392.533c-14.114,0-25.6-11.486-25.6-25.6s11.486-25.6,25.6-25.6s25.6,11.486,25.6,25.6
			S372.514,392.533,358.4,392.533z"/>
	</g>
</g>
<g>
	<g>
		<path d="M230.4,324.267h-34.133c-4.71,0-8.533,3.814-8.533,8.533v34.133c0,4.719,3.823,8.533,8.533,8.533H230.4
			c4.71,0,8.533-3.814,8.533-8.533V332.8C238.933,328.081,235.11,324.267,230.4,324.267z M221.867,358.4H204.8v-17.067h17.067V358.4
			z"/>
	</g>
</g>
<g>
	<g>
		<path d="M162.133,324.267H128c-4.71,0-8.533,3.814-8.533,8.533v34.133c0,4.719,3.823,8.533,8.533,8.533h34.133
			c4.71,0,8.533-3.814,8.533-8.533V332.8C170.667,328.081,166.844,324.267,162.133,324.267z M153.6,358.4h-17.067v-17.067H153.6
			V358.4z"/>
	</g>
</g>
<g>
	<g>
		<path d="M230.4,426.667h-34.133c-4.71,0-8.533,3.814-8.533,8.533v34.133c0,4.719,3.823,8.533,8.533,8.533H230.4
			c4.71,0,8.533-3.814,8.533-8.533V435.2C238.933,430.481,235.11,426.667,230.4,426.667z M221.867,460.8H204.8v-17.067h17.067V460.8
			z"/>
	</g>
</g>
<g>
	<g>
		<path d="M162.133,426.667H128c-4.71,0-8.533,3.814-8.533,8.533v34.133c0,4.719,3.823,8.533,8.533,8.533h34.133
			c4.71,0,8.533-3.814,8.533-8.533V435.2C170.667,430.481,166.844,426.667,162.133,426.667z M153.6,460.8h-17.067v-17.067H153.6
			V460.8z"/>
	</g>
</g>
<g>
	<g>
		<path d="M230.4,392.533H128c-4.71,0-8.533,3.814-8.533,8.533c0,4.719,3.823,8.533,8.533,8.533h102.4
			c4.71,0,8.533-3.814,8.533-8.533C238.933,396.348,235.11,392.533,230.4,392.533z"/>
	</g>
</g>
<g>
	<g>
		<path d="M392.533,204.8H119.467c-4.71,0-8.533,3.814-8.533,8.533c0,4.719,3.823,8.533,8.533,8.533h273.067
			c4.71,0,8.533-3.814,8.533-8.533C401.067,208.614,397.244,204.8,392.533,204.8z"/>
	</g>
</g>
<g>
	<g>
		<path d="M392.533,281.6H119.467c-4.71,0-8.533,3.814-8.533,8.533s3.823,8.533,8.533,8.533h273.067c4.71,0,8.533-3.814,8.533-8.533
			S397.244,281.6,392.533,281.6z"/>
	</g>
</g>
<g>
	<g>
		<path d="M324.267,85.333h-204.8c-4.71,0-8.533,3.814-8.533,8.533c0,4.719,3.823,8.533,8.533,8.533h204.8
			c4.71,0,8.533-3.814,8.533-8.533C332.8,89.148,328.977,85.333,324.267,85.333z"/>
	</g>
</g>
<g>
	<g>
		<path d="M392.533,85.333H358.4c-4.71,0-8.533,3.814-8.533,8.533c0,4.719,3.823,8.533,8.533,8.533h34.133
			c4.71,0,8.533-3.814,8.533-8.533C401.067,89.148,397.244,85.333,392.533,85.333z"/>
	</g>
</g>
<g>
</g>
<g>
</g>
<g>
</g>
<g>
</g>
<g>
</g>
<g>
</g>
<g>
</g>
<g>
</g>
<g>
</g>
<g>
</g>
<g>
</g>
<g>
</g>
<g>
</g>
<g>
</g>
<g>
</g>
</svg>
