<?xml version="1.0" encoding="iso-8859-1"?>
<!-- Generator: Adobe Illustrator 19.0.0, SVG Export Plug-In . SVG Version: 6.00 Build 0)  -->
<svg version="1.1" id="Capa_1" xmlns="http://www.w3.org/2000/svg" xmlns:xlink="http://www.w3.org/1999/xlink" x="0px" y="0px"
	 viewBox="0 0 512 512" style="enable-background:new 0 0 512 512;" xml:space="preserve">
<g>
	<g>
		<path d="M503.467,8.533H8.533C3.823,8.533,0,12.348,0,17.067v375.467c0,4.719,3.823,8.533,8.533,8.533h110.891
			c9.438,0,17.109,7.68,17.109,17.109v76.757c0,4.719,3.823,8.533,8.533,8.533h221.867c4.71,0,8.533-3.814,8.533-8.533v-76.757
			c0-9.438,7.68-17.109,17.109-17.109h110.891c4.71,0,8.533-3.814,8.533-8.533V17.067C512,12.348,508.177,8.533,503.467,8.533z
			 M494.933,384H392.576c-18.842,0-34.176,15.334-34.176,34.176V486.4H153.6v-68.224c0-18.842-15.334-34.176-34.176-34.176H17.067
			V25.6h477.867V384z"/>
	</g>
</g>
<g>
	<g>
		<path d="M460.8,51.2H51.2c-4.71,0-8.533,3.814-8.533,8.533v290.133c0,4.719,3.823,8.533,8.533,8.533h110.891
			c9.438,0,17.109,7.68,17.109,17.109v76.757c0,4.719,3.823,8.533,8.533,8.533h136.533c4.71,0,8.533-3.814,8.533-8.533v-76.757
			c0-9.438,7.68-17.109,17.109-17.109H460.8c4.71,0,8.533-3.814,8.533-8.533V59.733C469.333,55.014,465.51,51.2,460.8,51.2z
			 M452.267,341.333H349.909c-18.842,0-34.176,15.334-34.176,34.176v68.224H196.267h0v-68.224c0-18.842-15.334-34.176-34.176-34.176
			H59.733V68.267h392.533V341.333z"/>
	</g>
</g>
<g>
	<g>
		<path d="M119.467,51.2H85.333c-4.71,0-8.533,3.814-8.533,8.533v85.333c0,4.719,3.823,8.533,8.533,8.533h34.133
			c4.71,0,8.533-3.814,8.533-8.533V59.733C128,55.014,124.177,51.2,119.467,51.2z M110.933,136.533H93.867V68.267h17.067V136.533z"
			/>
	</g>
</g>
<g>
	<g>
		<path d="M426.667,51.2h-34.133c-4.71,0-8.533,3.814-8.533,8.533v85.333c0,4.719,3.823,8.533,8.533,8.533h34.133
			c4.71,0,8.533-3.814,8.533-8.533V59.733C435.2,55.014,431.377,51.2,426.667,51.2z M418.133,136.533h-17.067V68.267h17.067V136.533
			z"/>
	</g>
</g>
<g>
	<g>
		<path d="M349.867,51.2h-34.133c-4.71,0-8.533,3.814-8.533,8.533v85.333c0,4.719,3.823,8.533,8.533,8.533h34.133
			c4.71,0,8.533-3.814,8.533-8.533V59.733C358.4,55.014,354.577,51.2,349.867,51.2z M341.333,136.533h-17.067V68.267h17.067V136.533
			z"/>
	</g>
</g>
<g>
	<g>
		<path d="M273.067,51.2h-34.133c-4.71,0-8.533,3.814-8.533,8.533v85.333c0,4.719,3.823,8.533,8.533,8.533h34.133
			c4.71,0,8.533-3.814,8.533-8.533V59.733C281.6,55.014,277.777,51.2,273.067,51.2z M264.533,136.533h-17.067V68.267h17.067V136.533
			z"/>
	</g>
</g>
<g>
	<g>
		<path d="M196.267,51.2h-34.133c-4.71,0-8.533,3.814-8.533,8.533v85.333c0,4.719,3.823,8.533,8.533,8.533h34.133
			c4.71,0,8.533-3.814,8.533-8.533V59.733C204.8,55.014,200.977,51.2,196.267,51.2z M187.733,136.533h-17.067V68.267h17.067V136.533
			z"/>
	</g>
</g>
<g>
</g>
<g>
</g>
<g>
</g>
<g>
</g>
<g>
</g>
<g>
</g>
<g>
</g>
<g>
</g>
<g>
</g>
<g>
</g>
<g>
</g>
<g>
</g>
<g>
</g>
<g>
</g>
<g>
</g>
</svg>
