<?xml version="1.0" encoding="iso-8859-1"?>
<!-- Generator: Adobe Illustrator 19.0.0, SVG Export Plug-In . SVG Version: 6.00 Build 0)  -->
<svg version="1.1" id="Capa_1" xmlns="http://www.w3.org/2000/svg" xmlns:xlink="http://www.w3.org/1999/xlink" x="0px" y="0px"
	 viewBox="0 0 512 512" style="enable-background:new 0 0 512 512;" xml:space="preserve">
<g>
	<g>
		<path d="M456.272,216.439c-1.749-22.315-15.01-42.419-34.628-52.471c-13.261-6.784-28.109-10.368-42.923-10.368h-40.644
			c-14.814,0-29.653,3.584-42.923,10.385c-19.601,10.035-32.87,30.14-34.62,52.463c-6.025,77.201-6.025,155.494,0,232.721
			l0.162,1.988c1.664,21.214,13.449,40.201,31.531,50.782l2.611,1.527c9.54,5.581,20.395,8.533,31.386,8.533h64.35
			c10.991,0,21.845-2.953,31.386-8.533l2.62-1.527h0.008c18.082-10.581,29.867-29.568,31.531-50.79l0.154-1.997
			C462.305,371.942,462.305,293.649,456.272,216.439z M439.257,447.821l-0.154,1.997c-1.229,15.65-9.873,29.619-23.134,37.385
			l-2.62,1.527c-6.929,4.062-14.805,6.204-22.775,6.204h-64.35c-7.962,0-15.838-2.142-22.775-6.204l-2.603-1.528
			c-13.261-7.757-21.914-21.734-23.134-37.402l-0.162-1.988c-5.956-76.322-5.956-153.719,0-230.042
			c1.297-16.452,11.017-31.249,25.387-38.605c10.872-5.555,23.014-8.499,35.14-8.499h40.644c12.126,0,24.277,2.944,35.149,8.491
			c14.379,7.364,24.107,22.161,25.387,38.613C445.221,294.093,445.221,371.49,439.257,447.821z"/>
	</g>
</g>
<g>
	<g>
		<path d="M315.737,0c-28.228,0-51.2,22.963-51.2,51.2v59.733c0,4.719,3.823,8.533,8.533,8.533s8.533-3.814,8.533-8.533V51.2
			c0-18.825,15.309-34.133,34.133-34.133c18.825,0,34.133,15.309,34.133,34.133v110.933c0,4.719,3.823,8.533,8.533,8.533
			s8.533-3.814,8.533-8.533V51.2C366.937,22.963,343.965,0,315.737,0z"/>
	</g>
</g>
<g>
	<g>
		<path d="M145.07,25.6c-28.228,0-51.2,22.963-51.2,51.2v59.733c0,4.719,3.823,8.533,8.533,8.533s8.533-3.814,8.533-8.533V76.8
			c0-18.825,15.309-34.133,34.133-34.133s34.133,15.309,34.133,34.133c0,4.719,3.823,8.533,8.533,8.533
			c4.71,0,8.533-3.814,8.533-8.533C196.27,48.563,173.298,25.6,145.07,25.6z"/>
	</g>
</g>
<g>
	<g>
		<path d="M273.07,102.4c-4.71,0-8.533,3.814-8.533,8.533c0,18.825-15.309,34.133-34.133,34.133s-34.133-15.309-34.133-34.133V76.8
			c0-4.719-3.823-8.533-8.533-8.533c-4.71,0-8.533,3.814-8.533,8.533v34.133c0,28.237,22.972,51.2,51.2,51.2s51.2-22.963,51.2-51.2
			C281.603,106.214,277.78,102.4,273.07,102.4z"/>
	</g>
</g>
<g>
	<g>
		<path d="M128.003,128h-51.2c-4.71,0-8.533,3.814-8.533,8.533v34.133c0,4.719,3.823,8.533,8.533,8.533h51.2
			c4.71,0,8.533-3.814,8.533-8.533v-34.133C136.537,131.814,132.714,128,128.003,128z M119.47,162.133H85.337v-17.067h34.133
			V162.133z"/>
	</g>
</g>
<g>
	<g>
		<path d="M128.003,213.333h-51.2c-4.71,0-8.533,3.814-8.533,8.533v25.6c0,18.825,15.309,34.133,34.133,34.133
			s34.133-15.309,34.133-34.133v-25.6C136.537,217.148,132.714,213.333,128.003,213.333z M119.47,247.467
			c0,9.412-7.654,17.067-17.067,17.067s-17.067-7.654-17.067-17.067V230.4h34.133V247.467z"/>
	</g>
</g>
<g>
	<g>
		<path d="M145.07,162.133H59.737c-4.71,0-8.533,3.814-8.533,8.533v51.2c0,4.719,3.823,8.533,8.533,8.533h85.333
			c4.71,0,8.533-3.814,8.533-8.533v-51.2C153.603,165.948,149.78,162.133,145.07,162.133z M136.537,213.333H68.27V179.2h68.267
			V213.333z"/>
	</g>
</g>
<g>
	<g>
		<path d="M375.47,418.133h-34.133c-4.71,0-8.533,3.814-8.533,8.533V460.8c0,4.719,3.823,8.533,8.533,8.533h34.133
			c4.71,0,8.533-3.814,8.533-8.533v-34.133C384.003,421.948,380.18,418.133,375.47,418.133z M366.937,452.267H349.87V435.2h17.067
			V452.267z"/>
	</g>
</g>
<g>
</g>
<g>
</g>
<g>
</g>
<g>
</g>
<g>
</g>
<g>
</g>
<g>
</g>
<g>
</g>
<g>
</g>
<g>
</g>
<g>
</g>
<g>
</g>
<g>
</g>
<g>
</g>
<g>
</g>
</svg>
