<?xml version="1.0" encoding="iso-8859-1"?>
<!-- Generator: Adobe Illustrator 19.0.0, SVG Export Plug-In . SVG Version: 6.00 Build 0)  -->
<svg version="1.1" id="Capa_1" xmlns="http://www.w3.org/2000/svg" xmlns:xlink="http://www.w3.org/1999/xlink" x="0px" y="0px"
	 viewBox="0 0 512 512" style="enable-background:new 0 0 512 512;" xml:space="preserve">
<g>
	<g>
		<path d="M372.019,0H139.972c-16.008,0-29.039,13.022-29.039,29.039v453.922c0,16.017,13.03,29.039,29.039,29.039h232.055
			c16.009,0,29.039-13.022,29.039-29.047V29.039C401.067,13.022,388.036,0,372.019,0z M384,482.961
			c0,6.596-5.376,11.972-11.981,11.972H139.972c-6.596,0-11.972-5.376-11.972-11.981V29.039c0-6.596,5.376-11.972,11.972-11.972
			h232.055c6.596,0,11.972,5.376,11.972,11.972V482.961z"/>
	</g>
</g>
<g>
	<g>
		<path d="M358.4,34.133H153.6c-4.71,0-8.533,3.814-8.533,8.533V230.4c0,4.719,3.823,8.533,8.533,8.533h204.8
			c4.71,0,8.533-3.814,8.533-8.533V42.667C366.933,37.948,363.11,34.133,358.4,34.133z M349.867,221.867H162.133V51.2h187.733
			V221.867z"/>
	</g>
</g>
<g>
	<g>
		<path d="M256,256c-61.167,0-110.933,49.766-110.933,110.933S194.833,477.867,256,477.867S366.933,428.1,366.933,366.933
			S317.167,256,256,256z M256,460.8c-51.755,0-93.867-42.112-93.867-93.867s42.112-93.867,93.867-93.867
			c51.755,0,93.867,42.112,93.867,93.867S307.755,460.8,256,460.8z"/>
	</g>
</g>
<g>
	<g>
		<path d="M256,332.8c-18.825,0-34.133,15.309-34.133,34.133s15.309,34.133,34.133,34.133s34.133-15.309,34.133-34.133
			S274.825,332.8,256,332.8z M256,384c-9.412,0-17.067-7.654-17.067-17.067s7.654-17.067,17.067-17.067s17.067,7.654,17.067,17.067
			S265.412,384,256,384z"/>
	</g>
</g>
<g>
	<g>
		<path d="M196.267,358.4h-8.533c-4.71,0-8.533,3.814-8.533,8.533s3.823,8.533,8.533,8.533h8.533c4.71,0,8.533-3.814,8.533-8.533
			S200.977,358.4,196.267,358.4z"/>
	</g>
</g>
<g>
	<g>
		<path d="M324.267,358.4h-8.533c-4.71,0-8.533,3.814-8.533,8.533s3.823,8.533,8.533,8.533h8.533c4.71,0,8.533-3.814,8.533-8.533
			S328.977,358.4,324.267,358.4z"/>
	</g>
</g>
<g>
	<g>
		<path d="M256,418.133c-4.71,0-8.533,3.814-8.533,8.533v8.533c0,4.719,3.823,8.533,8.533,8.533s8.533-3.814,8.533-8.533v-8.533
			C264.533,421.948,260.71,418.133,256,418.133z"/>
	</g>
</g>
<g>
	<g>
		<path d="M256,290.133c-4.71,0-8.533,3.814-8.533,8.533v8.533c0,4.719,3.823,8.533,8.533,8.533s8.533-3.814,8.533-8.533v-8.533
			C264.533,293.948,260.71,290.133,256,290.133z"/>
	</g>
</g>
<g>
	<g>
		<path d="M262.033,121.967c-3.328-3.337-8.738-3.337-12.066,0L232.9,139.034c-3.337,3.336-3.337,8.73,0,12.066
			c1.664,1.664,3.849,2.5,6.033,2.5c2.185,0,4.369-0.836,6.033-2.5l17.067-17.067C265.37,130.697,265.37,125.303,262.033,121.967z"
			/>
	</g>
</g>
<g>
	<g>
		<path d="M210.833,70.767c-3.328-3.336-8.738-3.336-12.066,0L181.7,87.834c-3.337,3.337-3.337,8.73,0,12.066
			c1.664,1.664,3.849,2.5,6.033,2.5c2.185,0,4.369-0.836,6.033-2.5l17.067-17.067C214.17,79.497,214.17,74.103,210.833,70.767z"/>
	</g>
</g>
<g>
	<g>
		<path d="M262.033,70.767c-3.328-3.337-8.738-3.337-12.066,0L181.7,139.034c-3.337,3.336-3.337,8.73,0,12.066
			c1.664,1.664,3.849,2.5,6.033,2.5c2.185,0,4.369-0.836,6.033-2.5l68.267-68.267C265.37,79.497,265.37,74.103,262.033,70.767z"/>
	</g>
</g>
<g>
</g>
<g>
</g>
<g>
</g>
<g>
</g>
<g>
</g>
<g>
</g>
<g>
</g>
<g>
</g>
<g>
</g>
<g>
</g>
<g>
</g>
<g>
</g>
<g>
</g>
<g>
</g>
<g>
</g>
</svg>
