<?xml version="1.0" encoding="iso-8859-1"?>
<!-- Generator: Adobe Illustrator 19.0.0, SVG Export Plug-In . SVG Version: 6.00 Build 0)  -->
<svg version="1.1" id="Capa_1" xmlns="http://www.w3.org/2000/svg" xmlns:xlink="http://www.w3.org/1999/xlink" x="0px" y="0px"
	 viewBox="0 0 512 512" style="enable-background:new 0 0 512 512;" xml:space="preserve">
<g>
	<g>
		<path d="M347.332,102.4H130.534c-15.514,0-28.134,12.621-28.134,28.134v250.931c0,15.514,12.621,28.134,28.134,28.134h216.798
			c15.514,0,28.134-12.621,28.134-28.134V130.534C375.467,115.021,362.846,102.4,347.332,102.4z M358.4,381.466
			c0,6.101-4.966,11.068-11.068,11.068H130.534c-6.101,0-11.068-4.966-11.068-11.068V130.534c0-6.101,4.966-11.068,11.068-11.068
			h216.798c6.101,0,11.068,4.966,11.068,11.068V381.466z"/>
	</g>
</g>
<g>
	<g>
		<path d="M392.55,153.6h-25.617c-4.71,0-8.533,3.814-8.533,8.533v51.2c0,4.719,3.823,8.533,8.533,8.533h25.617
			c9.404,0,17.05-7.646,17.05-17.05V170.65C409.6,161.246,401.954,153.6,392.55,153.6z M392.533,204.8h-17.067v-34.142l17.067-0.009
			V204.8z"/>
	</g>
</g>
<g>
	<g>
		<path d="M392.55,290.133h-25.617c-4.71,0-8.533,3.814-8.533,8.533v51.2c0,4.719,3.823,8.533,8.533,8.533h25.617
			c9.404,0,17.05-7.646,17.05-17.05v-34.167C409.6,297.779,401.954,290.133,392.55,290.133z M392.533,341.333h-17.067v-34.142
			l17.067-0.008V341.333z"/>
	</g>
</g>
<g>
	<g>
		<path d="M333.338,108.885c-4.139-16.742-9.071-43.298-9.071-74.752C324.267,15.309,308.958,0,290.133,0h-102.4
			C168.909,0,153.6,15.309,153.6,34.133c0,31.454-4.932,58.01-9.071,74.752c-0.631,2.543-0.06,5.24,1.562,7.305
			c1.613,2.065,4.096,3.277,6.716,3.277H325.06c2.62,0,5.103-1.212,6.716-3.277S333.969,111.437,333.338,108.885z M163.507,102.4
			c3.669-17.399,7.159-41.105,7.159-68.267c0-9.412,7.654-17.067,17.067-17.067h102.4c9.412,0,17.067,7.654,17.067,17.067
			c0,27.162,3.49,50.867,7.151,68.267H163.507z"/>
	</g>
</g>
<g>
	<g>
		<path d="M331.776,395.81c-1.613-2.065-4.096-3.277-6.716-3.277H152.806c-2.62,0-5.103,1.212-6.716,3.277
			c-1.613,2.065-2.193,4.753-1.562,7.305c4.139,16.742,9.071,43.298,9.071,74.752c0,18.825,15.309,34.133,34.133,34.133h102.4
			c18.825,0,34.133-15.309,34.133-34.133c0-31.454,4.932-58.01,9.071-74.752C333.969,400.572,333.397,397.875,331.776,395.81z
			 M307.2,477.867c0,9.412-7.654,17.067-17.067,17.067h-102.4c-9.412,0-17.067-7.654-17.067-17.067
			c0-27.162-3.49-50.867-7.159-68.267h150.852C310.69,427,307.2,450.705,307.2,477.867z"/>
	</g>
</g>
<g>
	<g>
		<path d="M238.933,187.733c-37.641,0-68.267,30.626-68.267,68.267c0,37.641,30.626,68.267,68.267,68.267
			c37.641,0,68.267-30.626,68.267-68.267C307.2,218.359,276.574,187.733,238.933,187.733z M238.933,307.2
			c-28.228,0-51.2-22.963-51.2-51.2s22.972-51.2,51.2-51.2s51.2,22.963,51.2,51.2C290.133,284.237,267.162,307.2,238.933,307.2z"/>
	</g>
</g>
<g>
	<g>
		<path d="M179.2,136.533h-34.133c-4.71,0-8.533,3.814-8.533,8.533V179.2c0,4.719,3.823,8.533,8.533,8.533H179.2
			c4.71,0,8.533-3.814,8.533-8.533v-34.133C187.733,140.348,183.91,136.533,179.2,136.533z M170.667,170.667H153.6V153.6h17.067
			V170.667z"/>
	</g>
</g>
<g>
	<g>
		<path d="M332.8,136.533h-34.133c-4.71,0-8.533,3.814-8.533,8.533V179.2c0,4.719,3.823,8.533,8.533,8.533H332.8
			c4.71,0,8.533-3.814,8.533-8.533v-34.133C341.333,140.348,337.51,136.533,332.8,136.533z M324.267,170.667H307.2V153.6h17.067
			V170.667z"/>
	</g>
</g>
<g>
	<g>
		<path d="M179.2,324.267h-34.133c-4.71,0-8.533,3.814-8.533,8.533v34.133c0,4.719,3.823,8.533,8.533,8.533H179.2
			c4.71,0,8.533-3.814,8.533-8.533V332.8C187.733,328.081,183.91,324.267,179.2,324.267z M170.667,358.4H153.6v-17.067h17.067V358.4
			z"/>
	</g>
</g>
<g>
	<g>
		<path d="M332.8,324.267h-34.133c-4.71,0-8.533,3.814-8.533,8.533v34.133c0,4.719,3.823,8.533,8.533,8.533H332.8
			c4.71,0,8.533-3.814,8.533-8.533V332.8C341.333,328.081,337.51,324.267,332.8,324.267z M324.267,358.4H307.2v-17.067h17.067V358.4
			z"/>
	</g>
</g>
<g>
	<g>
		<path d="M238.933,221.867c-4.71,0-8.533,3.814-8.533,8.533V256c0,4.719,3.823,8.533,8.533,8.533s8.533-3.814,8.533-8.533v-25.6
			C247.467,225.681,243.644,221.867,238.933,221.867z"/>
	</g>
</g>
<g>
	<g>
		<path d="M264.533,247.467h-25.6c-4.71,0-8.533,3.814-8.533,8.533s3.823,8.533,8.533,8.533h25.6c4.71,0,8.533-3.814,8.533-8.533
			S269.244,247.467,264.533,247.467z"/>
	</g>
</g>
<g>
	<g>
		<path d="M247.467,153.6H230.4c-4.71,0-8.533,3.814-8.533,8.533s3.823,8.533,8.533,8.533h17.067c4.71,0,8.533-3.814,8.533-8.533
			S252.177,153.6,247.467,153.6z"/>
	</g>
</g>
<g>
	<g>
		<path d="M247.467,341.333H230.4c-4.71,0-8.533,3.814-8.533,8.533s3.823,8.533,8.533,8.533h17.067c4.71,0,8.533-3.814,8.533-8.533
			S252.177,341.333,247.467,341.333z"/>
	</g>
</g>
<g>
	<g>
		<path d="M332.8,238.933c-4.71,0-8.533,3.814-8.533,8.533v17.067c0,4.719,3.823,8.533,8.533,8.533c4.71,0,8.533-3.814,8.533-8.533
			v-17.067C341.333,242.748,337.51,238.933,332.8,238.933z"/>
	</g>
</g>
<g>
	<g>
		<path d="M145.067,238.933c-4.71,0-8.533,3.814-8.533,8.533v17.067c0,4.719,3.823,8.533,8.533,8.533s8.533-3.814,8.533-8.533
			v-17.067C153.6,242.748,149.777,238.933,145.067,238.933z"/>
	</g>
</g>
<g>
</g>
<g>
</g>
<g>
</g>
<g>
</g>
<g>
</g>
<g>
</g>
<g>
</g>
<g>
</g>
<g>
</g>
<g>
</g>
<g>
</g>
<g>
</g>
<g>
</g>
<g>
</g>
<g>
</g>
</svg>
