<?xml version="1.0" encoding="iso-8859-1"?>
<!-- Generator: Adobe Illustrator 19.0.0, SVG Export Plug-In . SVG Version: 6.00 Build 0)  -->
<svg version="1.1" id="Capa_1" xmlns="http://www.w3.org/2000/svg" xmlns:xlink="http://www.w3.org/1999/xlink" x="0px" y="0px"
	 viewBox="0 0 512 512" style="enable-background:new 0 0 512 512;" xml:space="preserve">
<g>
	<g>
		<path d="M238.933,102.4c-84.693,0-153.6,68.907-153.6,153.6s68.907,153.6,153.6,153.6s153.6-68.907,153.6-153.6
			S323.627,102.4,238.933,102.4z M238.933,392.533c-75.29,0-136.533-61.252-136.533-136.533s61.244-136.533,136.533-136.533
			S375.467,180.719,375.467,256S314.223,392.533,238.933,392.533z"/>
	</g>
</g>
<g>
	<g>
		<path d="M238.933,136.533c-65.877,0-119.467,53.589-119.467,119.467s53.589,119.467,119.467,119.467S358.4,321.877,358.4,256
			S304.811,136.533,238.933,136.533z M238.933,358.4c-56.465,0-102.4-45.935-102.4-102.4s45.935-102.4,102.4-102.4
			s102.4,45.935,102.4,102.4S295.398,358.4,238.933,358.4z"/>
	</g>
</g>
<g>
	<g>
		<path d="M319.863,371.448c-2.705-1.493-6.025-1.408-8.661,0.23c-21.786,13.645-46.78,20.855-72.269,20.855
			s-50.483-7.211-72.269-20.864c-2.628-1.647-5.948-1.732-8.661-0.23c-2.714,1.51-4.403,4.369-4.403,7.467v47.761
			c0,4.002,2.773,7.458,6.682,8.328c25.728,5.717,52.19,8.576,78.652,8.576s52.924-2.859,78.652-8.567
			c3.908-0.879,6.682-4.335,6.682-8.337v-47.761C324.267,375.808,322.577,372.949,319.863,371.448z M307.2,419.746
			c-44.809,9.02-91.725,9.02-136.533,0v-26.283c42.445,21.18,94.089,21.18,136.533,0V419.746z"/>
	</g>
</g>
<g>
	<g>
		<path d="M304.162,423.45c-1.92-1.63-4.463-2.33-6.938-1.886c-38.682,6.613-77.909,6.613-116.591,0
			c-2.475-0.427-5.009,0.273-6.938,1.886c-1.92,1.63-3.029,4.011-3.029,6.528v73.489c0,4.719,3.823,8.533,8.533,8.533h119.467
			c4.71,0,8.533-3.814,8.533-8.533v-73.489C307.2,427.46,306.091,425.071,304.162,423.45z M290.133,494.933h-102.4v-54.98
			c34.022,4.864,68.378,4.864,102.4,0V494.933z"/>
	</g>
</g>
<g>
	<g>
		<path d="M317.585,76.996c-51.456-11.435-105.847-11.435-157.303,0c-3.908,0.879-6.682,4.335-6.682,8.337v47.761
			c0,3.098,1.69,5.956,4.403,7.458c2.714,1.502,6.033,1.417,8.661-0.23c21.786-13.645,46.78-20.855,72.269-20.855
			s50.483,7.211,72.269,20.864c1.382,0.862,2.953,1.297,4.531,1.297c1.425,0,2.842-0.358,4.13-1.067
			c2.714-1.51,4.403-4.369,4.403-7.467V85.333C324.267,81.331,321.493,77.875,317.585,76.996z M307.2,118.537
			c-21.222-10.598-44.544-16.137-68.267-16.137s-47.044,5.538-68.267,16.137V92.254c44.809-9.02,91.725-9.02,136.533,0V118.537z"/>
	</g>
</g>
<g>
	<g>
		<path d="M298.667,0H179.2c-4.71,0-8.533,3.814-8.533,8.533v73.489c0,2.517,1.109,4.907,3.029,6.519
			c1.92,1.621,4.454,2.313,6.938,1.886c38.682-6.613,77.909-6.613,116.591,0c0.478,0.085,0.964,0.128,1.442,0.128
			c1.997,0,3.951-0.7,5.504-2.005c1.92-1.63,3.029-4.011,3.029-6.528V8.533C307.2,3.814,303.377,0,298.667,0z M290.133,72.055
			c-17.016-2.432-34.108-3.652-51.2-3.652s-34.185,1.212-51.2,3.644v-54.98h102.4V72.055z"/>
	</g>
</g>
<g>
	<g>
		<path d="M401.067,230.4h-18.159c-2.432,0-4.753,1.041-6.374,2.859c-1.621,1.826-2.381,4.25-2.099,6.665
			c0.691,5.922,1.033,11.179,1.033,16.077s-0.341,10.155-1.033,16.077c-0.282,2.415,0.478,4.838,2.099,6.664
			c1.621,1.818,3.942,2.859,6.374,2.859h18.159c14.114,0,25.6-11.486,25.6-25.6S415.181,230.4,401.067,230.4z M401.067,264.533
			h-8.806c0.179-2.953,0.273-5.786,0.273-8.533s-0.094-5.581-0.273-8.533h8.806c4.71,0,8.533,3.823,8.533,8.533
			S405.777,264.533,401.067,264.533z"/>
	</g>
</g>
<g>
	<g>
		<path d="M315.733,256H303.94l-6.17-12.348c-1.323-2.645-3.925-4.42-6.869-4.685c-2.918-0.273-5.82,1.007-7.595,3.379
			l-15.292,20.386l-12.348-43.204c-1.007-3.541-4.181-6.033-7.859-6.187c-3.746-0.316-7.049,2.082-8.337,5.521l-18.731,49.954
			l-16.845-33.698c-1.357-2.722-4.062-4.514-7.1-4.702c-3.046-0.154-5.939,1.246-7.629,3.78L174.635,256h-12.501
			c-4.71,0-8.533,3.814-8.533,8.533s3.823,8.533,8.533,8.533H179.2c2.85,0,5.513-1.425,7.108-3.806l8.909-13.363l19.021,38.05
			c1.451,2.901,4.412,4.719,7.629,4.719c0.145,0,0.299,0,0.444-0.009c3.388-0.179,6.349-2.347,7.544-5.521l16.512-44.041
			l9.958,34.85c0.887,3.115,3.473,5.461,6.656,6.05c3.208,0.563,6.434-0.674,8.38-3.277l17.314-23.091l2.355,4.719
			c1.451,2.893,4.403,4.719,7.637,4.719h17.067c4.71,0,8.533-3.814,8.533-8.533S320.444,256,315.733,256z"/>
	</g>
</g>
<g>
</g>
<g>
</g>
<g>
</g>
<g>
</g>
<g>
</g>
<g>
</g>
<g>
</g>
<g>
</g>
<g>
</g>
<g>
</g>
<g>
</g>
<g>
</g>
<g>
</g>
<g>
</g>
<g>
</g>
</svg>
