<?xml version="1.0" encoding="iso-8859-1"?>
<!-- Generator: Adobe Illustrator 19.0.0, SVG Export Plug-In . SVG Version: 6.00 Build 0)  -->
<svg version="1.1" id="Capa_1" xmlns="http://www.w3.org/2000/svg" xmlns:xlink="http://www.w3.org/1999/xlink" x="0px" y="0px"
	 viewBox="0 0 512 512" style="enable-background:new 0 0 512 512;" xml:space="preserve">
<g>
	<g>
		<path d="M110.933,162.133H8.533c-4.71,0-8.533,3.814-8.533,8.533v273.067c0,4.719,3.823,8.533,8.533,8.533h102.4
			c4.71,0,8.533-3.814,8.533-8.533V170.667C119.467,165.948,115.644,162.133,110.933,162.133z M102.4,435.2H17.067v-256H102.4V435.2
			z"/>
	</g>
</g>
<g>
	<g>
		<path d="M76.8,281.6H42.667c-4.71,0-8.533,3.814-8.533,8.533v34.133c0,4.719,3.823,8.533,8.533,8.533H76.8
			c4.71,0,8.533-3.814,8.533-8.533v-34.133C85.333,285.414,81.51,281.6,76.8,281.6z M68.267,315.733H51.2v-17.067h17.067V315.733z"
			/>
	</g>
</g>
<g>
	<g>
		<path d="M76.8,238.933H42.667c-4.71,0-8.533,3.814-8.533,8.533S37.956,256,42.667,256H76.8c4.71,0,8.533-3.814,8.533-8.533
			S81.51,238.933,76.8,238.933z"/>
	</g>
</g>
<g>
	<g>
		<path d="M76.8,204.8H42.667c-4.71,0-8.533,3.814-8.533,8.533c0,4.719,3.823,8.533,8.533,8.533H76.8
			c4.71,0,8.533-3.814,8.533-8.533C85.333,208.614,81.51,204.8,76.8,204.8z"/>
	</g>
</g>
<g>
	<g>
		<path d="M76.8,392.533H42.667c-4.71,0-8.533,3.814-8.533,8.533c0,4.719,3.823,8.533,8.533,8.533H76.8
			c4.71,0,8.533-3.814,8.533-8.533C85.333,396.348,81.51,392.533,76.8,392.533z"/>
	</g>
</g>
<g>
	<g>
		<path d="M76.8,358.4H42.667c-4.71,0-8.533,3.814-8.533,8.533s3.823,8.533,8.533,8.533H76.8c4.71,0,8.533-3.814,8.533-8.533
			S81.51,358.4,76.8,358.4z"/>
	</g>
</g>
<g>
	<g>
		<path d="M298.667,42.667h-51.2c-4.71,0-8.533,3.814-8.533,8.533v273.067c0,4.719,3.823,8.533,8.533,8.533h51.2
			c4.71,0,8.533-3.814,8.533-8.533V51.2C307.2,46.481,303.377,42.667,298.667,42.667z M290.133,315.733H256v-256h34.133V315.733z"/>
	</g>
</g>
<g>
	<g>
		<path d="M273.067,0c-14.114,0-25.6,11.486-25.6,25.6v25.6c0,4.719,3.823,8.533,8.533,8.533h34.133c4.71,0,8.533-3.814,8.533-8.533
			V25.6C298.667,11.486,287.181,0,273.067,0z M281.6,42.667h-17.067V25.6c0-4.71,3.823-8.533,8.533-8.533
			c4.71,0,8.533,3.823,8.533,8.533V42.667z"/>
	</g>
</g>
<g>
	<g>
		<path d="M290.133,315.733H256c-4.71,0-8.533,3.814-8.533,8.533V358.4c0,4.719,3.823,8.533,8.533,8.533h34.133
			c4.71,0,8.533-3.814,8.533-8.533v-34.133C298.667,319.548,294.844,315.733,290.133,315.733z M281.6,349.867h-17.067V332.8H281.6
			V349.867z"/>
	</g>
</g>
<g>
	<g>
		<path d="M273.067,349.867c-4.71,0-8.533,3.814-8.533,8.533v34.133c0,4.719,3.823,8.533,8.533,8.533
			c4.71,0,8.533-3.814,8.533-8.533V358.4C281.6,353.681,277.777,349.867,273.067,349.867z"/>
	</g>
</g>
<g>
	<g>
		<path d="M477.858,102.4H298.667c-4.71,0-8.533,3.814-8.533,8.533v204.8H256v-204.8c0-4.719-3.823-8.533-8.533-8.533H34.142
			C15.317,102.4,0,117.717,0,136.55V477.85C0,496.683,15.317,512,34.142,512h443.716C496.683,512,512,496.683,512,477.85V136.55
			C512,117.717,496.683,102.4,477.858,102.4z M494.933,477.85c0,9.421-7.663,17.084-17.084,17.084H34.142
			c-9.412,0-17.075-7.663-17.075-17.084V136.55c0-9.421,7.663-17.084,17.075-17.084h204.792v204.8c0,4.719,3.823,8.533,8.533,8.533
			h51.2c4.71,0,8.533-3.814,8.533-8.533v-204.8h170.658c9.412,0,17.075,7.663,17.075,17.084V477.85z"/>
	</g>
</g>
<g>
	<g>
		<path d="M443.733,162.133H298.667c-4.71,0-8.533,3.814-8.533,8.533v145.067H256V170.667c0-4.719-3.823-8.533-8.533-8.533H110.933
			c-4.71,0-8.533,3.814-8.533,8.533v273.067c0,4.719,3.823,8.533,8.533,8.533h332.8c4.71,0,8.533-3.814,8.533-8.533V170.667
			C452.267,165.948,448.444,162.133,443.733,162.133z M435.2,435.2H119.467v-256h119.467v145.067c0,4.719,3.823,8.533,8.533,8.533
			h51.2c4.71,0,8.533-3.814,8.533-8.533V179.2h128V435.2z"/>
	</g>
</g>
<g>
</g>
<g>
</g>
<g>
</g>
<g>
</g>
<g>
</g>
<g>
</g>
<g>
</g>
<g>
</g>
<g>
</g>
<g>
</g>
<g>
</g>
<g>
</g>
<g>
</g>
<g>
</g>
<g>
</g>
</svg>
