<?xml version="1.0" encoding="iso-8859-1"?>
<!-- Generator: Adobe Illustrator 19.0.0, SVG Export Plug-In . SVG Version: 6.00 Build 0)  -->
<svg version="1.1" id="Capa_1" xmlns="http://www.w3.org/2000/svg" xmlns:xlink="http://www.w3.org/1999/xlink" x="0px" y="0px"
	 viewBox="0 0 512 512" style="enable-background:new 0 0 512 512;" xml:space="preserve">
<g>
	<g>
		<path d="M264.533,34.133h-17.067c-4.71,0-8.533,3.814-8.533,8.533s3.823,8.533,8.533,8.533h17.067c4.71,0,8.533-3.814,8.533-8.533
			S269.244,34.133,264.533,34.133z"/>
	</g>
</g>
<g>
	<g>
		<path d="M298.667,59.733H281.6c-4.71,0-8.533,3.814-8.533,8.533S276.89,76.8,281.6,76.8h17.067c4.71,0,8.533-3.814,8.533-8.533
			S303.377,59.733,298.667,59.733z"/>
	</g>
</g>
<g>
	<g>
		<path d="M230.4,59.733h-17.067c-4.71,0-8.533,3.814-8.533,8.533s3.823,8.533,8.533,8.533H230.4c4.71,0,8.533-3.814,8.533-8.533
			S235.11,59.733,230.4,59.733z"/>
	</g>
</g>
<g>
	<g>
		<path d="M264.533,85.333h-17.067c-4.71,0-8.533,3.814-8.533,8.533c0,4.719,3.823,8.533,8.533,8.533h17.067
			c4.71,0,8.533-3.814,8.533-8.533C273.067,89.148,269.244,85.333,264.533,85.333z"/>
	</g>
</g>
<g>
	<g>
		<path d="M324.267,85.333H307.2c-4.71,0-8.533,3.814-8.533,8.533c0,4.719,3.823,8.533,8.533,8.533h17.067
			c4.71,0,8.533-3.814,8.533-8.533C332.8,89.148,328.977,85.333,324.267,85.333z"/>
	</g>
</g>
<g>
	<g>
		<path d="M204.8,85.333h-17.067c-4.71,0-8.533,3.814-8.533,8.533c0,4.719,3.823,8.533,8.533,8.533H204.8
			c4.71,0,8.533-3.814,8.533-8.533C213.333,89.148,209.51,85.333,204.8,85.333z"/>
	</g>
</g>
<g>
	<g>
		<path d="M298.667,110.933H281.6c-4.71,0-8.533,3.814-8.533,8.533S276.89,128,281.6,128h17.067c4.71,0,8.533-3.814,8.533-8.533
			S303.377,110.933,298.667,110.933z"/>
	</g>
</g>
<g>
	<g>
		<path d="M230.4,110.933h-17.067c-4.71,0-8.533,3.814-8.533,8.533s3.823,8.533,8.533,8.533H230.4c4.71,0,8.533-3.814,8.533-8.533
			S235.11,110.933,230.4,110.933z"/>
	</g>
</g>
<g>
	<g>
		<path d="M264.533,136.533h-17.067c-4.71,0-8.533,3.814-8.533,8.533s3.823,8.533,8.533,8.533h17.067
			c4.71,0,8.533-3.814,8.533-8.533S269.244,136.533,264.533,136.533z"/>
	</g>
</g>
<g>
	<g>
		<path d="M324.267,136.533H307.2c-4.71,0-8.533,3.814-8.533,8.533s3.823,8.533,8.533,8.533h17.067c4.71,0,8.533-3.814,8.533-8.533
			S328.977,136.533,324.267,136.533z"/>
	</g>
</g>
<g>
	<g>
		<path d="M204.8,136.533h-17.067c-4.71,0-8.533,3.814-8.533,8.533s3.823,8.533,8.533,8.533H204.8c4.71,0,8.533-3.814,8.533-8.533
			S209.51,136.533,204.8,136.533z"/>
	</g>
</g>
<g>
	<g>
		<path d="M264.533,307.2h-17.067c-4.71,0-8.533,3.814-8.533,8.533s3.823,8.533,8.533,8.533h17.067c4.71,0,8.533-3.814,8.533-8.533
			S269.244,307.2,264.533,307.2z"/>
	</g>
</g>
<g>
	<g>
		<path d="M298.667,332.8H281.6c-4.71,0-8.533,3.814-8.533,8.533c0,4.719,3.823,8.533,8.533,8.533h17.067
			c4.71,0,8.533-3.814,8.533-8.533C307.2,336.614,303.377,332.8,298.667,332.8z"/>
	</g>
</g>
<g>
	<g>
		<path d="M230.4,332.8h-17.067c-4.71,0-8.533,3.814-8.533,8.533c0,4.719,3.823,8.533,8.533,8.533H230.4
			c4.71,0,8.533-3.814,8.533-8.533C238.933,336.614,235.11,332.8,230.4,332.8z"/>
	</g>
</g>
<g>
	<g>
		<path d="M256,0c-61.167,0-110.933,49.766-110.933,110.933V179.2c0,4.719,3.823,8.533,8.533,8.533h204.8
			c4.71,0,8.533-3.814,8.533-8.533v-68.267C366.933,49.766,317.167,0,256,0z M349.867,170.667H162.133v-59.733
			c0-51.755,42.112-93.867,93.867-93.867s93.867,42.112,93.867,93.867V170.667z"/>
	</g>
</g>
<g>
	<g>
		<path d="M392.533,273.067c-4.71,0-8.533,3.814-8.533,8.533v19.627c0,66.645-55.031,116.907-128,116.907s-128-50.261-128-116.907
			V281.6c0-4.719-3.823-8.533-8.533-8.533c-4.71,0-8.533,3.814-8.533,8.533v19.627C110.933,377.6,173.303,435.2,256,435.2
			s145.067-57.6,145.067-133.973V281.6C401.067,276.881,397.244,273.067,392.533,273.067z"/>
	</g>
</g>
<g>
	<g>
		<path d="M358.4,273.067H153.6c-4.71,0-8.533,3.814-8.533,8.533v8.533c0,61.167,49.766,110.933,110.933,110.933
			S366.933,351.3,366.933,290.133V281.6C366.933,276.881,363.11,273.067,358.4,273.067z M256,384
			c-51.755,0-93.867-42.112-93.867-93.867h187.733C349.867,341.888,307.755,384,256,384z"/>
	</g>
</g>
<g>
	<g>
		<path d="M332.8,494.933H179.2c-4.71,0-8.533,3.814-8.533,8.533c0,4.719,3.823,8.533,8.533,8.533h153.6
			c4.71,0,8.533-3.814,8.533-8.533C341.333,498.748,337.51,494.933,332.8,494.933z"/>
	</g>
</g>
<g>
	<g>
		<path d="M256,460.8c-23.526,0-42.667,19.14-42.667,42.667c0,4.719,3.823,8.533,8.533,8.533h68.267c4.71,0,8.533-3.814,8.533-8.533
			C298.667,479.94,279.526,460.8,256,460.8z M231.859,494.933c3.524-9.933,13.005-17.067,24.132-17.067
			c11.127,0,20.617,7.134,24.141,17.067H231.859z"/>
	</g>
</g>
<g>
	<g>
		<path d="M256,418.133c-4.71,0-8.533,3.814-8.533,8.533v42.667c0,4.719,3.823,8.533,8.533,8.533c4.71,0,8.533-3.814,8.533-8.533
			v-42.667C264.533,421.948,260.71,418.133,256,418.133z"/>
	</g>
</g>
<g>
	<g>
		<path d="M341.333,204.8H170.667c-4.71,0-8.533,3.814-8.533,8.533v34.133c0,4.719,3.823,8.533,8.533,8.533h170.667
			c4.71,0,8.533-3.814,8.533-8.533v-34.133C349.867,208.614,346.044,204.8,341.333,204.8z M332.8,238.933H179.2v-17.067h153.6
			V238.933z"/>
	</g>
</g>
<g>
	<g>
		<path d="M392.533,221.867c4.71,0,8.533-3.814,8.533-8.533V179.2c0-4.719-3.823-8.533-8.533-8.533H119.467
			c-4.71,0-8.533,3.814-8.533,8.533v34.133c0,4.719,3.823,8.533,8.533,8.533H128v17.067h-8.533c-4.71,0-8.533,3.814-8.533,8.533
			V281.6c0,4.719,3.823,8.533,8.533,8.533h273.067c4.71,0,8.533-3.814,8.533-8.533v-34.133c0-4.719-3.823-8.533-8.533-8.533H384
			v-17.067H392.533z M375.467,256H384v17.067H128V256h8.533c4.71,0,8.533-3.814,8.533-8.533v-34.133
			c0-4.719-3.823-8.533-8.533-8.533H128v-17.067h256V204.8h-8.533c-4.71,0-8.533,3.814-8.533,8.533v34.133
			C366.933,252.186,370.756,256,375.467,256z"/>
	</g>
</g>
<g>
	<g>
		<path d="M136.533,204.8H102.4c-4.71,0-8.533,3.814-8.533,8.533v34.133c0,4.719,3.823,8.533,8.533,8.533h34.133
			c4.71,0,8.533-3.814,8.533-8.533v-34.133C145.067,208.614,141.244,204.8,136.533,204.8z M128,238.933h-17.067v-17.067H128V238.933
			z"/>
	</g>
</g>
<g>
	<g>
		<path d="M409.6,204.8h-34.133c-4.71,0-8.533,3.814-8.533,8.533v34.133c0,4.719,3.823,8.533,8.533,8.533H409.6
			c4.71,0,8.533-3.814,8.533-8.533v-34.133C418.133,208.614,414.31,204.8,409.6,204.8z M401.067,238.933H384v-17.067h17.067V238.933
			z"/>
	</g>
</g>
<g>
</g>
<g>
</g>
<g>
</g>
<g>
</g>
<g>
</g>
<g>
</g>
<g>
</g>
<g>
</g>
<g>
</g>
<g>
</g>
<g>
</g>
<g>
</g>
<g>
</g>
<g>
</g>
<g>
</g>
</svg>
