<?xml version="1.0" encoding="iso-8859-1"?>
<!-- Generator: Adobe Illustrator 19.0.0, SVG Export Plug-In . SVG Version: 6.00 Build 0)  -->
<svg version="1.1" id="Capa_1" xmlns="http://www.w3.org/2000/svg" xmlns:xlink="http://www.w3.org/1999/xlink" x="0px" y="0px"
	 viewBox="0 0 512 512" style="enable-background:new 0 0 512 512;" xml:space="preserve">
<g>
	<g>
		<path d="M372.966,497.434L338.833,463.3c-1.596-1.604-3.772-2.5-6.033-2.5H179.2c-2.261,0-4.437,0.896-6.033,2.5l-34.133,34.133
			c-2.44,2.441-3.174,6.11-1.852,9.301c1.323,3.192,4.437,5.265,7.885,5.265h221.867c3.447,0,6.562-2.074,7.885-5.265
			C376.141,503.543,375.407,499.874,372.966,497.434z M165.666,494.933l17.067-17.067h146.534l17.067,17.067H165.666z"/>
	</g>
</g>
<g>
	<g>
		<path d="M256,426.667c-23.526,0-42.667,19.14-42.667,42.667c0,4.719,3.823,8.533,8.533,8.533h68.267
			c4.71,0,8.533-3.814,8.533-8.533C298.667,445.807,279.526,426.667,256,426.667z M231.859,460.8
			c3.524-9.933,13.005-17.067,24.132-17.067c11.127,0,20.617,7.134,24.141,17.067H231.859z"/>
	</g>
</g>
<g>
	<g>
		<path d="M273.067,384h-34.133c-4.71,0-8.533,3.814-8.533,8.533v47.403c0,3.055,1.63,5.871,4.284,7.398s5.905,1.519,8.55-0.026
			c8.141-4.753,17.399-4.753,25.54,0c1.323,0.777,2.807,1.161,4.292,1.161c1.468,0,2.935-0.375,4.258-1.135
			c2.645-1.527,4.275-4.343,4.275-7.398v-47.403C281.6,387.814,277.777,384,273.067,384z M264.533,427.554
			c-2.799-0.589-5.649-0.887-8.533-0.887s-5.734,0.299-8.533,0.887v-26.487h17.067V427.554z"/>
	</g>
</g>
<g>
	<g>
		<path d="M392.533,494.933H119.467c-4.71,0-8.533,3.814-8.533,8.533c0,4.719,3.823,8.533,8.533,8.533h273.067
			c4.71,0,8.533-3.814,8.533-8.533C401.067,498.748,397.244,494.933,392.533,494.933z"/>
	</g>
</g>
<g>
	<g>
		<path d="M213.333,230.4h-93.867c-4.71,0-8.533,3.814-8.533,8.533s3.823,8.533,8.533,8.533h93.867c4.71,0,8.533-3.814,8.533-8.533
			S218.044,230.4,213.333,230.4z"/>
	</g>
</g>
<g>
	<g>
		<path d="M392.533,230.4h-93.867c-4.71,0-8.533,3.814-8.533,8.533s3.823,8.533,8.533,8.533h93.867c4.71,0,8.533-3.814,8.533-8.533
			S397.244,230.4,392.533,230.4z"/>
	</g>
</g>
<g>
	<g>
		<path d="M286.362,204.8h-60.723c-11.494,0-20.838,9.353-20.838,20.847v26.581c0,11.486,9.344,20.838,20.838,20.838h60.723
			c11.494,0,20.838-9.353,20.838-20.847v-26.581C307.2,214.153,297.856,204.8,286.362,204.8z M290.133,252.228
			c0,2.082-1.69,3.772-3.772,3.772h-60.723c-2.082,0-3.772-1.69-3.772-3.78v-26.581c0-2.082,1.69-3.772,3.772-3.772h60.723
			c2.082,0,3.772,1.69,3.772,3.78V252.228z"/>
	</g>
</g>
<g>
	<g>
		<path d="M372.087,323.891c-4.07-5.18-10.146-8.158-16.691-8.158H156.612c-6.545,0-12.629,2.978-16.7,8.158
			c-4.122,5.257-5.572,12.015-3.968,18.526c0.009,0.017,0.009,0.034,0.017,0.051l9.856,38.963
			c2.85,11.563,13.065,19.635,24.849,19.635h170.667c11.785,0,21.999-8.064,24.832-19.576l9.89-39.074
			C377.66,335.906,376.209,329.148,372.087,323.891z M359.492,338.287l-9.89,39.074c-0.964,3.908-4.361,6.639-8.269,6.639H170.667
			c-3.908,0-7.305-2.731-8.286-6.707l-9.865-38.98c-0.333-1.374-0.026-2.799,0.845-3.9c0.469-0.606,1.519-1.613,3.251-1.613h198.776
			c1.732,0,2.79,1.007,3.26,1.621C359.509,335.531,359.817,336.956,359.492,338.287z"/>
	</g>
</g>
<g>
	<g>
		<path d="M341.333,136.533H170.667c-4.71,0-8.533,3.814-8.533,8.533s3.823,8.533,8.533,8.533h170.667
			c4.71,0,8.533-3.814,8.533-8.533S346.044,136.533,341.333,136.533z"/>
	</g>
</g>
<g>
	<g>
		<path d="M349.867,170.667H162.133c-4.71,0-8.533,3.814-8.533,8.533s3.823,8.533,8.533,8.533h187.733
			c4.71,0,8.533-3.814,8.533-8.533S354.577,170.667,349.867,170.667z"/>
	</g>
</g>
<g>
	<g>
		<path d="M332.8,102.4H179.2c-4.71,0-8.533,3.814-8.533,8.533s3.823,8.533,8.533,8.533h153.6c4.71,0,8.533-3.814,8.533-8.533
			S337.51,102.4,332.8,102.4z"/>
	</g>
</g>
<g>
	<g>
		<path d="M324.267,68.267H187.733c-4.71,0-8.533,3.814-8.533,8.533s3.823,8.533,8.533,8.533h136.533
			c4.71,0,8.533-3.814,8.533-8.533S328.977,68.267,324.267,68.267z"/>
	</g>
</g>
<g>
	<g>
		<path d="M315.733,34.133H204.8c-4.71,0-8.533,3.814-8.533,8.533S200.09,51.2,204.8,51.2h110.933c4.71,0,8.533-3.814,8.533-8.533
			S320.444,34.133,315.733,34.133z"/>
	</g>
</g>
<g>
	<g>
		<g>
			<path d="M400.717,236.288L351.949,14.199C349.397,5.709,341.726,0,332.851,0H179.157c-8.883,0-16.555,5.717-19.26,14.839
				l-48.469,221.184c-0.521,1.775-0.563,3.661-0.128,5.461c0.111,0.444,0.265,0.888,0.444,1.323l36.216,84.924
				c1.34,3.157,4.446,5.18,7.842,5.18c0.358,0,0.785-0.026,1.382-0.111h197.615c0.299,0.043,0.648,0.077,0.845,0.094
				c0.188,0.008,0.367,0.017,0.546,0.017c3.405,0,6.502-2.039,7.851-5.205l36.224-85.24c0.179-0.418,0.324-0.853,0.435-1.306
				C401.135,239.36,401.084,237.483,400.717,236.288z M350.583,315.733H161.408l-33.024-77.431L176.41,19.106
				c0.367-1.212,1.468-2.039,2.748-2.039h153.694c1.28,0,2.381,0.828,2.594,1.425l48.188,219.477L350.583,315.733z"/>
			<path d="M286.362,204.8h-60.723c-11.494,0-20.838,9.353-20.838,20.847v26.581c0,11.486,9.344,20.838,20.838,20.838h60.723
				c11.494,0,20.838-9.353,20.838-20.847v-26.581C307.2,214.153,297.856,204.8,286.362,204.8z M290.133,252.228
				c0,2.082-1.69,3.772-3.772,3.772h-60.723c-2.082,0-3.772-1.69-3.772-3.78v-26.581c0-2.082,1.69-3.772,3.772-3.772h60.723
				c2.082,0,3.772,1.69,3.772,3.78V252.228z"/>
		</g>
	</g>
</g>
<g>
	<g>
		<path d="M324.267,349.867H187.733c-4.71,0-8.533,3.814-8.533,8.533s3.823,8.533,8.533,8.533h136.533
			c4.71,0,8.533-3.814,8.533-8.533S328.977,349.867,324.267,349.867z"/>
	</g>
</g>
<g>
</g>
<g>
</g>
<g>
</g>
<g>
</g>
<g>
</g>
<g>
</g>
<g>
</g>
<g>
</g>
<g>
</g>
<g>
</g>
<g>
</g>
<g>
</g>
<g>
</g>
<g>
</g>
<g>
</g>
</svg>
