<?xml version="1.0" encoding="iso-8859-1"?>
<!-- Generator: Adobe Illustrator 19.0.0, SVG Export Plug-In . SVG Version: 6.00 Build 0)  -->
<svg version="1.1" id="Capa_1" xmlns="http://www.w3.org/2000/svg" xmlns:xlink="http://www.w3.org/1999/xlink" x="0px" y="0px"
	 viewBox="0 0 512 512" style="enable-background:new 0 0 512 512;" xml:space="preserve">
<g>
	<g>
		<path d="M409.6,0H102.4C88.286,0,76.8,11.486,76.8,25.6v460.8c0,14.114,11.486,25.6,25.6,25.6h307.2
			c14.114,0,25.6-11.486,25.6-25.6V25.6C435.2,11.486,423.714,0,409.6,0z M418.133,486.4c0,4.71-3.831,8.533-8.533,8.533H102.4
			c-4.71,0-8.533-3.823-8.533-8.533V25.6c0-4.71,3.823-8.533,8.533-8.533h307.2c4.71,0,8.533,3.823,8.533,8.533V486.4z"/>
	</g>
</g>
<g>
	<g>
		<path d="M392.533,34.133H119.467c-4.71,0-8.533,3.814-8.533,8.533v68.267c0,4.719,3.823,8.533,8.533,8.533h273.067
			c4.71,0,8.533-3.814,8.533-8.533V42.667C401.067,37.948,397.244,34.133,392.533,34.133z M384,102.4H128V51.2h256V102.4z"/>
	</g>
</g>
<g>
	<g>
		<path d="M256,409.6c-18.825,0-34.133,15.309-34.133,34.133c0,18.825,15.309,34.133,34.133,34.133s34.133-15.309,34.133-34.133
			C290.133,424.909,274.825,409.6,256,409.6z M256,460.8c-9.412,0-17.067-7.654-17.067-17.067c0-9.412,7.654-17.067,17.067-17.067
			s17.067,7.654,17.067,17.067C273.067,453.146,265.412,460.8,256,460.8z"/>
	</g>
</g>
<g>
	<g>
		<path d="M289.024,274.492c-3.917-2.628-9.216-1.545-11.827,2.381c-2.603,3.925-1.536,9.225,2.389,11.836
			c11.947,7.945,19.081,21.231,19.081,35.558c0,23.526-19.14,42.667-42.667,42.667s-42.667-19.14-42.667-42.667
			c0-14.327,7.134-27.622,19.072-35.558c3.925-2.611,5.001-7.91,2.389-11.836c-2.603-3.917-7.893-5.001-11.827-2.381
			c-16.717,11.11-26.701,29.713-26.701,49.775c0,32.93,26.795,59.733,59.733,59.733s59.733-26.803,59.733-59.733
			C315.733,304.205,305.749,285.602,289.024,274.492z"/>
	</g>
</g>
<g>
	<g>
		<path d="M324.267,68.267h-204.8c-4.71,0-8.533,3.814-8.533,8.533s3.823,8.533,8.533,8.533h204.8c4.71,0,8.533-3.814,8.533-8.533
			S328.977,68.267,324.267,68.267z"/>
	</g>
</g>
<g>
	<g>
		<path d="M392.533,68.267H358.4c-4.71,0-8.533,3.814-8.533,8.533s3.823,8.533,8.533,8.533h34.133c4.71,0,8.533-3.814,8.533-8.533
			S397.244,68.267,392.533,68.267z"/>
	</g>
</g>
<g>
	<g>
		<path d="M392.533,145.067H119.467c-4.71,0-8.533,3.814-8.533,8.533v68.267c0,4.719,3.823,8.533,8.533,8.533h273.067
			c4.71,0,8.533-3.814,8.533-8.533V153.6C401.067,148.881,397.244,145.067,392.533,145.067z M384,213.333H128v-51.2h256V213.333z"/>
	</g>
</g>
<g>
	<g>
		<path d="M324.267,179.2h-204.8c-4.71,0-8.533,3.814-8.533,8.533s3.823,8.533,8.533,8.533h204.8c4.71,0,8.533-3.814,8.533-8.533
			S328.977,179.2,324.267,179.2z"/>
	</g>
</g>
<g>
	<g>
		<path d="M392.533,179.2H358.4c-4.71,0-8.533,3.814-8.533,8.533s3.823,8.533,8.533,8.533h34.133c4.71,0,8.533-3.814,8.533-8.533
			S397.244,179.2,392.533,179.2z"/>
	</g>
</g>
<g>
	<g>
		<path d="M256,256c-4.71,0-8.533,3.814-8.533,8.533v59.733c0,4.719,3.823,8.533,8.533,8.533s8.533-3.814,8.533-8.533v-59.733
			C264.533,259.814,260.71,256,256,256z"/>
	</g>
</g>
<g>
</g>
<g>
</g>
<g>
</g>
<g>
</g>
<g>
</g>
<g>
</g>
<g>
</g>
<g>
</g>
<g>
</g>
<g>
</g>
<g>
</g>
<g>
</g>
<g>
</g>
<g>
</g>
<g>
</g>
</svg>
