<?xml version="1.0" encoding="iso-8859-1"?>
<!-- Generator: Adobe Illustrator 19.0.0, SVG Export Plug-In . SVG Version: 6.00 Build 0)  -->
<svg version="1.1" id="Capa_1" xmlns="http://www.w3.org/2000/svg" xmlns:xlink="http://www.w3.org/1999/xlink" x="0px" y="0px"
	 viewBox="0 0 512 512" style="enable-background:new 0 0 512 512;" xml:space="preserve">
<g>
	<g>
		<path d="M486.4,187.733H25.6c-14.114,0-25.6,11.486-25.6,25.6V486.4C0,500.514,11.486,512,25.6,512h460.8
			c14.114,0,25.6-11.486,25.6-25.6V213.333C512,199.219,500.514,187.733,486.4,187.733z M494.933,486.4
			c0,4.71-3.823,8.533-8.533,8.533H25.6c-4.71,0-8.533-3.823-8.533-8.533V213.333c0-4.71,3.823-8.533,8.533-8.533h460.8
			c4.71,0,8.533,3.823,8.533,8.533V486.4z"/>
	</g>
</g>
<g>
	<g>
		<path d="M273.067,153.6h-34.133c-4.71,0-8.533,3.814-8.533,8.533v34.133c0,4.719,3.823,8.533,8.533,8.533h34.133
			c4.71,0,8.533-3.814,8.533-8.533v-34.133C281.6,157.414,277.777,153.6,273.067,153.6z M264.533,187.733h-17.067v-17.067h17.067
			V187.733z"/>
	</g>
</g>
<g>
	<g>
		<path d="M443.733,59.733h-384c-4.71,0-8.533-3.823-8.533-8.533s3.823-8.533,8.533-8.533h162.133
			C240.691,42.667,256,27.358,256,8.533C256,3.814,252.177,0,247.467,0s-8.533,3.814-8.533,8.533
			c0,9.412-7.654,17.067-17.067,17.067H59.733c-14.114,0-25.6,11.486-25.6,25.6s11.486,25.6,25.6,25.6h384
			c4.71,0,8.533,3.823,8.533,8.533c0,4.71-3.823,8.533-8.533,8.533H281.6c-18.825,0-34.133,15.309-34.133,34.133v34.133
			c0,4.719,3.823,8.533,8.533,8.533s8.533-3.814,8.533-8.533V128c0-9.412,7.654-17.067,17.067-17.067h162.133
			c14.114,0,25.6-11.486,25.6-25.6S457.847,59.733,443.733,59.733z"/>
	</g>
</g>
<g>
	<g>
		<path d="M341.333,426.667H170.667c-4.71,0-8.533,3.814-8.533,8.533v34.133c0,4.719,3.823,8.533,8.533,8.533h170.667
			c4.71,0,8.533-3.814,8.533-8.533V435.2C349.867,430.481,346.044,426.667,341.333,426.667z M332.8,460.8H179.2v-17.067h153.6V460.8
			z"/>
	</g>
</g>
<g>
	<g>
		<path d="M136.533,426.667H102.4c-4.71,0-8.533,3.814-8.533,8.533v34.133c0,4.719,3.823,8.533,8.533,8.533h34.133
			c4.71,0,8.533-3.814,8.533-8.533V435.2C145.067,430.481,141.244,426.667,136.533,426.667z M128,460.8h-17.067v-17.067H128V460.8z"
			/>
	</g>
</g>
<g>
	<g>
		<path d="M68.267,426.667H34.133c-4.71,0-8.533,3.814-8.533,8.533v34.133c0,4.719,3.823,8.533,8.533,8.533h34.133
			c4.71,0,8.533-3.814,8.533-8.533V435.2C76.8,430.481,72.977,426.667,68.267,426.667z M59.733,460.8H42.667v-17.067h17.067V460.8z"
			/>
	</g>
</g>
<g>
	<g>
		<path d="M477.867,426.667h-34.133c-4.71,0-8.533,3.814-8.533,8.533v34.133c0,4.719,3.823,8.533,8.533,8.533h34.133
			c4.71,0,8.533-3.814,8.533-8.533V435.2C486.4,430.481,482.577,426.667,477.867,426.667z M469.333,460.8h-17.067v-17.067h17.067
			V460.8z"/>
	</g>
</g>
<g>
	<g>
		<path d="M409.6,426.667h-34.133c-4.71,0-8.533,3.814-8.533,8.533v34.133c0,4.719,3.823,8.533,8.533,8.533H409.6
			c4.71,0,8.533-3.814,8.533-8.533V435.2C418.133,430.481,414.31,426.667,409.6,426.667z M401.067,460.8H384v-17.067h17.067V460.8z"
			/>
	</g>
</g>
<g>
	<g>
		<path d="M136.533,290.133H102.4c-4.71,0-8.533,3.814-8.533,8.533V332.8c0,4.719,3.823,8.533,8.533,8.533h34.133
			c4.71,0,8.533-3.814,8.533-8.533v-34.133C145.067,293.948,141.244,290.133,136.533,290.133z M128,324.267h-17.067V307.2H128
			V324.267z"/>
	</g>
</g>
<g>
	<g>
		<path d="M68.267,290.133H34.133c-4.71,0-8.533,3.814-8.533,8.533V332.8c0,4.719,3.823,8.533,8.533,8.533h34.133
			c4.71,0,8.533-3.814,8.533-8.533v-34.133C76.8,293.948,72.977,290.133,68.267,290.133z M59.733,324.267H42.667V307.2h17.067
			V324.267z"/>
	</g>
</g>
<g>
	<g>
		<path d="M273.067,290.133h-34.133c-4.71,0-8.533,3.814-8.533,8.533V332.8c0,4.719,3.823,8.533,8.533,8.533h34.133
			c4.71,0,8.533-3.814,8.533-8.533v-34.133C281.6,293.948,277.777,290.133,273.067,290.133z M264.533,324.267h-17.067V307.2h17.067
			V324.267z"/>
	</g>
</g>
<g>
	<g>
		<path d="M341.333,290.133H307.2c-4.71,0-8.533,3.814-8.533,8.533V332.8c0,4.719,3.823,8.533,8.533,8.533h34.133
			c4.71,0,8.533-3.814,8.533-8.533v-34.133C349.867,293.948,346.044,290.133,341.333,290.133z M332.8,324.267h-17.067V307.2H332.8
			V324.267z"/>
	</g>
</g>
<g>
	<g>
		<path d="M204.8,290.133h-34.133c-4.71,0-8.533,3.814-8.533,8.533V332.8c0,4.719,3.823,8.533,8.533,8.533H204.8
			c4.71,0,8.533-3.814,8.533-8.533v-34.133C213.333,293.948,209.51,290.133,204.8,290.133z M196.267,324.267H179.2V307.2h17.067
			V324.267z"/>
	</g>
</g>
<g>
	<g>
		<path d="M477.867,290.133h-34.133c-4.71,0-8.533,3.814-8.533,8.533V332.8c0,4.719,3.823,8.533,8.533,8.533h34.133
			c4.71,0,8.533-3.814,8.533-8.533v-34.133C486.4,293.948,482.577,290.133,477.867,290.133z M469.333,324.267h-17.067V307.2h17.067
			V324.267z"/>
	</g>
</g>
<g>
	<g>
		<path d="M409.6,290.133h-34.133c-4.71,0-8.533,3.814-8.533,8.533V332.8c0,4.719,3.823,8.533,8.533,8.533H409.6
			c4.71,0,8.533-3.814,8.533-8.533v-34.133C418.133,293.948,414.31,290.133,409.6,290.133z M401.067,324.267H384V307.2h17.067
			V324.267z"/>
	</g>
</g>
<g>
	<g>
		<path d="M136.533,358.4H102.4c-4.71,0-8.533,3.814-8.533,8.533v34.133c0,4.719,3.823,8.533,8.533,8.533h34.133
			c4.71,0,8.533-3.814,8.533-8.533v-34.133C145.067,362.214,141.244,358.4,136.533,358.4z M128,392.533h-17.067v-17.067H128V392.533
			z"/>
	</g>
</g>
<g>
	<g>
		<path d="M68.267,358.4H34.133c-4.71,0-8.533,3.814-8.533,8.533v34.133c0,4.719,3.823,8.533,8.533,8.533h34.133
			c4.71,0,8.533-3.814,8.533-8.533v-34.133C76.8,362.214,72.977,358.4,68.267,358.4z M59.733,392.533H42.667v-17.067h17.067V392.533
			z"/>
	</g>
</g>
<g>
	<g>
		<path d="M273.067,358.4h-34.133c-4.71,0-8.533,3.814-8.533,8.533v34.133c0,4.719,3.823,8.533,8.533,8.533h34.133
			c4.71,0,8.533-3.814,8.533-8.533v-34.133C281.6,362.214,277.777,358.4,273.067,358.4z M264.533,392.533h-17.067v-17.067h17.067
			V392.533z"/>
	</g>
</g>
<g>
	<g>
		<path d="M341.333,358.4H307.2c-4.71,0-8.533,3.814-8.533,8.533v34.133c0,4.719,3.823,8.533,8.533,8.533h34.133
			c4.71,0,8.533-3.814,8.533-8.533v-34.133C349.867,362.214,346.044,358.4,341.333,358.4z M332.8,392.533h-17.067v-17.067H332.8
			V392.533z"/>
	</g>
</g>
<g>
	<g>
		<path d="M204.8,358.4h-34.133c-4.71,0-8.533,3.814-8.533,8.533v34.133c0,4.719,3.823,8.533,8.533,8.533H204.8
			c4.71,0,8.533-3.814,8.533-8.533v-34.133C213.333,362.214,209.51,358.4,204.8,358.4z M196.267,392.533H179.2v-17.067h17.067
			V392.533z"/>
	</g>
</g>
<g>
	<g>
		<path d="M477.867,358.4h-34.133c-4.71,0-8.533,3.814-8.533,8.533v34.133c0,4.719,3.823,8.533,8.533,8.533h34.133
			c4.71,0,8.533-3.814,8.533-8.533v-34.133C486.4,362.214,482.577,358.4,477.867,358.4z M469.333,392.533h-17.067v-17.067h17.067
			V392.533z"/>
	</g>
</g>
<g>
	<g>
		<path d="M409.6,358.4h-34.133c-4.71,0-8.533,3.814-8.533,8.533v34.133c0,4.719,3.823,8.533,8.533,8.533H409.6
			c4.71,0,8.533-3.814,8.533-8.533v-34.133C418.133,362.214,414.31,358.4,409.6,358.4z M401.067,392.533H384v-17.067h17.067V392.533
			z"/>
	</g>
</g>
<g>
	<g>
		<path d="M136.533,221.867h-102.4c-4.71,0-8.533,3.814-8.533,8.533v34.133c0,4.719,3.823,8.533,8.533,8.533h102.4
			c4.71,0,8.533-3.814,8.533-8.533V230.4C145.067,225.681,141.244,221.867,136.533,221.867z M128,256H42.667v-17.067H128V256z"/>
	</g>
</g>
<g>
	<g>
		<path d="M273.067,221.867h-34.133c-4.71,0-8.533,3.814-8.533,8.533v34.133c0,4.719,3.823,8.533,8.533,8.533h34.133
			c4.71,0,8.533-3.814,8.533-8.533V230.4C281.6,225.681,277.777,221.867,273.067,221.867z M264.533,256h-17.067v-17.067h17.067V256z
			"/>
	</g>
</g>
<g>
	<g>
		<path d="M341.333,221.867H307.2c-4.71,0-8.533,3.814-8.533,8.533v34.133c0,4.719,3.823,8.533,8.533,8.533h34.133
			c4.71,0,8.533-3.814,8.533-8.533V230.4C349.867,225.681,346.044,221.867,341.333,221.867z M332.8,256h-17.067v-17.067H332.8V256z"
			/>
	</g>
</g>
<g>
	<g>
		<path d="M204.8,221.867h-34.133c-4.71,0-8.533,3.814-8.533,8.533v34.133c0,4.719,3.823,8.533,8.533,8.533H204.8
			c4.71,0,8.533-3.814,8.533-8.533V230.4C213.333,225.681,209.51,221.867,204.8,221.867z M196.267,256H179.2v-17.067h17.067V256z"/>
	</g>
</g>
<g>
	<g>
		<path d="M477.867,221.867h-34.133c-4.71,0-8.533,3.814-8.533,8.533v34.133c0,4.719,3.823,8.533,8.533,8.533h34.133
			c4.71,0,8.533-3.814,8.533-8.533V230.4C486.4,225.681,482.577,221.867,477.867,221.867z M469.333,256h-17.067v-17.067h17.067V256z
			"/>
	</g>
</g>
<g>
	<g>
		<path d="M409.6,221.867h-34.133c-4.71,0-8.533,3.814-8.533,8.533v34.133c0,4.719,3.823,8.533,8.533,8.533H409.6
			c4.71,0,8.533-3.814,8.533-8.533V230.4C418.133,225.681,414.31,221.867,409.6,221.867z M401.067,256H384v-17.067h17.067V256z"/>
	</g>
</g>
<g>
</g>
<g>
</g>
<g>
</g>
<g>
</g>
<g>
</g>
<g>
</g>
<g>
</g>
<g>
</g>
<g>
</g>
<g>
</g>
<g>
</g>
<g>
</g>
<g>
</g>
<g>
</g>
<g>
</g>
</svg>
