<?xml version="1.0" encoding="iso-8859-1"?>
<!-- Generator: Adobe Illustrator 19.0.0, SVG Export Plug-In . SVG Version: 6.00 Build 0)  -->
<svg version="1.1" id="Capa_1" xmlns="http://www.w3.org/2000/svg" xmlns:xlink="http://www.w3.org/1999/xlink" x="0px" y="0px"
	 viewBox="0 0 512 512" style="enable-background:new 0 0 512 512;" xml:space="preserve">
<g>
	<g>
		<path d="M481.297,349.867H30.703C13.773,349.867,0,363.639,0,380.57v80.23c0,4.719,3.823,8.533,8.533,8.533h494.933
			c4.71,0,8.533-3.814,8.533-8.533v-80.23C512,363.639,498.227,349.867,481.297,349.867z M494.933,452.267H17.067V380.57
			c0-7.518,6.118-13.636,13.636-13.636h450.594c7.518,0,13.636,6.118,13.636,13.636V452.267z"/>
	</g>
</g>
<g>
	<g>
		<path d="M418.133,418.133H8.533c-4.71,0-8.533,3.814-8.533,8.533s3.823,8.533,8.533,8.533h409.6c4.71,0,8.533-3.814,8.533-8.533
			S422.844,418.133,418.133,418.133z"/>
	</g>
</g>
<g>
	<g>
		<path d="M503.467,418.133h-51.2c-4.71,0-8.533,3.814-8.533,8.533s3.823,8.533,8.533,8.533h51.2c4.71,0,8.533-3.814,8.533-8.533
			S508.177,418.133,503.467,418.133z"/>
	</g>
</g>
<g>
	<g>
		<path d="M180.881,315.733H75.127c-13.193,0-23.927,10.735-23.927,23.927V358.4c0,4.719,3.823,8.533,8.533,8.533h136.533
			c4.71,0,8.533-3.814,8.533-8.533v-18.739C204.8,326.468,194.065,315.733,180.881,315.733z M187.733,349.867H68.267v-10.206
			c0-3.789,3.081-6.861,6.861-6.861h105.745c3.78,0,6.861,3.072,6.861,6.861V349.867z"/>
	</g>
</g>
<g>
	<g>
		<path d="M128,8.533c-42.351,0-76.8,34.449-76.8,76.8c0,42.351,34.449,76.8,76.8,76.8s76.8-34.449,76.8-76.8
			C204.8,42.982,170.351,8.533,128,8.533z M128,145.067c-32.939,0-59.733-26.803-59.733-59.733C68.267,52.403,95.061,25.6,128,25.6
			s59.733,26.803,59.733,59.733C187.733,118.263,160.939,145.067,128,145.067z"/>
	</g>
</g>
<g>
	<g>
		<path d="M128,42.667c-23.526,0-42.667,19.14-42.667,42.667c0,4.719,3.823,8.533,8.533,8.533c4.71,0,8.533-3.814,8.533-8.533
			c0-14.114,11.486-25.6,25.6-25.6c4.71,0,8.533-3.814,8.533-8.533S132.71,42.667,128,42.667z"/>
	</g>
</g>
<g>
	<g>
		<path d="M155.281,281.6h-54.554c-13.193,0-23.927,10.735-23.927,23.927v18.739c0,4.719,3.823,8.533,8.533,8.533h85.333
			c4.71,0,8.533-3.814,8.533-8.533v-18.739C179.2,292.335,168.465,281.6,155.281,281.6z M162.133,315.733H93.867v-10.206
			c0-3.789,3.081-6.861,6.852-6.861h54.554c3.78,0,6.861,3.072,6.861,6.861V315.733z"/>
	</g>
</g>
<g>
	<g>
		<path d="M150.289,144.623c-2.091-1.63-4.813-2.167-7.356-1.527c-10.112,2.62-19.763,2.62-29.875,0
			c-2.552-0.623-5.265-0.085-7.356,1.527c-2.082,1.613-3.302,4.096-3.302,6.741v138.769c0,4.719,3.823,8.533,8.533,8.533h34.133
			c4.71,0,8.533-3.814,8.525-8.533V151.364C153.591,148.719,152.371,146.236,150.289,144.623z M136.533,281.6h-17.067V161.63
			c5.734,0.666,11.332,0.666,17.067,0V281.6z"/>
	</g>
</g>
<g>
	<g>
		<path d="M436.881,315.733H331.128c-13.193,0-23.927,10.735-23.927,23.927V358.4c0,4.719,3.823,8.533,8.533,8.533h136.533
			c4.71,0,8.533-3.814,8.533-8.533v-18.739C460.8,326.468,450.065,315.733,436.881,315.733z M443.733,349.867H324.267v-10.206
			c0-3.789,3.081-6.861,6.861-6.861h105.745c3.78,0,6.861,3.072,6.861,6.861V349.867z"/>
	</g>
</g>
<g>
	<g>
		<path d="M384,8.533c-42.351,0-76.8,34.449-76.8,76.8c0,42.351,34.449,76.8,76.8,76.8s76.8-34.449,76.8-76.8
			C460.8,42.982,426.351,8.533,384,8.533z M384,145.067c-32.939,0-59.733-26.803-59.733-59.733c0-32.93,26.795-59.733,59.733-59.733
			c32.939,0,59.733,26.803,59.733,59.733C443.733,118.263,416.939,145.067,384,145.067z"/>
	</g>
</g>
<g>
	<g>
		<path d="M384,42.667c-23.526,0-42.667,19.14-42.667,42.667c0,4.719,3.823,8.533,8.533,8.533s8.533-3.814,8.533-8.533
			c0-14.114,11.486-25.6,25.6-25.6c4.71,0,8.533-3.814,8.533-8.533S388.71,42.667,384,42.667z"/>
	</g>
</g>
<g>
	<g>
		<path d="M411.281,281.6h-54.554c-13.193,0-23.927,10.735-23.927,23.927v18.739c0,4.719,3.823,8.533,8.533,8.533h85.333
			c4.71,0,8.533-3.814,8.533-8.533v-18.739C435.2,292.335,424.465,281.6,411.281,281.6z M418.133,315.733h-68.267v-10.206
			c0-3.789,3.081-6.861,6.852-6.861h54.554c3.78,0,6.861,3.072,6.861,6.861V315.733z"/>
	</g>
</g>
<g>
	<g>
		<path d="M406.289,144.623c-2.091-1.63-4.813-2.167-7.356-1.527c-10.112,2.62-19.763,2.62-29.875,0
			c-2.551-0.623-5.265-0.085-7.356,1.527c-2.082,1.613-3.302,4.096-3.302,6.741v138.769c0,4.719,3.823,8.533,8.533,8.533h34.133
			c4.71,0,8.533-3.814,8.525-8.533V151.364C409.591,148.719,408.371,146.236,406.289,144.623z M392.533,281.6h-17.067V161.63
			c5.734,0.666,11.332,0.666,17.067,0V281.6z"/>
	</g>
</g>
<g>
	<g>
		<path d="M486.4,452.267H25.6c-4.71,0-8.533,3.814-8.533,8.533v34.133c0,4.719,3.823,8.533,8.533,8.533h460.8
			c4.71,0,8.533-3.814,8.533-8.533V460.8C494.933,456.081,491.11,452.267,486.4,452.267z M477.867,486.4H34.133v-17.067h443.733
			V486.4z"/>
	</g>
</g>
<g>
</g>
<g>
</g>
<g>
</g>
<g>
</g>
<g>
</g>
<g>
</g>
<g>
</g>
<g>
</g>
<g>
</g>
<g>
</g>
<g>
</g>
<g>
</g>
<g>
</g>
<g>
</g>
<g>
</g>
</svg>
