<?xml version="1.0" encoding="iso-8859-1"?>
<!-- Generator: Adobe Illustrator 19.0.0, SVG Export Plug-In . SVG Version: 6.00 Build 0)  -->
<svg version="1.1" id="Capa_1" xmlns="http://www.w3.org/2000/svg" xmlns:xlink="http://www.w3.org/1999/xlink" x="0px" y="0px"
	 viewBox="0 0 512 512" style="enable-background:new 0 0 512 512;" xml:space="preserve">
<g>
	<g>
		<path d="M469.333,341.333H42.667C19.14,341.333,0,360.474,0,384c0,23.526,19.14,42.667,42.667,42.667h426.667
			C492.86,426.667,512,407.526,512,384C512,360.474,492.86,341.333,469.333,341.333z M469.333,409.6H42.667
			c-14.114,0-25.6-11.486-25.6-25.6s11.486-25.6,25.6-25.6h426.667c14.114,0,25.6,11.486,25.6,25.6S483.448,409.6,469.333,409.6z"/>
	</g>
</g>
<g>
	<g>
		<path d="M418.133,375.467H8.533C3.823,375.467,0,379.281,0,384c0,4.719,3.823,8.533,8.533,8.533h409.6
			c4.71,0,8.533-3.814,8.533-8.533C426.667,379.281,422.844,375.467,418.133,375.467z"/>
	</g>
</g>
<g>
	<g>
		<path d="M503.467,375.467h-51.2c-4.71,0-8.533,3.814-8.533,8.533c0,4.719,3.823,8.533,8.533,8.533h51.2
			c4.71,0,8.533-3.814,8.533-8.533C512,379.281,508.177,375.467,503.467,375.467z"/>
	</g>
</g>
<g>
	<g>
		<path d="M452.267,477.867h-384c-4.71,0-8.533-3.823-8.533-8.533s3.823-8.533,8.533-8.533H230.4
			c18.825,0,34.133-15.309,34.133-34.133v-8.533c0-4.719-3.823-8.533-8.533-8.533s-8.533,3.814-8.533,8.533v8.533
			c0,9.412-7.654,17.067-17.067,17.067H68.267c-14.114,0-25.6,11.486-25.6,25.6s11.486,25.6,25.6,25.6h384
			c4.71,0,8.533,3.823,8.533,8.533c0,4.719,3.823,8.533,8.533,8.533s8.533-3.814,8.533-8.533
			C477.867,489.353,466.381,477.867,452.267,477.867z"/>
	</g>
</g>
<g>
	<g>
		<path d="M358.434,298.633H153.566c-14.097,0-25.566,11.469-25.566,25.566v25.668c0,4.719,3.823,8.533,8.533,8.533h238.933
			c4.71,0,8.533-3.814,8.533-8.533v-25.668C384,310.101,372.531,298.633,358.434,298.633z M366.933,341.333H145.067v-17.135
			c0-4.685,3.814-8.499,8.499-8.499h204.868c4.685,0,8.499,3.814,8.499,8.499V341.333z"/>
	</g>
</g>
<g>
	<g>
		<path d="M324.301,256H187.699c-14.097,0-25.566,11.469-25.566,25.566v25.6c0,4.719,3.823,8.533,8.533,8.533h170.667
			c4.71,0,8.533-3.814,8.533-8.533v-25.6C349.867,267.469,338.398,256,324.301,256z M332.8,298.633H179.2v-17.067
			c0-4.685,3.814-8.499,8.499-8.499h136.602c4.685,0,8.499,3.814,8.499,8.499V298.633z"/>
	</g>
</g>
<g>
	<g>
		<path d="M256,0c-51.755,0-93.867,42.112-93.867,93.867c0,51.755,42.112,93.867,93.867,93.867
			c51.755,0,93.867-42.112,93.867-93.867C349.867,42.112,307.755,0,256,0z M256,170.667c-42.351,0-76.8-34.449-76.8-76.8
			c0-42.351,34.449-76.8,76.8-76.8c42.351,0,76.8,34.449,76.8,76.8C332.8,136.218,298.351,170.667,256,170.667z"/>
	</g>
</g>
<g>
	<g>
		<path d="M247.467,34.133c-28.228,0-51.2,22.963-51.2,51.2c0,4.719,3.823,8.533,8.533,8.533c4.71,0,8.533-3.814,8.533-8.533
			c0-18.825,15.309-34.133,34.133-34.133c4.71,0,8.533-3.814,8.533-8.533S252.177,34.133,247.467,34.133z"/>
	</g>
</g>
<g>
	<g>
		<path d="M83.661,307.2H52.873c-10.334,0-18.739,8.405-18.739,18.739v23.927c0,4.719,3.823,8.533,8.533,8.533h51.2
			c4.71,0,8.533-3.814,8.533-8.533v-23.927C102.4,315.605,93.995,307.2,83.661,307.2z M85.333,341.333H51.2v-15.394
			c0-0.922,0.751-1.673,1.673-1.673h30.788c0.922,0,1.672,0.751,1.672,1.673V341.333z"/>
	</g>
</g>
<g>
	<g>
		<path d="M459.128,307.2h-30.788c-10.334,0-18.739,8.405-18.739,18.739v23.927c0,4.719,3.823,8.533,8.533,8.533h51.2
			c4.71,0,8.533-3.814,8.533-8.533v-23.927C477.867,315.605,469.461,307.2,459.128,307.2z M460.8,341.333h-34.133v-15.394
			c0-0.922,0.751-1.673,1.673-1.673h30.788c0.922,0,1.673,0.751,1.673,1.673V341.333z"/>
	</g>
</g>
<g>
	<g>
		<path d="M286.652,168.405c-2.185-1.604-5.009-2.091-7.603-1.263c-14.933,4.685-31.164,4.685-46.097,0
			c-2.586-0.828-5.41-0.341-7.603,1.263c-2.185,1.613-3.482,4.164-3.482,6.878v89.25c0,4.719,3.823,8.533,8.533,8.533h51.2
			c4.71,0,8.533-3.814,8.533-8.533v-89.25C290.133,172.57,288.836,170.018,286.652,168.405z M273.067,256h-34.133v-69.828
			c11.238,2.065,22.895,2.065,34.133,0V256z"/>
	</g>
</g>
<g>
</g>
<g>
</g>
<g>
</g>
<g>
</g>
<g>
</g>
<g>
</g>
<g>
</g>
<g>
</g>
<g>
</g>
<g>
</g>
<g>
</g>
<g>
</g>
<g>
</g>
<g>
</g>
<g>
</g>
</svg>
