<?xml version="1.0" encoding="iso-8859-1"?>
<!-- Generator: Adobe Illustrator 19.0.0, SVG Export Plug-In . SVG Version: 6.00 Build 0)  -->
<svg version="1.1" id="Capa_1" xmlns="http://www.w3.org/2000/svg" xmlns:xlink="http://www.w3.org/1999/xlink" x="0px" y="0px"
	 viewBox="0 0 512 512" style="enable-background:new 0 0 512 512;" xml:space="preserve">
<g>
	<g>
		<path d="M467.827,0H44.173C29.555,0,17.655,11.9,17.655,26.518V256c0,4.882,3.955,8.828,8.828,8.828h459.034
			c4.873,0,8.828-3.946,8.828-8.828V26.518C494.345,11.9,482.445,0,467.827,0z M476.69,247.172H35.31V26.518
			c0-4.891,3.972-8.863,8.863-8.863h423.654c4.891,0,8.863,3.972,8.863,8.863V247.172z"/>
	</g>
</g>
<g>
	<g>
		<path d="M485.517,247.172H26.483c-4.873,0-8.828,3.946-8.828,8.828v229.482c0,14.618,11.9,26.518,26.518,26.518h423.654
			c14.619,0,26.518-11.9,26.518-26.518V256C494.345,251.118,490.39,247.172,485.517,247.172z M476.69,485.482
			c0,4.89-3.972,8.863-8.863,8.863H44.173c-4.89,0-8.863-3.972-8.863-8.863V264.828H476.69V485.482z"/>
	</g>
</g>
<g>
	<g>
		<path d="M344.276,35.31H167.724c-4.873,0-8.828,3.946-8.828,8.828V220.69c0,4.882,3.955,8.828,8.828,8.828h176.552
			c4.873,0,8.828-3.946,8.828-8.828V44.138C353.103,39.256,349.149,35.31,344.276,35.31z M335.448,211.862H176.552V52.966h158.897
			V211.862z"/>
	</g>
</g>
<g>
	<g>
		<path d="M361.931,282.483H150.069c-4.873,0-8.828,3.946-8.828,8.828v176.552c0,4.882,3.955,8.828,8.828,8.828h211.862
			c4.873,0,8.828-3.946,8.828-8.828V291.31C370.759,286.429,366.804,282.483,361.931,282.483z M353.103,459.034H158.897V300.138
			h194.207V459.034z"/>
	</g>
</g>
<g>
	<g>
		<path d="M97.103,88.276c-4.873,0-8.828,3.946-8.828,8.828v17.655c0,4.882,3.955,8.828,8.828,8.828
			c4.873,0,8.828-3.946,8.828-8.828V97.103C105.931,92.222,101.976,88.276,97.103,88.276z"/>
	</g>
</g>
<g>
	<g>
		<path d="M97.103,141.241c-4.873,0-8.828,3.946-8.828,8.828v17.655c0,4.882,3.955,8.828,8.828,8.828
			c4.873,0,8.828-3.946,8.828-8.828v-17.655C105.931,145.187,101.976,141.241,97.103,141.241z"/>
	</g>
</g>
<g>
	<g>
		<path d="M132.414,123.586h-17.655c-4.873,0-8.828,3.946-8.828,8.828c0,4.882,3.955,8.828,8.828,8.828h17.655
			c4.873,0,8.828-3.946,8.828-8.828C141.241,127.532,137.287,123.586,132.414,123.586z"/>
	</g>
</g>
<g>
	<g>
		<path d="M79.448,123.586H61.793c-4.873,0-8.828,3.946-8.828,8.828c0,4.882,3.955,8.828,8.828,8.828h17.655
			c4.873,0,8.828-3.946,8.828-8.828C88.276,127.532,84.321,123.586,79.448,123.586z"/>
	</g>
</g>
<g>
	<g>
		<path d="M414.897,88.276c-4.873,0-8.828,3.946-8.828,8.828v17.655c0,4.882,3.955,8.828,8.828,8.828s8.828-3.946,8.828-8.828
			V97.103C423.724,92.222,419.769,88.276,414.897,88.276z"/>
	</g>
</g>
<g>
	<g>
		<path d="M414.897,141.241c-4.873,0-8.828,3.946-8.828,8.828v17.655c0,4.882,3.955,8.828,8.828,8.828s8.828-3.946,8.828-8.828
			v-17.655C423.724,145.187,419.769,141.241,414.897,141.241z"/>
	</g>
</g>
<g>
	<g>
		<path d="M450.207,123.586h-17.655c-4.873,0-8.828,3.946-8.828,8.828c0,4.882,3.955,8.828,8.828,8.828h17.655
			c4.873,0,8.828-3.946,8.828-8.828C459.034,127.532,455.08,123.586,450.207,123.586z"/>
	</g>
</g>
<g>
	<g>
		<path d="M397.241,123.586h-17.655c-4.873,0-8.828,3.946-8.828,8.828c0,4.882,3.955,8.828,8.828,8.828h17.655
			c4.873,0,8.828-3.946,8.828-8.828C406.069,127.532,402.114,123.586,397.241,123.586z"/>
	</g>
</g>
<g>
	<g>
		<path d="M88.276,282.483c-19.474,0-35.31,15.837-35.31,35.31c0,19.474,15.837,35.31,35.31,35.31
			c19.474,0,35.31-15.837,35.31-35.31C123.586,298.319,107.749,282.483,88.276,282.483z M88.276,335.448
			c-9.737,0-17.655-7.918-17.655-17.655s7.918-17.655,17.655-17.655c9.737,0,17.655,7.918,17.655,17.655
			S98.013,335.448,88.276,335.448z"/>
	</g>
</g>
<g>
	<g>
		<path d="M88.276,406.069c-4.873,0-8.828,3.946-8.828,8.828v52.966c0,4.882,3.955,8.828,8.828,8.828
			c4.873,0,8.828-3.946,8.828-8.828v-52.966C97.103,410.015,93.149,406.069,88.276,406.069z"/>
	</g>
</g>
<g>
	<g>
		<path d="M114.759,432.552H61.793c-4.873,0-8.828,3.946-8.828,8.828c0,4.882,3.955,8.828,8.828,8.828h52.966
			c4.873,0,8.828-3.946,8.828-8.828C123.586,436.498,119.631,432.552,114.759,432.552z"/>
	</g>
</g>
<g>
	<g>
		<path d="M441.379,423.724h-35.31c-4.873,0-8.828,3.946-8.828,8.828v35.31c0,4.882,3.955,8.828,8.828,8.828h35.31
			c4.873,0,8.828-3.946,8.828-8.828v-35.31C450.207,427.67,446.252,423.724,441.379,423.724z M432.552,459.034h-17.655v-17.655
			h17.655V459.034z"/>
	</g>
</g>
<g>
	<g>
		<path d="M441.379,282.483h-35.31c-4.873,0-8.828,3.946-8.828,8.828v35.31c0,4.882,3.955,8.828,8.828,8.828h35.31
			c4.873,0,8.828-3.946,8.828-8.828v-35.31C450.207,286.429,446.252,282.483,441.379,282.483z M432.552,317.793h-17.655v-17.655
			h17.655V317.793z"/>
	</g>
</g>
<g>
	<g>
		<path d="M441.379,353.103h-35.31c-4.873,0-8.828,3.946-8.828,8.828s3.955,8.828,8.828,8.828h35.31
			c4.873,0,8.828-3.946,8.828-8.828S446.252,353.103,441.379,353.103z"/>
	</g>
</g>
<g>
	<g>
		<path d="M441.379,388.414h-35.31c-4.873,0-8.828,3.946-8.828,8.828c0,4.882,3.955,8.828,8.828,8.828h35.31
			c4.873,0,8.828-3.946,8.828-8.828C450.207,392.36,446.252,388.414,441.379,388.414z"/>
	</g>
</g>
<g>
	<g>
		<path d="M279.896,126.173c-3.443-3.452-9.039-3.452-12.482,0l-17.655,17.655c-3.452,3.452-3.452,9.031,0,12.482
			c1.721,1.721,3.981,2.586,6.241,2.586c2.26,0,4.52-0.865,6.241-2.586l17.655-17.655
			C283.348,135.203,283.348,129.624,279.896,126.173z"/>
	</g>
</g>
<g>
	<g>
		<path d="M226.931,73.207c-3.443-3.452-9.039-3.452-12.482,0l-17.655,17.655c-3.452,3.452-3.452,9.031,0,12.482
			c1.721,1.721,3.981,2.586,6.241,2.586s4.52-0.865,6.241-2.586l17.655-17.655C230.382,82.238,230.382,76.659,226.931,73.207z"/>
	</g>
</g>
<g>
	<g>
		<path d="M279.896,73.207c-3.443-3.452-9.039-3.452-12.482,0l-70.621,70.621c-3.452,3.452-3.452,9.031,0,12.482
			c1.721,1.721,3.981,2.586,6.241,2.586s4.52-0.865,6.241-2.586l70.621-70.621C283.348,82.238,283.348,76.659,279.896,73.207z"/>
	</g>
</g>
<g>
	<g>
		<path d="M262.241,373.345c-3.443-3.452-9.039-3.452-12.482,0L232.104,391c-3.452,3.452-3.452,9.031,0,12.482
			c1.721,1.721,3.981,2.586,6.241,2.586c2.26,0,4.52-0.865,6.241-2.586l17.655-17.655
			C265.693,382.376,265.693,376.797,262.241,373.345z"/>
	</g>
</g>
<g>
	<g>
		<path d="M209.276,320.38c-3.443-3.452-9.039-3.452-12.482,0l-17.655,17.655c-3.452,3.452-3.452,9.031,0,12.482
			c1.721,1.721,3.981,2.586,6.241,2.586c2.26,0,4.52-0.865,6.241-2.586l17.655-17.655
			C212.727,329.41,212.727,323.831,209.276,320.38z"/>
	</g>
</g>
<g>
	<g>
		<path d="M262.241,320.38c-3.443-3.452-9.039-3.452-12.482,0L179.138,391c-3.452,3.452-3.452,9.031,0,12.482
			c1.721,1.721,3.981,2.586,6.241,2.586c2.26,0,4.52-0.865,6.241-2.586l70.621-70.621
			C265.693,329.41,265.693,323.831,262.241,320.38z"/>
	</g>
</g>
<g>
</g>
<g>
</g>
<g>
</g>
<g>
</g>
<g>
</g>
<g>
</g>
<g>
</g>
<g>
</g>
<g>
</g>
<g>
</g>
<g>
</g>
<g>
</g>
<g>
</g>
<g>
</g>
<g>
</g>
</svg>
