<?xml version="1.0" encoding="iso-8859-1"?>
<!-- Generator: Adobe Illustrator 19.0.0, SVG Export Plug-In . SVG Version: 6.00 Build 0)  -->
<svg version="1.1" id="Capa_1" xmlns="http://www.w3.org/2000/svg" xmlns:xlink="http://www.w3.org/1999/xlink" x="0px" y="0px"
	 viewBox="0 0 512 512" style="enable-background:new 0 0 512 512;" xml:space="preserve">
<g>
	<g>
		<path d="M477.858,0H34.142C15.317,0,0,15.317,0,34.142v264.525c0,4.719,3.823,8.533,8.533,8.533h494.933
			c4.71,0,8.533-3.814,8.533-8.533V34.142C512,15.317,496.683,0,477.858,0z M494.933,290.133H17.067V34.142
			c0-9.421,7.663-17.075,17.075-17.075h443.716c9.412,0,17.075,7.654,17.075,17.075V290.133z"/>
	</g>
</g>
<g>
	<g>
		<path d="M503.467,290.133H8.533c-4.71,0-8.533,3.814-8.533,8.533v76.791C0,394.283,15.317,409.6,34.142,409.6h443.716
			c18.825,0,34.142-15.317,34.142-34.142v-76.791C512,293.948,508.177,290.133,503.467,290.133z M494.933,375.458
			c0,9.421-7.663,17.075-17.075,17.075H34.142c-9.412,0-17.075-7.654-17.075-17.075V307.2h477.867V375.458z"/>
	</g>
</g>
<g>
	<g>
		<path d="M469.333,34.133H42.667c-4.71,0-8.533,3.814-8.533,8.533v256c0,4.719,3.823,8.533,8.533,8.533h426.667
			c4.71,0,8.533-3.814,8.533-8.533v-256C477.867,37.948,474.044,34.133,469.333,34.133z M460.8,290.133H51.2V51.2h409.6V290.133z"/>
	</g>
</g>
<g>
	<g>
		<path d="M366.95,460.8H145.05c-14.106,0-25.583,11.477-25.583,25.583v17.084c0,4.719,3.823,8.533,8.533,8.533h256
			c4.71,0,8.533-3.814,8.533-8.533v-17.084C392.533,472.277,381.056,460.8,366.95,460.8z M375.467,494.933H136.533v-8.55
			c0-4.702,3.823-8.516,8.516-8.516H366.95c4.693,0,8.516,3.814,8.516,8.516V494.933z"/>
	</g>
</g>
<g>
	<g>
		<path d="M349.867,460.8c-28.314,0-42.667-20.096-42.667-59.733c0-4.719-3.823-8.533-8.533-8.533h-85.333
			c-4.71,0-8.533,3.814-8.533,8.533c0,39.637-14.353,59.733-42.667,59.733c-4.71,0-8.533,3.814-8.533,8.533s3.823,8.533,8.533,8.533
			h187.733c4.71,0,8.533-3.814,8.533-8.533S354.577,460.8,349.867,460.8z M203.699,460.8c10.505-11.631,16.691-28.971,17.937-51.2
			h68.736c1.237,22.229,7.424,39.569,17.937,51.2H203.699z"/>
	</g>
</g>
<g>
	<g>
		<path d="M273.067,358.4h-25.6v-17.067h25.6c4.71,0,8.533-3.814,8.533-8.533c0-4.719-3.823-8.533-8.533-8.533h-34.133
			c-4.71,0-8.533,3.814-8.533,8.533v34.133c0,4.719,3.823,8.533,8.533,8.533h34.133c4.71,0,8.533-3.814,8.533-8.533
			S277.777,358.4,273.067,358.4z"/>
	</g>
</g>
<g>
	<g>
		<path d="M116.966,70.767c-3.328-3.336-8.738-3.336-12.066,0L70.767,104.9c-3.337,3.337-3.337,8.73,0,12.066
			c1.664,1.664,3.849,2.5,6.033,2.5c2.185,0,4.369-0.836,6.033-2.5l34.133-34.133C120.303,79.497,120.303,74.103,116.966,70.767z"/>
	</g>
</g>
<g>
	<g>
		<path d="M176.7,121.967c-3.328-3.337-8.738-3.337-12.066,0L130.5,156.1c-3.337,3.337-3.337,8.73,0,12.066
			c1.664,1.664,3.849,2.5,6.033,2.5c2.185,0,4.369-0.836,6.033-2.5l34.133-34.133C180.036,130.697,180.036,125.303,176.7,121.967z"
			/>
	</g>
</g>
<g>
	<g>
		<path d="M168.166,70.767c-3.328-3.337-8.738-3.337-12.066,0L70.767,156.1c-3.337,3.337-3.337,8.73,0,12.066
			c1.664,1.664,3.849,2.5,6.033,2.5c2.185,0,4.369-0.836,6.033-2.5l85.333-85.333C171.503,79.497,171.503,74.103,168.166,70.767z"/>
	</g>
</g>
<g>
</g>
<g>
</g>
<g>
</g>
<g>
</g>
<g>
</g>
<g>
</g>
<g>
</g>
<g>
</g>
<g>
</g>
<g>
</g>
<g>
</g>
<g>
</g>
<g>
</g>
<g>
</g>
<g>
</g>
</svg>
