<?xml version="1.0" encoding="iso-8859-1"?>
<!-- Generator: Adobe Illustrator 19.0.0, SVG Export Plug-In . SVG Version: 6.00 Build 0)  -->
<svg version="1.1" id="Capa_1" xmlns="http://www.w3.org/2000/svg" xmlns:xlink="http://www.w3.org/1999/xlink" x="0px" y="0px"
	 viewBox="0 0 512 512" style="enable-background:new 0 0 512 512;" xml:space="preserve">
<g>
	<g>
		<path d="M409.6,0H102.4C88.286,0,76.8,11.486,76.8,25.6v460.8c0,14.114,11.486,25.6,25.6,25.6h307.2
			c14.114,0,25.6-11.486,25.6-25.6V25.6C435.2,11.486,423.714,0,409.6,0z M418.133,486.4c0,4.71-3.831,8.533-8.533,8.533H102.4
			c-4.71,0-8.533-3.823-8.533-8.533V25.6c0-4.71,3.823-8.533,8.533-8.533h307.2c4.71,0,8.533,3.823,8.533,8.533V486.4z"/>
	</g>
</g>
<g>
	<g>
		<path d="M392.533,34.133H119.467c-4.71,0-8.533,3.814-8.533,8.533v256c0,4.719,3.823,8.533,8.533,8.533h273.067
			c4.71,0,8.533-3.814,8.533-8.533v-256C401.067,37.948,397.244,34.133,392.533,34.133z M384,290.133H128V51.2h256V290.133z"/>
	</g>
</g>
<g>
	<g>
		<path d="M362.667,324.267c-16.469,0-29.867,13.397-29.867,29.867c0,16.469,13.397,29.867,29.867,29.867
			c16.469,0,29.867-13.397,29.867-29.867C392.533,337.664,379.136,324.267,362.667,324.267z M362.667,366.933
			c-7.057,0-12.8-5.743-12.8-12.8s5.743-12.8,12.8-12.8s12.8,5.743,12.8,12.8S369.724,366.933,362.667,366.933z"/>
	</g>
</g>
<g>
	<g>
		<path d="M320,384c-16.469,0-29.867,13.397-29.867,29.867c0,16.469,13.397,29.867,29.867,29.867s29.867-13.397,29.867-29.867
			C349.867,397.397,336.469,384,320,384z M320,426.667c-7.057,0-12.8-5.743-12.8-12.8s5.743-12.8,12.8-12.8s12.8,5.743,12.8,12.8
			S327.057,426.667,320,426.667z"/>
	</g>
</g>
<g>
	<g>
		<path d="M221.867,358.4h-25.6v-25.6c0-4.719-3.823-8.533-8.533-8.533H153.6c-4.71,0-8.533,3.814-8.533,8.533v25.6h-25.6
			c-4.71,0-8.533,3.814-8.533,8.533v34.133c0,4.719,3.823,8.533,8.533,8.533h25.6v25.6c0,4.719,3.823,8.533,8.533,8.533h34.133
			c4.71,0,8.533-3.814,8.533-8.533v-25.6h25.6c4.71,0,8.533-3.814,8.533-8.533v-34.133C230.4,362.214,226.577,358.4,221.867,358.4z
			 M213.333,392.533h-25.6c-4.71,0-8.533,3.814-8.533,8.533v25.6h-17.067v-25.6c0-4.719-3.823-8.533-8.533-8.533H128v-17.067h25.6
			c4.71,0,8.533-3.814,8.533-8.533v-25.6H179.2v25.6c0,4.719,3.823,8.533,8.533,8.533h25.6V392.533z"/>
	</g>
</g>
<g>
	<g>
		<path d="M238.933,256H204.8c-4.71,0-8.533,3.814-8.533,8.533v34.133c0,4.719,3.823,8.533,8.533,8.533h34.133
			c4.71,0,8.533-3.814,8.533-8.533v-34.133C247.467,259.814,243.644,256,238.933,256z M230.4,290.133h-17.067v-17.067H230.4V290.133
			z"/>
	</g>
</g>
<g>
	<g>
		<path d="M273.067,256h-34.133c-4.71,0-8.533,3.814-8.533,8.533v34.133c0,4.719,3.823,8.533,8.533,8.533h34.133
			c4.71,0,8.533-3.814,8.533-8.533v-34.133C281.6,259.814,277.777,256,273.067,256z M264.533,290.133h-17.067v-17.067h17.067
			V290.133z"/>
	</g>
</g>
<g>
	<g>
		<path d="M307.2,256h-34.133c-4.71,0-8.533,3.814-8.533,8.533v34.133c0,4.719,3.823,8.533,8.533,8.533H307.2
			c4.71,0,8.533-3.814,8.533-8.533v-34.133C315.733,259.814,311.91,256,307.2,256z M298.667,290.133H281.6v-17.067h17.067V290.133z"
			/>
	</g>
</g>
<g>
	<g>
		<path d="M392.533,256H358.4c-4.71,0-8.533,3.814-8.533,8.533v34.133c0,4.719,3.823,8.533,8.533,8.533h34.133
			c4.71,0,8.533-3.814,8.533-8.533v-34.133C401.067,259.814,397.244,256,392.533,256z M384,290.133h-17.067v-17.067H384V290.133z"/>
	</g>
</g>
<g>
	<g>
		<path d="M392.533,221.867H358.4c-4.71,0-8.533,3.814-8.533,8.533v34.133c0,4.719,3.823,8.533,8.533,8.533h34.133
			c4.71,0,8.533-3.814,8.533-8.533V230.4C401.067,225.681,397.244,221.867,392.533,221.867z M384,256h-17.067v-17.067H384V256z"/>
	</g>
</g>
<g>
	<g>
		<path d="M392.533,187.733H358.4c-4.71,0-8.533,3.814-8.533,8.533V230.4c0,4.719,3.823,8.533,8.533,8.533h34.133
			c4.71,0,8.533-3.814,8.533-8.533v-34.133C401.067,191.548,397.244,187.733,392.533,187.733z M384,221.867h-17.067V204.8H384
			V221.867z"/>
	</g>
</g>
<g>
	<g>
		<path d="M358.4,187.733h-34.133c-4.71,0-8.533,3.814-8.533,8.533V230.4c0,4.719,3.823,8.533,8.533,8.533H358.4
			c4.71,0,8.533-3.814,8.533-8.533v-34.133C366.933,191.548,363.11,187.733,358.4,187.733z M349.867,221.867H332.8V204.8h17.067
			V221.867z"/>
	</g>
</g>
<g>
	<g>
		<path d="M273.067,221.867h-34.133c-4.71,0-8.533,3.814-8.533,8.533v34.133c0,4.719,3.823,8.533,8.533,8.533h34.133
			c4.71,0,8.533-3.814,8.533-8.533V230.4C281.6,225.681,277.777,221.867,273.067,221.867z M264.533,256h-17.067v-17.067h17.067V256z
			"/>
	</g>
</g>
<g>
	<g>
		<path d="M273.067,187.733h-34.133c-4.71,0-8.533,3.814-8.533,8.533V230.4c0,4.719,3.823,8.533,8.533,8.533h34.133
			c4.71,0,8.533-3.814,8.533-8.533v-34.133C281.6,191.548,277.777,187.733,273.067,187.733z M264.533,221.867h-17.067V204.8h17.067
			V221.867z"/>
	</g>
</g>
<g>
	<g>
		<path d="M315.733,76.8H281.6c-4.71,0-8.533,3.814-8.533,8.533v34.133c0,4.719,3.823,8.533,8.533,8.533h34.133
			c4.71,0,8.533-3.814,8.533-8.533V85.333C324.267,80.614,320.444,76.8,315.733,76.8z M307.2,110.933h-17.067V93.867H307.2V110.933z
			"/>
	</g>
</g>
<g>
	<g>
		<path d="M349.867,76.8h-34.133c-4.71,0-8.533,3.814-8.533,8.533v34.133c0,4.719,3.823,8.533,8.533,8.533h34.133
			c4.71,0,8.533-3.814,8.533-8.533V85.333C358.4,80.614,354.577,76.8,349.867,76.8z M341.333,110.933h-17.067V93.867h17.067V110.933
			z"/>
	</g>
</g>
<g>
	<g>
		<path d="M315.733,110.933H281.6c-4.71,0-8.533,3.814-8.533,8.533V153.6c0,4.719,3.823,8.533,8.533,8.533h34.133
			c4.71,0,8.533-3.814,8.533-8.533v-34.133C324.267,114.748,320.444,110.933,315.733,110.933z M307.2,145.067h-17.067V128H307.2
			V145.067z"/>
	</g>
</g>
<g>
	<g>
		<path d="M187.733,187.733H153.6c-4.71,0-8.533,3.814-8.533,8.533V230.4c0,4.719,3.823,8.533,8.533,8.533h34.133
			c4.71,0,8.533-3.814,8.533-8.533v-34.133C196.267,191.548,192.444,187.733,187.733,187.733z M179.2,221.867h-17.067V204.8H179.2
			V221.867z"/>
	</g>
</g>
<g>
	<g>
		<path d="M153.6,187.733h-34.133c-4.71,0-8.533,3.814-8.533,8.533V230.4c0,4.719,3.823,8.533,8.533,8.533H153.6
			c4.71,0,8.533-3.814,8.533-8.533v-34.133C162.133,191.548,158.31,187.733,153.6,187.733z M145.067,221.867H128V204.8h17.067
			V221.867z"/>
	</g>
</g>
<g>
	<g>
		<path d="M187.733,153.6H153.6c-4.71,0-8.533,3.814-8.533,8.533v34.133c0,4.719,3.823,8.533,8.533,8.533h34.133
			c4.71,0,8.533-3.814,8.533-8.533v-34.133C196.267,157.414,192.444,153.6,187.733,153.6z M179.2,187.733h-17.067v-17.067H179.2
			V187.733z"/>
	</g>
</g>
<g>
	<g>
		<path d="M153.6,153.6h-34.133c-4.71,0-8.533,3.814-8.533,8.533v34.133c0,4.719,3.823,8.533,8.533,8.533H153.6
			c4.71,0,8.533-3.814,8.533-8.533v-34.133C162.133,157.414,158.31,153.6,153.6,153.6z M145.067,187.733H128v-17.067h17.067V187.733
			z"/>
	</g>
</g>
<g>
	<g>
		<path d="M153.6,221.867h-34.133c-4.71,0-8.533,3.814-8.533,8.533v34.133c0,4.719,3.823,8.533,8.533,8.533H153.6
			c4.71,0,8.533-3.814,8.533-8.533V230.4C162.133,225.681,158.31,221.867,153.6,221.867z M145.067,256H128v-17.067h17.067V256z"/>
	</g>
</g>
<g>
	<g>
		<path d="M153.6,256h-34.133c-4.71,0-8.533,3.814-8.533,8.533v34.133c0,4.719,3.823,8.533,8.533,8.533H153.6
			c4.71,0,8.533-3.814,8.533-8.533v-34.133C162.133,259.814,158.31,256,153.6,256z M145.067,290.133H128v-17.067h17.067V290.133z"/>
	</g>
</g>
<g>
	<g>
		<path d="M273.067,460.8h-34.133c-4.71,0-8.533,3.814-8.533,8.533s3.823,8.533,8.533,8.533h34.133c4.71,0,8.533-3.814,8.533-8.533
			S277.777,460.8,273.067,460.8z"/>
	</g>
</g>
<g>
	<g>
		<path d="M341.333,460.8H307.2c-4.71,0-8.533,3.814-8.533,8.533s3.823,8.533,8.533,8.533h34.133c4.71,0,8.533-3.814,8.533-8.533
			S346.044,460.8,341.333,460.8z"/>
	</g>
</g>
<g>
	<g>
		<path d="M204.8,460.8h-34.133c-4.71,0-8.533,3.814-8.533,8.533s3.823,8.533,8.533,8.533H204.8c4.71,0,8.533-3.814,8.533-8.533
			S209.51,460.8,204.8,460.8z"/>
	</g>
</g>
<g>
</g>
<g>
</g>
<g>
</g>
<g>
</g>
<g>
</g>
<g>
</g>
<g>
</g>
<g>
</g>
<g>
</g>
<g>
</g>
<g>
</g>
<g>
</g>
<g>
</g>
<g>
</g>
<g>
</g>
</svg>
