<?xml version="1.0" encoding="iso-8859-1"?>
<!-- Generator: Adobe Illustrator 19.0.0, SVG Export Plug-In . SVG Version: 6.00 Build 0)  -->
<svg version="1.1" id="Capa_1" xmlns="http://www.w3.org/2000/svg" xmlns:xlink="http://www.w3.org/1999/xlink" x="0px" y="0px"
	 viewBox="0 0 512 512" style="enable-background:new 0 0 512 512;" xml:space="preserve">
<g>
	<g>
		<path d="M503.467,85.333H59.733c-4.71,0-8.533,3.823-8.533,8.533V384c0,4.71,3.823,8.533,8.533,8.533h443.733
			c4.71,0,8.533-3.823,8.533-8.533V93.867C512,89.156,508.177,85.333,503.467,85.333z M494.933,375.467H68.267V102.4h426.667
			V375.467z"/>
	</g>
</g>
<g>
	<g>
		<path d="M59.733,59.733h-51.2C3.823,59.733,0,63.556,0,68.267S3.823,76.8,8.533,76.8h51.2c4.71,0,8.533-3.823,8.533-8.533
			S64.444,59.733,59.733,59.733z"/>
	</g>
</g>
<g>
	<g>
		<path d="M59.733,59.733c-4.71,0-8.533,3.823-8.533,8.533v375.467c0,4.71,3.823,8.533,8.533,8.533s8.533-3.823,8.533-8.533V68.267
			C68.267,63.556,64.444,59.733,59.733,59.733z"/>
	</g>
</g>
<g>
	<g>
		<path d="M162.133,128h-51.2c-4.71,0-8.533,3.823-8.533,8.533v204.8c0,4.71,3.823,8.533,8.533,8.533h51.2
			c4.71,0,8.533-3.823,8.533-8.533v-204.8C170.667,131.823,166.844,128,162.133,128z M153.6,332.8h-34.133V145.067H153.6V332.8z"/>
	</g>
</g>
<g>
	<g>
		<path d="M110.933,213.333H93.867c-4.71,0-8.533,3.823-8.533,8.533c0,4.71,3.823,8.533,8.533,8.533h17.067
			c4.71,0,8.533-3.823,8.533-8.533C119.467,217.156,115.644,213.333,110.933,213.333z"/>
	</g>
</g>
<g>
	<g>
		<path d="M110.933,145.067H93.867c-4.71,0-8.533,3.823-8.533,8.533c0,4.71,3.823,8.533,8.533,8.533h17.067
			c4.71,0,8.533-3.823,8.533-8.533C119.467,148.89,115.644,145.067,110.933,145.067z"/>
	</g>
</g>
<g>
	<g>
		<path d="M110.933,179.2H93.867c-4.71,0-8.533,3.823-8.533,8.533s3.823,8.533,8.533,8.533h17.067c4.71,0,8.533-3.823,8.533-8.533
			S115.644,179.2,110.933,179.2z"/>
	</g>
</g>
<g>
	<g>
		<path d="M179.2,213.333h-17.067c-4.71,0-8.533,3.823-8.533,8.533c0,4.71,3.823,8.533,8.533,8.533H179.2
			c4.71,0,8.533-3.823,8.533-8.533C187.733,217.156,183.91,213.333,179.2,213.333z"/>
	</g>
</g>
<g>
	<g>
		<path d="M179.2,145.067h-17.067c-4.71,0-8.533,3.823-8.533,8.533c0,4.71,3.823,8.533,8.533,8.533H179.2
			c4.71,0,8.533-3.823,8.533-8.533C187.733,148.89,183.91,145.067,179.2,145.067z"/>
	</g>
</g>
<g>
	<g>
		<path d="M307.2,162.133c-4.71,0-8.533,3.823-8.533,8.533v17.067c0,4.71,3.823,8.533,8.533,8.533s8.533-3.823,8.533-8.533v-17.067
			C315.733,165.956,311.91,162.133,307.2,162.133z"/>
	</g>
</g>
<g>
	<g>
		<path d="M256,162.133c-4.71,0-8.533,3.823-8.533,8.533v17.067c0,4.71,3.823,8.533,8.533,8.533s8.533-3.823,8.533-8.533v-17.067
			C264.533,165.956,260.71,162.133,256,162.133z"/>
	</g>
</g>
<g>
	<g>
		<path d="M307.2,281.6c-4.71,0-8.533,3.823-8.533,8.533V307.2c0,4.71,3.823,8.533,8.533,8.533s8.533-3.823,8.533-8.533v-17.067
			C315.733,285.423,311.91,281.6,307.2,281.6z"/>
	</g>
</g>
<g>
	<g>
		<path d="M256,281.6c-4.71,0-8.533,3.823-8.533,8.533V307.2c0,4.71,3.823,8.533,8.533,8.533s8.533-3.823,8.533-8.533v-17.067
			C264.533,285.423,260.71,281.6,256,281.6z"/>
	</g>
</g>
<g>
	<g>
		<path d="M179.2,179.2h-17.067c-4.71,0-8.533,3.823-8.533,8.533s3.823,8.533,8.533,8.533H179.2c4.71,0,8.533-3.823,8.533-8.533
			S183.91,179.2,179.2,179.2z"/>
	</g>
</g>
<g>
	<g>
		<path d="M179.2,247.467h-17.067c-4.71,0-8.533,3.823-8.533,8.533s3.823,8.533,8.533,8.533H179.2c4.71,0,8.533-3.823,8.533-8.533
			S183.91,247.467,179.2,247.467z"/>
	</g>
</g>
<g>
	<g>
		<path d="M238.933,230.4h-17.067c-4.71,0-8.533,3.823-8.533,8.533c0,4.71,3.823,8.533,8.533,8.533h17.067
			c4.71,0,8.533-3.823,8.533-8.533C247.467,234.223,243.644,230.4,238.933,230.4z"/>
	</g>
</g>
<g>
	<g>
		<path d="M238.933,196.267h-17.067c-4.71,0-8.533,3.823-8.533,8.533s3.823,8.533,8.533,8.533h17.067
			c4.71,0,8.533-3.823,8.533-8.533S243.644,196.267,238.933,196.267z"/>
	</g>
</g>
<g>
	<g>
		<path d="M238.933,264.533h-17.067c-4.71,0-8.533,3.823-8.533,8.533s3.823,8.533,8.533,8.533h17.067
			c4.71,0,8.533-3.823,8.533-8.533S243.644,264.533,238.933,264.533z"/>
	</g>
</g>
<g>
	<g>
		<path d="M179.2,281.6h-17.067c-4.71,0-8.533,3.823-8.533,8.533c0,4.71,3.823,8.533,8.533,8.533H179.2
			c4.71,0,8.533-3.823,8.533-8.533C187.733,285.423,183.91,281.6,179.2,281.6z"/>
	</g>
</g>
<g>
	<g>
		<path d="M341.333,230.4h-17.067c-4.71,0-8.533,3.823-8.533,8.533c0,4.71,3.823,8.533,8.533,8.533h17.067
			c4.71,0,8.533-3.823,8.533-8.533C349.867,234.223,346.044,230.4,341.333,230.4z"/>
	</g>
</g>
<g>
	<g>
		<path d="M341.333,196.267h-17.067c-4.71,0-8.533,3.823-8.533,8.533s3.823,8.533,8.533,8.533h17.067
			c4.71,0,8.533-3.823,8.533-8.533S346.044,196.267,341.333,196.267z"/>
	</g>
</g>
<g>
	<g>
		<path d="M341.333,264.533h-17.067c-4.71,0-8.533,3.823-8.533,8.533s3.823,8.533,8.533,8.533h17.067
			c4.71,0,8.533-3.823,8.533-8.533S346.044,264.533,341.333,264.533z"/>
	</g>
</g>
<g>
	<g>
		<path d="M110.933,247.467H93.867c-4.71,0-8.533,3.823-8.533,8.533s3.823,8.533,8.533,8.533h17.067c4.71,0,8.533-3.823,8.533-8.533
			S115.644,247.467,110.933,247.467z"/>
	</g>
</g>
<g>
	<g>
		<path d="M110.933,281.6H93.867c-4.71,0-8.533,3.823-8.533,8.533c0,4.71,3.823,8.533,8.533,8.533h17.067
			c4.71,0,8.533-3.823,8.533-8.533C119.467,285.423,115.644,281.6,110.933,281.6z"/>
	</g>
</g>
<g>
	<g>
		<path d="M179.2,315.733h-17.067c-4.71,0-8.533,3.823-8.533,8.533s3.823,8.533,8.533,8.533H179.2c4.71,0,8.533-3.823,8.533-8.533
			S183.91,315.733,179.2,315.733z"/>
	</g>
</g>
<g>
	<g>
		<path d="M110.933,315.733H93.867c-4.71,0-8.533,3.823-8.533,8.533s3.823,8.533,8.533,8.533h17.067c4.71,0,8.533-3.823,8.533-8.533
			S115.644,315.733,110.933,315.733z"/>
	</g>
</g>
<g>
	<g>
		<path d="M452.267,128h-51.2c-4.71,0-8.533,3.823-8.533,8.533v204.8c0,4.71,3.823,8.533,8.533,8.533h51.2
			c4.71,0,8.533-3.823,8.533-8.533v-204.8C460.8,131.823,456.977,128,452.267,128z M443.733,332.8H409.6V145.067h34.133V332.8z"/>
	</g>
</g>
<g>
	<g>
		<path d="M401.067,213.333H384c-4.71,0-8.533,3.823-8.533,8.533c0,4.71,3.823,8.533,8.533,8.533h17.067
			c4.71,0,8.533-3.823,8.533-8.533C409.6,217.156,405.777,213.333,401.067,213.333z"/>
	</g>
</g>
<g>
	<g>
		<path d="M401.067,145.067H384c-4.71,0-8.533,3.823-8.533,8.533c0,4.71,3.823,8.533,8.533,8.533h17.067
			c4.71,0,8.533-3.823,8.533-8.533C409.6,148.89,405.777,145.067,401.067,145.067z"/>
	</g>
</g>
<g>
	<g>
		<path d="M401.067,179.2H384c-4.71,0-8.533,3.823-8.533,8.533s3.823,8.533,8.533,8.533h17.067c4.71,0,8.533-3.823,8.533-8.533
			S405.777,179.2,401.067,179.2z"/>
	</g>
</g>
<g>
	<g>
		<path d="M469.333,213.333h-17.067c-4.71,0-8.533,3.823-8.533,8.533c0,4.71,3.823,8.533,8.533,8.533h17.067
			c4.71,0,8.533-3.823,8.533-8.533C477.867,217.156,474.044,213.333,469.333,213.333z"/>
	</g>
</g>
<g>
	<g>
		<path d="M469.333,145.067h-17.067c-4.71,0-8.533,3.823-8.533,8.533c0,4.71,3.823,8.533,8.533,8.533h17.067
			c4.71,0,8.533-3.823,8.533-8.533C477.867,148.89,474.044,145.067,469.333,145.067z"/>
	</g>
</g>
<g>
	<g>
		<path d="M469.333,179.2h-17.067c-4.71,0-8.533,3.823-8.533,8.533s3.823,8.533,8.533,8.533h17.067c4.71,0,8.533-3.823,8.533-8.533
			S474.044,179.2,469.333,179.2z"/>
	</g>
</g>
<g>
	<g>
		<path d="M469.333,247.467h-17.067c-4.71,0-8.533,3.823-8.533,8.533s3.823,8.533,8.533,8.533h17.067
			c4.71,0,8.533-3.823,8.533-8.533S474.044,247.467,469.333,247.467z"/>
	</g>
</g>
<g>
	<g>
		<path d="M469.333,281.6h-17.067c-4.71,0-8.533,3.823-8.533,8.533c0,4.71,3.823,8.533,8.533,8.533h17.067
			c4.71,0,8.533-3.823,8.533-8.533C477.867,285.423,474.044,281.6,469.333,281.6z"/>
	</g>
</g>
<g>
	<g>
		<path d="M401.067,247.467H384c-4.71,0-8.533,3.823-8.533,8.533s3.823,8.533,8.533,8.533h17.067c4.71,0,8.533-3.823,8.533-8.533
			S405.777,247.467,401.067,247.467z"/>
	</g>
</g>
<g>
	<g>
		<path d="M401.067,281.6H384c-4.71,0-8.533,3.823-8.533,8.533c0,4.71,3.823,8.533,8.533,8.533h17.067
			c4.71,0,8.533-3.823,8.533-8.533C409.6,285.423,405.777,281.6,401.067,281.6z"/>
	</g>
</g>
<g>
	<g>
		<path d="M469.333,315.733h-17.067c-4.71,0-8.533,3.823-8.533,8.533s3.823,8.533,8.533,8.533h17.067
			c4.71,0,8.533-3.823,8.533-8.533S474.044,315.733,469.333,315.733z"/>
	</g>
</g>
<g>
	<g>
		<path d="M401.067,315.733H384c-4.71,0-8.533,3.823-8.533,8.533S379.29,332.8,384,332.8h17.067c4.71,0,8.533-3.823,8.533-8.533
			S405.777,315.733,401.067,315.733z"/>
	</g>
</g>
<g>
	<g>
		<path d="M324.267,179.2h-85.333c-4.71,0-8.533,3.823-8.533,8.533v102.4c0,4.71,3.823,8.533,8.533,8.533h85.333
			c4.71,0,8.533-3.823,8.533-8.533v-102.4C332.8,183.023,328.977,179.2,324.267,179.2z M315.733,281.6h-68.267v-85.333h68.267V281.6
			z"/>
	</g>
</g>
<g>
	<g>
		<path d="M452.267,375.467H110.933c-4.71,0-8.533,3.823-8.533,8.533v59.733c0,4.71,3.823,8.533,8.533,8.533h341.333
			c4.71,0,8.533-3.823,8.533-8.533V384C460.8,379.29,456.977,375.467,452.267,375.467z M443.733,435.2H119.467v-42.667h324.267
			V435.2z"/>
	</g>
</g>
<g>
	<g>
		<path d="M145.067,409.6c-4.71,0-8.533,3.823-8.533,8.533v25.6c0,4.71,3.823,8.533,8.533,8.533c4.71,0,8.533-3.823,8.533-8.533
			v-25.6C153.6,413.423,149.777,409.6,145.067,409.6z"/>
	</g>
</g>
<g>
	<g>
		<path d="M247.467,409.6c-4.71,0-8.533,3.823-8.533,8.533v25.6c0,4.71,3.823,8.533,8.533,8.533s8.533-3.823,8.533-8.533v-25.6
			C256,413.423,252.177,409.6,247.467,409.6z"/>
	</g>
</g>
<g>
	<g>
		<path d="M213.333,409.6c-4.71,0-8.533,3.823-8.533,8.533v25.6c0,4.71,3.823,8.533,8.533,8.533c4.71,0,8.533-3.823,8.533-8.533
			v-25.6C221.867,413.423,218.044,409.6,213.333,409.6z"/>
	</g>
</g>
<g>
	<g>
		<path d="M179.2,409.6c-4.71,0-8.533,3.823-8.533,8.533v25.6c0,4.71,3.823,8.533,8.533,8.533s8.533-3.823,8.533-8.533v-25.6
			C187.733,413.423,183.91,409.6,179.2,409.6z"/>
	</g>
</g>
<g>
	<g>
		<path d="M281.6,409.6c-4.71,0-8.533,3.823-8.533,8.533v25.6c0,4.71,3.823,8.533,8.533,8.533s8.533-3.823,8.533-8.533v-25.6
			C290.133,413.423,286.31,409.6,281.6,409.6z"/>
	</g>
</g>
<g>
	<g>
		<path d="M384,409.6c-4.71,0-8.533,3.823-8.533,8.533v25.6c0,4.71,3.823,8.533,8.533,8.533s8.533-3.823,8.533-8.533v-25.6
			C392.533,413.423,388.71,409.6,384,409.6z"/>
	</g>
</g>
<g>
	<g>
		<path d="M418.133,409.6c-4.71,0-8.533,3.823-8.533,8.533v25.6c0,4.71,3.823,8.533,8.533,8.533s8.533-3.823,8.533-8.533v-25.6
			C426.667,413.423,422.844,409.6,418.133,409.6z"/>
	</g>
</g>
<g>
	<g>
		<path d="M349.867,409.6c-4.71,0-8.533,3.823-8.533,8.533v25.6c0,4.71,3.823,8.533,8.533,8.533s8.533-3.823,8.533-8.533v-25.6
			C358.4,413.423,354.577,409.6,349.867,409.6z"/>
	</g>
</g>
<g>
	<g>
		<path d="M315.733,409.6c-4.71,0-8.533,3.823-8.533,8.533v25.6c0,4.71,3.823,8.533,8.533,8.533s8.533-3.823,8.533-8.533v-25.6
			C324.267,413.423,320.444,409.6,315.733,409.6z"/>
	</g>
</g>
<g>
</g>
<g>
</g>
<g>
</g>
<g>
</g>
<g>
</g>
<g>
</g>
<g>
</g>
<g>
</g>
<g>
</g>
<g>
</g>
<g>
</g>
<g>
</g>
<g>
</g>
<g>
</g>
<g>
</g>
</svg>
