<?xml version="1.0" encoding="iso-8859-1"?>
<!-- Generator: Adobe Illustrator 19.0.0, SVG Export Plug-In . SVG Version: 6.00 Build 0)  -->
<svg version="1.1" id="Capa_1" xmlns="http://www.w3.org/2000/svg" xmlns:xlink="http://www.w3.org/1999/xlink" x="0px" y="0px"
	 viewBox="0 0 512 512" style="enable-background:new 0 0 512 512;" xml:space="preserve">
<g>
	<g>
		<path d="M162.133,59.733h-25.6c-4.71,0-8.533,3.823-8.533,8.533v25.6c0,4.71,3.823,8.533,8.533,8.533s8.533-3.823,8.533-8.533
			V76.8h17.067c4.71,0,8.533-3.823,8.533-8.533S166.844,59.733,162.133,59.733z"/>
	</g>
</g>
<g>
	<g>
		<path d="M353.741,0H124.134c-16.691,0-30.268,13.577-30.268,30.259v451.473c0,16.691,13.577,30.268,30.268,30.268h229.598
			C370.423,512,384,498.424,384,481.732V30.259C384,13.577,370.423,0,353.741,0z M366.933,481.732
			c0,7.279-5.922,13.201-13.193,13.201H124.134c-7.279,0-13.201-5.922-13.201-13.201V30.259c0-7.27,5.922-13.193,13.201-13.193
			h229.598c7.279,0,13.201,5.922,13.201,13.193V481.732z"/>
	</g>
</g>
<g>
	<g>
		<path d="M238.933,409.6c-18.825,0-34.133,15.309-34.133,34.133c0,18.825,15.309,34.133,34.133,34.133
			c18.825,0,34.133-15.309,34.133-34.133C273.067,424.909,257.758,409.6,238.933,409.6z M238.933,460.8
			c-9.412,0-17.067-7.654-17.067-17.067c0-9.412,7.654-17.067,17.067-17.067c9.412,0,17.067,7.654,17.067,17.067
			C256,453.146,248.346,460.8,238.933,460.8z"/>
	</g>
</g>
<g>
	<g>
		<path d="M264.533,34.133h-51.2c-4.71,0-8.533,3.823-8.533,8.533c0,4.71,3.823,8.533,8.533,8.533h51.2
			c4.71,0,8.533-3.823,8.533-8.533C273.067,37.956,269.244,34.133,264.533,34.133z"/>
	</g>
</g>
<g>
	<g>
		<path d="M387.866,0h-34.133v17.067c7.279,0,13.201,5.922,13.201,13.193v451.473c0,7.279-5.922,13.201-13.201,13.201V512h34.133
			c16.691,0,30.268-13.576,30.268-30.268V30.259C418.133,13.577,404.557,0,387.866,0z M401.067,481.732
			c0,7.279-5.922,13.201-13.193,13.201h-6.904c1.937-3.994,3.029-8.474,3.029-13.201V30.259c0-4.727-1.092-9.199-3.029-13.193h6.895
			c7.279,0,13.201,5.922,13.201,13.193V481.732z"/>
	</g>
</g>
<g>
	<g>
		<path d="M409.6,409.6h-93.867c-4.71,0-8.533,3.823-8.533,8.533s3.823,8.533,8.533,8.533H409.6c4.71,0,8.533-3.823,8.533-8.533
			S414.31,409.6,409.6,409.6z"/>
	</g>
</g>
<g>
	<g>
		<path d="M128,409.6h-25.6c-4.71,0-8.533,3.823-8.533,8.533s3.823,8.533,8.533,8.533H128c4.71,0,8.533-3.823,8.533-8.533
			S132.71,409.6,128,409.6z"/>
	</g>
</g>
<g>
</g>
<g>
</g>
<g>
</g>
<g>
</g>
<g>
</g>
<g>
</g>
<g>
</g>
<g>
</g>
<g>
</g>
<g>
</g>
<g>
</g>
<g>
</g>
<g>
</g>
<g>
</g>
<g>
</g>
</svg>
