<?xml version="1.0" encoding="iso-8859-1"?>
<!-- Generator: Adobe Illustrator 19.0.0, SVG Export Plug-In . SVG Version: 6.00 Build 0)  -->
<svg version="1.1" id="Capa_1" xmlns="http://www.w3.org/2000/svg" xmlns:xlink="http://www.w3.org/1999/xlink" x="0px" y="0px"
	 viewBox="0 0 512 512" style="enable-background:new 0 0 512 512;" xml:space="preserve">
<g>
	<g>
		<path d="M443.733,0H68.267c-4.71,0-8.533,3.823-8.533,8.533v392.533c0,4.71,3.823,8.533,8.533,8.533h375.467
			c4.71,0,8.533-3.823,8.533-8.533V8.533C452.267,3.823,448.444,0,443.733,0z M435.2,392.533H76.8V17.067h358.4V392.533z"/>
	</g>
</g>
<g>
	<g>
		<path d="M426.667,392.533H85.333c-4.71,0-8.533,3.823-8.533,8.533v102.4c0,4.71,3.823,8.533,8.533,8.533h341.333
			c4.71,0,8.533-3.823,8.533-8.533v-102.4C435.2,396.356,431.377,392.533,426.667,392.533z M418.133,494.933H93.867V409.6h324.267
			V494.933z"/>
	</g>
</g>
<g>
	<g>
		<path d="M392.533,392.533h-102.4c-4.71,0-8.533,3.823-8.533,8.533v68.267c0,4.71,3.823,8.533,8.533,8.533h102.4
			c4.71,0,8.533-3.823,8.533-8.533v-68.267C401.067,396.356,397.244,392.533,392.533,392.533z M384,460.8h-85.333v-51.2H384V460.8z"
			/>
	</g>
</g>
<g>
	<g>
		<path d="M358.4,426.667h-34.133c-4.71,0-8.533,3.823-8.533,8.533s3.823,8.533,8.533,8.533H358.4c4.71,0,8.533-3.823,8.533-8.533
			S363.11,426.667,358.4,426.667z"/>
	</g>
</g>
<g>
	<g>
		<path d="M401.067,42.667H110.933c-4.71,0-8.533,3.823-8.533,8.533v187.733c0,4.71,3.823,8.533,8.533,8.533h290.133
			c4.71,0,8.533-3.823,8.533-8.533V51.2C409.6,46.49,405.777,42.667,401.067,42.667z M392.533,230.4H119.467V59.733h273.067V230.4z"
			/>
	</g>
</g>
<g>
	<g>
		<path d="M136.533,298.667c-18.825,0-34.133,15.309-34.133,34.133c0,18.825,15.309,34.133,34.133,34.133
			s34.133-15.309,34.133-34.133C170.667,313.975,155.358,298.667,136.533,298.667z M136.533,349.867
			c-9.412,0-17.067-7.654-17.067-17.067c0-9.412,7.654-17.067,17.067-17.067S153.6,323.388,153.6,332.8
			C153.6,342.212,145.946,349.867,136.533,349.867z"/>
	</g>
</g>
<g>
	<g>
		<path d="M384,273.067h-51.2c-14.114,0-25.6,11.486-25.6,25.6s11.486,25.6,25.6,25.6H384c14.114,0,25.6-11.486,25.6-25.6
			S398.114,273.067,384,273.067z M384,307.2h-51.2c-4.702,0-8.533-3.831-8.533-8.533s3.831-8.533,8.533-8.533H384
			c4.702,0,8.533,3.831,8.533,8.533S388.702,307.2,384,307.2z"/>
	</g>
</g>
<g>
	<g>
		<path d="M315.733,290.133h-102.4c-4.71,0-8.533,3.823-8.533,8.533s3.823,8.533,8.533,8.533h102.4c4.71,0,8.533-3.823,8.533-8.533
			S320.444,290.133,315.733,290.133z"/>
	</g>
</g>
<g>
	<g>
		<path d="M219.366,130.5c-3.337-3.337-8.73-3.337-12.066,0l-17.067,17.067c-3.336,3.337-3.336,8.73,0,12.066
			c1.664,1.664,3.849,2.5,6.033,2.5s4.369-0.836,6.033-2.5l17.067-17.067C222.703,139.23,222.703,133.837,219.366,130.5z"/>
	</g>
</g>
<g>
	<g>
		<path d="M168.166,79.3c-3.337-3.337-8.73-3.337-12.066,0l-17.067,17.067c-3.336,3.337-3.336,8.73,0,12.066
			c1.664,1.664,3.849,2.5,6.033,2.5s4.369-0.836,6.033-2.5l17.067-17.067C171.503,88.03,171.503,82.637,168.166,79.3z"/>
	</g>
</g>
<g>
	<g>
		<path d="M219.366,79.3c-3.337-3.337-8.73-3.337-12.066,0l-68.267,68.267c-3.336,3.337-3.336,8.73,0,12.066
			c1.664,1.664,3.849,2.5,6.033,2.5s4.369-0.836,6.033-2.5l68.267-68.267C222.703,88.03,222.703,82.637,219.366,79.3z"/>
	</g>
</g>
<g>
</g>
<g>
</g>
<g>
</g>
<g>
</g>
<g>
</g>
<g>
</g>
<g>
</g>
<g>
</g>
<g>
</g>
<g>
</g>
<g>
</g>
<g>
</g>
<g>
</g>
<g>
</g>
<g>
</g>
</svg>
