<?xml version="1.0" encoding="iso-8859-1"?>
<!-- Generator: Adobe Illustrator 19.0.0, SVG Export Plug-In . SVG Version: 6.00 Build 0)  -->
<svg version="1.1" id="Capa_1" xmlns="http://www.w3.org/2000/svg" xmlns:xlink="http://www.w3.org/1999/xlink" x="0px" y="0px"
	 viewBox="0 0 512 512" style="enable-background:new 0 0 512 512;" xml:space="preserve">
<g>
	<g>
		<path d="M460.809,0h-85.342c-4.71,0-8.533,3.823-8.533,8.533v25.6H145.067v-25.6c0-4.71-3.823-8.533-8.533-8.533H51.191
			C22.963,0,0,22.963,0,51.191v409.617C0,489.037,22.963,512,51.191,512h85.342c4.71,0,8.533-3.823,8.533-8.533v-25.6h221.867v25.6
			c0,4.71,3.823,8.533,8.533,8.533h85.342C489.037,512,512,489.037,512,460.809V51.191C512,22.963,489.037,0,460.809,0z
			 M494.933,460.809c0,18.816-15.309,34.125-34.125,34.125H384v-25.6c0-4.71-3.823-8.533-8.533-8.533H136.533
			c-4.71,0-8.533,3.823-8.533,8.533v25.6H51.191c-18.816,0-34.125-15.309-34.125-34.125V51.191
			c0-18.816,15.309-34.125,34.125-34.125H128v25.6c0,4.71,3.823,8.533,8.533,8.533h238.933c4.71,0,8.533-3.823,8.533-8.533v-25.6
			h76.809c18.816,0,34.125,15.309,34.125,34.125V460.809z"/>
	</g>
</g>
<g>
	<g>
		<path d="M59.733,170.667h-51.2C3.823,170.667,0,174.49,0,179.2v153.6c0,4.71,3.823,8.533,8.533,8.533h51.2
			c4.71,0,8.533-3.823,8.533-8.533V179.2C68.267,174.49,64.444,170.667,59.733,170.667z M51.2,324.267H17.067V187.733H51.2V324.267z
			"/>
	</g>
</g>
<g>
	<g>
		<path d="M358.4,145.067H153.6c-4.71,0-8.533,3.823-8.533,8.533v187.733c0,4.71,3.823,8.533,8.533,8.533h204.8
			c4.71,0,8.533-3.823,8.533-8.533V153.6C366.933,148.89,363.11,145.067,358.4,145.067z M349.867,332.8H162.133V162.133h187.733
			V332.8z"/>
	</g>
</g>
<g>
	<g>
		<path d="M25.6,213.333H8.533c-4.71,0-8.533,3.823-8.533,8.533c0,4.71,3.823,8.533,8.533,8.533H25.6
			c4.71,0,8.533-3.823,8.533-8.533C34.133,217.156,30.31,213.333,25.6,213.333z"/>
	</g>
</g>
<g>
	<g>
		<path d="M25.6,247.467H8.533C3.823,247.467,0,251.29,0,256s3.823,8.533,8.533,8.533H25.6c4.71,0,8.533-3.823,8.533-8.533
			S30.31,247.467,25.6,247.467z"/>
	</g>
</g>
<g>
	<g>
		<path d="M25.6,281.6H8.533c-4.71,0-8.533,3.823-8.533,8.533s3.823,8.533,8.533,8.533H25.6c4.71,0,8.533-3.823,8.533-8.533
			S30.31,281.6,25.6,281.6z"/>
	</g>
</g>
<g>
	<g>
		<path d="M332.8,332.8H179.2c-4.71,0-8.533,3.823-8.533,8.533v34.133c0,4.71,3.823,8.533,8.533,8.533h153.6
			c4.71,0,8.533-3.823,8.533-8.533v-34.133C341.333,336.623,337.51,332.8,332.8,332.8z M324.267,366.933H187.733v-17.067h136.533
			V366.933z"/>
	</g>
</g>
<g>
	<g>
		<path d="M204.8,366.933c-4.71,0-8.533,3.823-8.533,8.533v17.067c0,4.71,3.823,8.533,8.533,8.533c4.71,0,8.533-3.823,8.533-8.533
			v-17.067C213.333,370.756,209.51,366.933,204.8,366.933z"/>
	</g>
</g>
<g>
	<g>
		<path d="M307.2,366.933c-4.71,0-8.533,3.823-8.533,8.533v17.067c0,4.71,3.823,8.533,8.533,8.533s8.533-3.823,8.533-8.533v-17.067
			C315.733,370.756,311.91,366.933,307.2,366.933z"/>
	</g>
</g>
<g>
	<g>
		<path d="M273.067,366.933c-4.71,0-8.533,3.823-8.533,8.533v17.067c0,4.71,3.823,8.533,8.533,8.533c4.71,0,8.533-3.823,8.533-8.533
			v-17.067C281.6,370.756,277.777,366.933,273.067,366.933z"/>
	</g>
</g>
<g>
	<g>
		<path d="M238.933,366.933c-4.71,0-8.533,3.823-8.533,8.533v17.067c0,4.71,3.823,8.533,8.533,8.533s8.533-3.823,8.533-8.533
			v-17.067C247.467,370.756,243.644,366.933,238.933,366.933z"/>
	</g>
</g>
<g>
	<g>
		<path d="M153.6,162.133h-34.133c-4.71,0-8.533,3.823-8.533,8.533v153.6c0,4.71,3.823,8.533,8.533,8.533H153.6
			c4.71,0,8.533-3.823,8.533-8.533v-153.6C162.133,165.956,158.31,162.133,153.6,162.133z M145.067,315.733H128V179.2h17.067
			V315.733z"/>
	</g>
</g>
<g>
	<g>
		<path d="M119.467,187.733H102.4c-4.71,0-8.533,3.823-8.533,8.533s3.823,8.533,8.533,8.533h17.067c4.71,0,8.533-3.823,8.533-8.533
			S124.177,187.733,119.467,187.733z"/>
	</g>
</g>
<g>
	<g>
		<path d="M119.467,290.133H102.4c-4.71,0-8.533,3.823-8.533,8.533s3.823,8.533,8.533,8.533h17.067c4.71,0,8.533-3.823,8.533-8.533
			S124.177,290.133,119.467,290.133z"/>
	</g>
</g>
<g>
	<g>
		<path d="M119.467,256H102.4c-4.71,0-8.533,3.823-8.533,8.533c0,4.71,3.823,8.533,8.533,8.533h17.067
			c4.71,0,8.533-3.823,8.533-8.533C128,259.823,124.177,256,119.467,256z"/>
	</g>
</g>
<g>
	<g>
		<path d="M119.467,221.867H102.4c-4.71,0-8.533,3.823-8.533,8.533s3.823,8.533,8.533,8.533h17.067c4.71,0,8.533-3.823,8.533-8.533
			S124.177,221.867,119.467,221.867z"/>
	</g>
</g>
<g>
	<g>
		<path d="M332.8,110.933H179.2c-4.71,0-8.533,3.823-8.533,8.533V153.6c0,4.71,3.823,8.533,8.533,8.533h153.6
			c4.71,0,8.533-3.823,8.533-8.533v-34.133C341.333,114.756,337.51,110.933,332.8,110.933z M324.267,145.067H187.733V128h136.533
			V145.067z"/>
	</g>
</g>
<g>
	<g>
		<path d="M307.2,93.867c-4.71,0-8.533,3.823-8.533,8.533v17.067c0,4.71,3.823,8.533,8.533,8.533s8.533-3.823,8.533-8.533V102.4
			C315.733,97.69,311.91,93.867,307.2,93.867z"/>
	</g>
</g>
<g>
	<g>
		<path d="M204.8,93.867c-4.71,0-8.533,3.823-8.533,8.533v17.067c0,4.71,3.823,8.533,8.533,8.533c4.71,0,8.533-3.823,8.533-8.533
			V102.4C213.333,97.69,209.51,93.867,204.8,93.867z"/>
	</g>
</g>
<g>
	<g>
		<path d="M238.933,93.867c-4.71,0-8.533,3.823-8.533,8.533v17.067c0,4.71,3.823,8.533,8.533,8.533s8.533-3.823,8.533-8.533V102.4
			C247.467,97.69,243.644,93.867,238.933,93.867z"/>
	</g>
</g>
<g>
	<g>
		<path d="M273.067,93.867c-4.71,0-8.533,3.823-8.533,8.533v17.067c0,4.71,3.823,8.533,8.533,8.533c4.71,0,8.533-3.823,8.533-8.533
			V102.4C281.6,97.69,277.777,93.867,273.067,93.867z"/>
	</g>
</g>
<g>
	<g>
		<path d="M392.533,162.133H358.4c-4.71,0-8.533,3.823-8.533,8.533v153.6c0,4.71,3.823,8.533,8.533,8.533h34.133
			c4.71,0,8.533-3.823,8.533-8.533v-153.6C401.067,165.956,397.244,162.133,392.533,162.133z M384,315.733h-17.067V179.2H384
			V315.733z"/>
	</g>
</g>
<g>
	<g>
		<path d="M409.6,290.133h-17.067c-4.71,0-8.533,3.823-8.533,8.533s3.823,8.533,8.533,8.533H409.6c4.71,0,8.533-3.823,8.533-8.533
			S414.31,290.133,409.6,290.133z"/>
	</g>
</g>
<g>
	<g>
		<path d="M409.6,187.733h-17.067c-4.71,0-8.533,3.823-8.533,8.533s3.823,8.533,8.533,8.533H409.6c4.71,0,8.533-3.823,8.533-8.533
			S414.31,187.733,409.6,187.733z"/>
	</g>
</g>
<g>
	<g>
		<path d="M409.6,221.867h-17.067c-4.71,0-8.533,3.823-8.533,8.533s3.823,8.533,8.533,8.533H409.6c4.71,0,8.533-3.823,8.533-8.533
			S414.31,221.867,409.6,221.867z"/>
	</g>
</g>
<g>
	<g>
		<path d="M409.6,256h-17.067c-4.71,0-8.533,3.823-8.533,8.533c0,4.71,3.823,8.533,8.533,8.533H409.6
			c4.71,0,8.533-3.823,8.533-8.533C418.133,259.823,414.31,256,409.6,256z"/>
	</g>
</g>
<g>
	<g>
		<path d="M76.8,34.133H42.667c-4.71,0-8.533,3.823-8.533,8.533V76.8c0,4.71,3.823,8.533,8.533,8.533H76.8
			c4.71,0,8.533-3.823,8.533-8.533V42.667C85.333,37.956,81.51,34.133,76.8,34.133z M68.267,68.267H51.2V51.2h17.067V68.267z"/>
	</g>
</g>
<g>
	<g>
		<path d="M469.333,34.133H435.2c-4.71,0-8.533,3.823-8.533,8.533V76.8c0,4.71,3.823,8.533,8.533,8.533h34.133
			c4.71,0,8.533-3.823,8.533-8.533V42.667C477.867,37.956,474.044,34.133,469.333,34.133z M460.8,68.267h-17.067V51.2H460.8V68.267z
			"/>
	</g>
</g>
<g>
	<g>
		<path d="M76.8,426.667H42.667c-4.71,0-8.533,3.823-8.533,8.533v34.133c0,4.71,3.823,8.533,8.533,8.533H76.8
			c4.71,0,8.533-3.823,8.533-8.533V435.2C85.333,430.49,81.51,426.667,76.8,426.667z M68.267,460.8H51.2v-17.067h17.067V460.8z"/>
	</g>
</g>
<g>
	<g>
		<path d="M469.333,426.667H435.2c-4.71,0-8.533,3.823-8.533,8.533v34.133c0,4.71,3.823,8.533,8.533,8.533h34.133
			c4.71,0,8.533-3.823,8.533-8.533V435.2C477.867,430.49,474.044,426.667,469.333,426.667z M460.8,460.8h-17.067v-17.067H460.8
			V460.8z"/>
	</g>
</g>
<g>
	<g>
		<path d="M314.581,202.351c-19.217-21.615-59.955-19.123-92.749,5.658c-19.345,14.618-32.009,34.551-33.86,53.333
			c-1.195,12.126,2.074,22.929,9.455,31.232c8.764,9.865,22.007,14.703,36.932,14.703c17.792,0,37.982-6.878,55.817-20.36
			c19.345-14.618,32.008-34.552,33.86-53.333C325.231,221.457,321.963,210.654,314.581,202.351z M307.038,231.91
			c-1.399,14.131-11.554,29.602-27.17,41.404c-24.883,18.799-56.798,22.451-69.692,7.936c-4.198-4.719-5.956-10.846-5.231-18.21
			c1.399-14.131,11.554-29.602,27.17-41.404c14.592-11.025,31.59-16.836,45.764-16.836c10.01,0,18.603,2.893,23.928,8.9
			C306.005,218.419,307.763,224.546,307.038,231.91z"/>
	</g>
</g>
<g>
	<g>
		<path d="M273.067,238.933h-34.133c-4.71,0-8.533,3.823-8.533,8.533s3.823,8.533,8.533,8.533h34.133
			c4.71,0,8.533-3.823,8.533-8.533S277.777,238.933,273.067,238.933z"/>
	</g>
</g>
<g>
	<g>
		<path d="M503.467,128H460.8c-4.71,0-8.533,3.823-8.533,8.533s3.823,8.533,8.533,8.533h42.667c4.71,0,8.533-3.823,8.533-8.533
			S508.177,128,503.467,128z"/>
	</g>
</g>
<g>
	<g>
		<path d="M460.8,102.4c-4.71,0-8.533,3.823-8.533,8.533v25.6c0,4.71,3.823,8.533,8.533,8.533s8.533-3.823,8.533-8.533v-25.6
			C469.333,106.223,465.51,102.4,460.8,102.4z"/>
	</g>
</g>
<g>
	<g>
		<path d="M460.8,128h-25.6c-4.71,0-8.533,3.823-8.533,8.533s3.823,8.533,8.533,8.533h25.6c4.71,0,8.533-3.823,8.533-8.533
			S465.51,128,460.8,128z"/>
	</g>
</g>
<g>
	<g>
		<path d="M503.467,187.733h-51.2c-4.71,0-8.533,3.823-8.533,8.533v51.2c0,4.71,3.823,8.533,8.533,8.533h51.2
			c4.71,0,8.533-3.823,8.533-8.533v-51.2C512,191.556,508.177,187.733,503.467,187.733z M494.933,238.933H460.8V204.8h34.133
			V238.933z"/>
	</g>
</g>
<g>
	<g>
		<path d="M503.467,298.667h-51.2c-4.71,0-8.533,3.823-8.533,8.533v85.333c0,4.71,3.823,8.533,8.533,8.533
			c4.71,0,8.533-3.823,8.533-8.533v-76.8h42.667c4.71,0,8.533-3.823,8.533-8.533S508.177,298.667,503.467,298.667z"/>
	</g>
</g>
<g>
	<g>
		<path d="M477.867,349.867h-25.6c-4.71,0-8.533,3.823-8.533,8.533s3.823,8.533,8.533,8.533h25.6c4.71,0,8.533-3.823,8.533-8.533
			S482.577,349.867,477.867,349.867z"/>
	</g>
</g>
<g>
</g>
<g>
</g>
<g>
</g>
<g>
</g>
<g>
</g>
<g>
</g>
<g>
</g>
<g>
</g>
<g>
</g>
<g>
</g>
<g>
</g>
<g>
</g>
<g>
</g>
<g>
</g>
<g>
</g>
</svg>
