<?xml version="1.0" encoding="iso-8859-1"?>
<!-- Generator: Adobe Illustrator 19.0.0, SVG Export Plug-In . SVG Version: 6.00 Build 0)  -->
<svg version="1.1" id="Capa_1" xmlns="http://www.w3.org/2000/svg" xmlns:xlink="http://www.w3.org/1999/xlink" x="0px" y="0px"
	 viewBox="0 0 512 512" style="enable-background:new 0 0 512 512;" xml:space="preserve">
<g>
	<g>
		<path d="M460.809,0H51.191C22.963,0,0,22.963,0,51.191v409.617C0,489.037,22.963,512,51.191,512h409.617
			C489.037,512,512,489.037,512,460.809V51.191C512,22.963,489.037,0,460.809,0z M494.933,460.809
			c0,18.816-15.309,34.125-34.125,34.125H51.191c-18.816,0-34.125-15.309-34.125-34.125V51.191
			c0-18.816,15.309-34.125,34.125-34.125h409.617c18.816,0,34.125,15.309,34.125,34.125V460.809z"/>
	</g>
</g>
<g>
	<g>
		<path d="M469.333,34.133h-204.8c-4.71,0-8.533,3.823-8.533,8.533v204.8c0,4.71,3.823,8.533,8.533,8.533h204.8
			c4.71,0,8.533-3.823,8.533-8.533v-204.8C477.867,37.956,474.044,34.133,469.333,34.133z M460.8,238.933H273.067V51.2H460.8
			V238.933z"/>
	</g>
</g>
<g>
	<g>
		<path d="M59.733,68.267h-51.2C3.823,68.267,0,72.09,0,76.8v153.6c0,4.71,3.823,8.533,8.533,8.533h51.2
			c4.71,0,8.533-3.823,8.533-8.533V76.8C68.267,72.09,64.444,68.267,59.733,68.267z M51.2,221.867H17.067V85.333H51.2V221.867z"/>
	</g>
</g>
<g>
	<g>
		<path d="M25.6,110.933H8.533c-4.71,0-8.533,3.823-8.533,8.533S3.823,128,8.533,128H25.6c4.71,0,8.533-3.823,8.533-8.533
			S30.31,110.933,25.6,110.933z"/>
	</g>
</g>
<g>
	<g>
		<path d="M25.6,145.067H8.533C3.823,145.067,0,148.89,0,153.6c0,4.71,3.823,8.533,8.533,8.533H25.6c4.71,0,8.533-3.823,8.533-8.533
			C34.133,148.89,30.31,145.067,25.6,145.067z"/>
	</g>
</g>
<g>
	<g>
		<path d="M25.6,179.2H8.533c-4.71,0-8.533,3.823-8.533,8.533s3.823,8.533,8.533,8.533H25.6c4.71,0,8.533-3.823,8.533-8.533
			S30.31,179.2,25.6,179.2z"/>
	</g>
</g>
<g>
	<g>
		<path d="M59.733,315.733h-51.2c-4.71,0-8.533,3.823-8.533,8.533v119.467c0,4.71,3.823,8.533,8.533,8.533h51.2
			c4.71,0,8.533-3.823,8.533-8.533V324.267C68.267,319.556,64.444,315.733,59.733,315.733z M51.2,435.2H17.067V332.8H51.2V435.2z"/>
	</g>
</g>
<g>
	<g>
		<path d="M25.6,358.4H8.533c-4.71,0-8.533,3.823-8.533,8.533s3.823,8.533,8.533,8.533H25.6c4.71,0,8.533-3.823,8.533-8.533
			S30.31,358.4,25.6,358.4z"/>
	</g>
</g>
<g>
	<g>
		<path d="M25.6,392.533H8.533c-4.71,0-8.533,3.823-8.533,8.533s3.823,8.533,8.533,8.533H25.6c4.71,0,8.533-3.823,8.533-8.533
			S30.31,392.533,25.6,392.533z"/>
	</g>
</g>
<g>
	<g>
		<path d="M401.067,68.267c-4.71,0-8.533,3.823-8.533,8.533v17.067c0,4.71,3.823,8.533,8.533,8.533s8.533-3.823,8.533-8.533V76.8
			C409.6,72.09,405.777,68.267,401.067,68.267z"/>
	</g>
</g>
<g>
	<g>
		<path d="M332.8,68.267c-4.71,0-8.533,3.823-8.533,8.533v17.067c0,4.71,3.823,8.533,8.533,8.533c4.71,0,8.533-3.823,8.533-8.533
			V76.8C341.333,72.09,337.51,68.267,332.8,68.267z"/>
	</g>
</g>
<g>
	<g>
		<path d="M366.933,68.267c-4.71,0-8.533,3.823-8.533,8.533v17.067c0,4.71,3.823,8.533,8.533,8.533s8.533-3.823,8.533-8.533V76.8
			C375.467,72.09,371.644,68.267,366.933,68.267z"/>
	</g>
</g>
<g>
	<g>
		<path d="M366.933,187.733c-4.71,0-8.533,3.823-8.533,8.533v17.067c0,4.71,3.823,8.533,8.533,8.533s8.533-3.823,8.533-8.533
			v-17.067C375.467,191.556,371.644,187.733,366.933,187.733z"/>
	</g>
</g>
<g>
	<g>
		<path d="M401.067,187.733c-4.71,0-8.533,3.823-8.533,8.533v17.067c0,4.71,3.823,8.533,8.533,8.533s8.533-3.823,8.533-8.533
			v-17.067C409.6,191.556,405.777,187.733,401.067,187.733z"/>
	</g>
</g>
<g>
	<g>
		<path d="M332.8,187.733c-4.71,0-8.533,3.823-8.533,8.533v17.067c0,4.71,3.823,8.533,8.533,8.533c4.71,0,8.533-3.823,8.533-8.533
			v-17.067C341.333,191.556,337.51,187.733,332.8,187.733z"/>
	</g>
</g>
<g>
	<g>
		<path d="M315.733,136.533h-17.067c-4.71,0-8.533,3.823-8.533,8.533c0,4.71,3.823,8.533,8.533,8.533h17.067
			c4.71,0,8.533-3.823,8.533-8.533C324.267,140.356,320.444,136.533,315.733,136.533z"/>
	</g>
</g>
<g>
	<g>
		<path d="M315.733,102.4h-17.067c-4.71,0-8.533,3.823-8.533,8.533s3.823,8.533,8.533,8.533h17.067c4.71,0,8.533-3.823,8.533-8.533
			S320.444,102.4,315.733,102.4z"/>
	</g>
</g>
<g>
	<g>
		<path d="M315.733,170.667h-17.067c-4.71,0-8.533,3.823-8.533,8.533s3.823,8.533,8.533,8.533h17.067
			c4.71,0,8.533-3.823,8.533-8.533S320.444,170.667,315.733,170.667z"/>
	</g>
</g>
<g>
	<g>
		<path d="M435.2,136.533h-17.067c-4.71,0-8.533,3.823-8.533,8.533c0,4.71,3.823,8.533,8.533,8.533H435.2
			c4.71,0,8.533-3.823,8.533-8.533C443.733,140.356,439.91,136.533,435.2,136.533z"/>
	</g>
</g>
<g>
	<g>
		<path d="M435.2,102.4h-17.067c-4.71,0-8.533,3.823-8.533,8.533s3.823,8.533,8.533,8.533H435.2c4.71,0,8.533-3.823,8.533-8.533
			S439.91,102.4,435.2,102.4z"/>
	</g>
</g>
<g>
	<g>
		<path d="M435.2,170.667h-17.067c-4.71,0-8.533,3.823-8.533,8.533s3.823,8.533,8.533,8.533H435.2c4.71,0,8.533-3.823,8.533-8.533
			S439.91,170.667,435.2,170.667z"/>
	</g>
</g>
<g>
	<g>
		<path d="M418.133,85.333h-102.4c-4.71,0-8.533,3.823-8.533,8.533v102.4c0,4.71,3.823,8.533,8.533,8.533h102.4
			c4.71,0,8.533-3.823,8.533-8.533v-102.4C426.667,89.156,422.844,85.333,418.133,85.333z M409.6,187.733h-85.333V102.4H409.6
			V187.733z"/>
	</g>
</g>
<g>
	<g>
		<path d="M384,119.467h-34.133c-4.71,0-8.533,3.823-8.533,8.533v34.133c0,4.71,3.823,8.533,8.533,8.533H384
			c4.71,0,8.533-3.823,8.533-8.533V128C392.533,123.29,388.71,119.467,384,119.467z M375.467,153.6H358.4v-17.067h17.067V153.6z"/>
	</g>
</g>
<g>
	<g>
		<path d="M204.8,34.133c-4.71,0-8.533,3.823-8.533,8.533v204.8c0,4.71,3.823,8.533,8.533,8.533c4.71,0,8.533-3.823,8.533-8.533
			v-204.8C213.333,37.956,209.51,34.133,204.8,34.133z"/>
	</g>
</g>
<g>
	<g>
		<path d="M221.867,51.2h-34.133c-4.71,0-8.533,3.823-8.533,8.533s3.823,8.533,8.533,8.533h34.133c4.71,0,8.533-3.823,8.533-8.533
			S226.577,51.2,221.867,51.2z"/>
	</g>
</g>
<g>
	<g>
		<path d="M221.867,221.867h-34.133c-4.71,0-8.533,3.823-8.533,8.533s3.823,8.533,8.533,8.533h34.133
			c4.71,0,8.533-3.823,8.533-8.533S226.577,221.867,221.867,221.867z"/>
	</g>
</g>
<g>
	<g>
		<path d="M221.867,187.733h-34.133c-4.71,0-8.533,3.823-8.533,8.533s3.823,8.533,8.533,8.533h34.133
			c4.71,0,8.533-3.823,8.533-8.533S226.577,187.733,221.867,187.733z"/>
	</g>
</g>
<g>
	<g>
		<path d="M221.867,153.6h-34.133c-4.71,0-8.533,3.823-8.533,8.533c0,4.71,3.823,8.533,8.533,8.533h34.133
			c4.71,0,8.533-3.823,8.533-8.533C230.4,157.423,226.577,153.6,221.867,153.6z"/>
	</g>
</g>
<g>
	<g>
		<path d="M221.867,119.467h-34.133c-4.71,0-8.533,3.823-8.533,8.533s3.823,8.533,8.533,8.533h34.133
			c4.71,0,8.533-3.823,8.533-8.533S226.577,119.467,221.867,119.467z"/>
	</g>
</g>
<g>
	<g>
		<path d="M221.867,85.333h-34.133c-4.71,0-8.533,3.823-8.533,8.533c0,4.71,3.823,8.533,8.533,8.533h34.133
			c4.71,0,8.533-3.823,8.533-8.533C230.4,89.156,226.577,85.333,221.867,85.333z"/>
	</g>
</g>
<g>
	<g>
		<path d="M119.467,34.133c-4.71,0-8.533,3.823-8.533,8.533v204.8c0,4.71,3.823,8.533,8.533,8.533s8.533-3.823,8.533-8.533v-204.8
			C128,37.956,124.177,34.133,119.467,34.133z"/>
	</g>
</g>
<g>
	<g>
		<path d="M136.533,51.2H102.4c-4.71,0-8.533,3.823-8.533,8.533s3.823,8.533,8.533,8.533h34.133c4.71,0,8.533-3.823,8.533-8.533
			S141.244,51.2,136.533,51.2z"/>
	</g>
</g>
<g>
	<g>
		<path d="M136.533,221.867H102.4c-4.71,0-8.533,3.823-8.533,8.533s3.823,8.533,8.533,8.533h34.133c4.71,0,8.533-3.823,8.533-8.533
			S141.244,221.867,136.533,221.867z"/>
	</g>
</g>
<g>
	<g>
		<path d="M136.533,187.733H102.4c-4.71,0-8.533,3.823-8.533,8.533s3.823,8.533,8.533,8.533h34.133c4.71,0,8.533-3.823,8.533-8.533
			S141.244,187.733,136.533,187.733z"/>
	</g>
</g>
<g>
	<g>
		<path d="M136.533,153.6H102.4c-4.71,0-8.533,3.823-8.533,8.533c0,4.71,3.823,8.533,8.533,8.533h34.133
			c4.71,0,8.533-3.823,8.533-8.533C145.067,157.423,141.244,153.6,136.533,153.6z"/>
	</g>
</g>
<g>
	<g>
		<path d="M136.533,119.467H102.4c-4.71,0-8.533,3.823-8.533,8.533s3.823,8.533,8.533,8.533h34.133c4.71,0,8.533-3.823,8.533-8.533
			S141.244,119.467,136.533,119.467z"/>
	</g>
</g>
<g>
	<g>
		<path d="M136.533,85.333H102.4c-4.71,0-8.533,3.823-8.533,8.533c0,4.71,3.823,8.533,8.533,8.533h34.133
			c4.71,0,8.533-3.823,8.533-8.533C145.067,89.156,141.244,85.333,136.533,85.333z"/>
	</g>
</g>
<g>
	<g>
		<path d="M469.333,307.2H93.867c-4.71,0-8.533,3.823-8.533,8.533v34.133c0,4.71,3.823,8.533,8.533,8.533h375.467
			c4.71,0,8.533-3.823,8.533-8.533v-34.133C477.867,311.023,474.044,307.2,469.333,307.2z M460.8,341.333H102.4v-17.067h358.4
			V341.333z"/>
	</g>
</g>
<g>
	<g>
		<path d="M469.333,409.6H93.867c-4.71,0-8.533,3.823-8.533,8.533v34.133c0,4.71,3.823,8.533,8.533,8.533h375.467
			c4.71,0,8.533-3.823,8.533-8.533v-34.133C477.867,413.423,474.044,409.6,469.333,409.6z M460.8,443.733H102.4v-17.067h358.4
			V443.733z"/>
	</g>
</g>
<g>
	<g>
		<path d="M128,290.133c-4.71,0-8.533,3.823-8.533,8.533v68.267c0,4.71,3.823,8.533,8.533,8.533s8.533-3.823,8.533-8.533v-68.267
			C136.533,293.956,132.71,290.133,128,290.133z"/>
	</g>
</g>
<g>
	<g>
		<path d="M435.2,290.133c-4.71,0-8.533,3.823-8.533,8.533v68.267c0,4.71,3.823,8.533,8.533,8.533s8.533-3.823,8.533-8.533v-68.267
			C443.733,293.956,439.91,290.133,435.2,290.133z"/>
	</g>
</g>
<g>
	<g>
		<path d="M128,392.533c-4.71,0-8.533,3.823-8.533,8.533v68.267c0,4.71,3.823,8.533,8.533,8.533s8.533-3.823,8.533-8.533v-68.267
			C136.533,396.356,132.71,392.533,128,392.533z"/>
	</g>
</g>
<g>
	<g>
		<path d="M435.2,392.533c-4.71,0-8.533,3.823-8.533,8.533v68.267c0,4.71,3.823,8.533,8.533,8.533s8.533-3.823,8.533-8.533v-68.267
			C443.733,396.356,439.91,392.533,435.2,392.533z"/>
	</g>
</g>
<g>
</g>
<g>
</g>
<g>
</g>
<g>
</g>
<g>
</g>
<g>
</g>
<g>
</g>
<g>
</g>
<g>
</g>
<g>
</g>
<g>
</g>
<g>
</g>
<g>
</g>
<g>
</g>
<g>
</g>
</svg>
