<?xml version="1.0" encoding="iso-8859-1"?>
<!-- Generator: Adobe Illustrator 19.0.0, SVG Export Plug-In . SVG Version: 6.00 Build 0)  -->
<svg version="1.1" id="Capa_1" xmlns="http://www.w3.org/2000/svg" xmlns:xlink="http://www.w3.org/1999/xlink" x="0px" y="0px"
	 viewBox="0 0 512 512" style="enable-background:new 0 0 512 512;" xml:space="preserve">
<g>
	<g>
		<path d="M503.467,93.867H59.733c-4.71,0-8.533,3.823-8.533,8.533V384c0,4.71,3.823,8.533,8.533,8.533h443.733
			c4.71,0,8.533-3.823,8.533-8.533V102.4C512,97.69,508.177,93.867,503.467,93.867z M494.933,375.467H68.267V110.933h426.667
			V375.467z"/>
	</g>
</g>
<g>
	<g>
		<path d="M59.733,59.733h-51.2C3.823,59.733,0,63.556,0,68.267S3.823,76.8,8.533,76.8h51.2c4.71,0,8.533-3.823,8.533-8.533
			S64.444,59.733,59.733,59.733z"/>
	</g>
</g>
<g>
	<g>
		<path d="M59.733,59.733c-4.71,0-8.533,3.823-8.533,8.533v375.467c0,4.71,3.823,8.533,8.533,8.533s8.533-3.823,8.533-8.533V68.267
			C68.267,63.556,64.444,59.733,59.733,59.733z"/>
	</g>
</g>
<g>
	<g>
		<path d="M59.733,119.467H25.6c-4.71,0-8.533,3.823-8.533,8.533v51.2c0,4.71,3.823,8.533,8.533,8.533h34.133
			c4.71,0,8.533-3.823,8.533-8.533V128C68.267,123.29,64.444,119.467,59.733,119.467z M51.2,170.667H34.133v-34.133H51.2V170.667z"
			/>
	</g>
</g>
<g>
	<g>
		<path d="M59.733,213.333H25.6c-4.71,0-8.533,3.823-8.533,8.533v51.2c0,4.71,3.823,8.533,8.533,8.533h34.133
			c4.71,0,8.533-3.823,8.533-8.533v-51.2C68.267,217.156,64.444,213.333,59.733,213.333z M51.2,264.533H34.133V230.4H51.2V264.533z"
			/>
	</g>
</g>
<g>
	<g>
		<path d="M204.8,145.067H102.4c-4.71,0-8.533,3.823-8.533,8.533v51.2c0,4.71,3.823,8.533,8.533,8.533h102.4
			c4.71,0,8.533-3.823,8.533-8.533v-51.2C213.333,148.89,209.51,145.067,204.8,145.067z M196.267,196.267h-85.333v-34.133h85.333
			V196.267z"/>
	</g>
</g>
<g>
	<g>
		<path d="M119.467,128c-4.71,0-8.533,3.823-8.533,8.533V153.6c0,4.71,3.823,8.533,8.533,8.533S128,158.31,128,153.6v-17.067
			C128,131.823,124.177,128,119.467,128z"/>
	</g>
</g>
<g>
	<g>
		<path d="M187.733,128c-4.71,0-8.533,3.823-8.533,8.533V153.6c0,4.71,3.823,8.533,8.533,8.533s8.533-3.823,8.533-8.533v-17.067
			C196.267,131.823,192.444,128,187.733,128z"/>
	</g>
</g>
<g>
	<g>
		<path d="M153.6,128c-4.71,0-8.533,3.823-8.533,8.533V153.6c0,4.71,3.823,8.533,8.533,8.533c4.71,0,8.533-3.823,8.533-8.533
			v-17.067C162.133,131.823,158.31,128,153.6,128z"/>
	</g>
</g>
<g>
	<g>
		<path d="M119.467,196.267c-4.71,0-8.533,3.823-8.533,8.533v17.067c0,4.71,3.823,8.533,8.533,8.533s8.533-3.823,8.533-8.533V204.8
			C128,200.09,124.177,196.267,119.467,196.267z"/>
	</g>
</g>
<g>
	<g>
		<path d="M187.733,196.267c-4.71,0-8.533,3.823-8.533,8.533v17.067c0,4.71,3.823,8.533,8.533,8.533s8.533-3.823,8.533-8.533V204.8
			C196.267,200.09,192.444,196.267,187.733,196.267z"/>
	</g>
</g>
<g>
	<g>
		<path d="M153.6,196.267c-4.71,0-8.533,3.823-8.533,8.533v17.067c0,4.71,3.823,8.533,8.533,8.533c4.71,0,8.533-3.823,8.533-8.533
			V204.8C162.133,200.09,158.31,196.267,153.6,196.267z"/>
	</g>
</g>
<g>
	<g>
		<path d="M204.8,273.067H102.4c-4.71,0-8.533,3.823-8.533,8.533v51.2c0,4.71,3.823,8.533,8.533,8.533h102.4
			c4.71,0,8.533-3.823,8.533-8.533v-51.2C213.333,276.89,209.51,273.067,204.8,273.067z M196.267,324.267h-85.333v-34.133h85.333
			V324.267z"/>
	</g>
</g>
<g>
	<g>
		<path d="M119.467,256c-4.71,0-8.533,3.823-8.533,8.533V281.6c0,4.71,3.823,8.533,8.533,8.533S128,286.31,128,281.6v-17.067
			C128,259.823,124.177,256,119.467,256z"/>
	</g>
</g>
<g>
	<g>
		<path d="M187.733,256c-4.71,0-8.533,3.823-8.533,8.533V281.6c0,4.71,3.823,8.533,8.533,8.533s8.533-3.823,8.533-8.533v-17.067
			C196.267,259.823,192.444,256,187.733,256z"/>
	</g>
</g>
<g>
	<g>
		<path d="M153.6,256c-4.71,0-8.533,3.823-8.533,8.533V281.6c0,4.71,3.823,8.533,8.533,8.533c4.71,0,8.533-3.823,8.533-8.533
			v-17.067C162.133,259.823,158.31,256,153.6,256z"/>
	</g>
</g>
<g>
	<g>
		<path d="M119.467,324.267c-4.71,0-8.533,3.823-8.533,8.533v17.067c0,4.71,3.823,8.533,8.533,8.533s8.533-3.823,8.533-8.533V332.8
			C128,328.09,124.177,324.267,119.467,324.267z"/>
	</g>
</g>
<g>
	<g>
		<path d="M187.733,324.267c-4.71,0-8.533,3.823-8.533,8.533v17.067c0,4.71,3.823,8.533,8.533,8.533s8.533-3.823,8.533-8.533V332.8
			C196.267,328.09,192.444,324.267,187.733,324.267z"/>
	</g>
</g>
<g>
	<g>
		<path d="M153.6,324.267c-4.71,0-8.533,3.823-8.533,8.533v17.067c0,4.71,3.823,8.533,8.533,8.533c4.71,0,8.533-3.823,8.533-8.533
			V332.8C162.133,328.09,158.31,324.267,153.6,324.267z"/>
	</g>
</g>
<g>
	<g>
		<path d="M460.8,145.067H358.4c-4.71,0-8.533,3.823-8.533,8.533v51.2c0,4.71,3.823,8.533,8.533,8.533h102.4
			c4.71,0,8.533-3.823,8.533-8.533v-51.2C469.333,148.89,465.51,145.067,460.8,145.067z M452.267,196.267h-85.333v-34.133h85.333
			V196.267z"/>
	</g>
</g>
<g>
	<g>
		<path d="M375.467,128c-4.71,0-8.533,3.823-8.533,8.533V153.6c0,4.71,3.823,8.533,8.533,8.533S384,158.31,384,153.6v-17.067
			C384,131.823,380.177,128,375.467,128z"/>
	</g>
</g>
<g>
	<g>
		<path d="M443.733,128c-4.71,0-8.533,3.823-8.533,8.533V153.6c0,4.71,3.823,8.533,8.533,8.533s8.533-3.823,8.533-8.533v-17.067
			C452.267,131.823,448.444,128,443.733,128z"/>
	</g>
</g>
<g>
	<g>
		<path d="M409.6,128c-4.71,0-8.533,3.823-8.533,8.533V153.6c0,4.71,3.823,8.533,8.533,8.533s8.533-3.823,8.533-8.533v-17.067
			C418.133,131.823,414.31,128,409.6,128z"/>
	</g>
</g>
<g>
	<g>
		<path d="M375.467,196.267c-4.71,0-8.533,3.823-8.533,8.533v17.067c0,4.71,3.823,8.533,8.533,8.533s8.533-3.823,8.533-8.533V204.8
			C384,200.09,380.177,196.267,375.467,196.267z"/>
	</g>
</g>
<g>
	<g>
		<path d="M443.733,196.267c-4.71,0-8.533,3.823-8.533,8.533v17.067c0,4.71,3.823,8.533,8.533,8.533s8.533-3.823,8.533-8.533V204.8
			C452.267,200.09,448.444,196.267,443.733,196.267z"/>
	</g>
</g>
<g>
	<g>
		<path d="M409.6,196.267c-4.71,0-8.533,3.823-8.533,8.533v17.067c0,4.71,3.823,8.533,8.533,8.533s8.533-3.823,8.533-8.533V204.8
			C418.133,200.09,414.31,196.267,409.6,196.267z"/>
	</g>
</g>
<g>
	<g>
		<path d="M460.8,273.067H358.4c-4.71,0-8.533,3.823-8.533,8.533v51.2c0,4.71,3.823,8.533,8.533,8.533h102.4
			c4.71,0,8.533-3.823,8.533-8.533v-51.2C469.333,276.89,465.51,273.067,460.8,273.067z M452.267,324.267h-85.333v-34.133h85.333
			V324.267z"/>
	</g>
</g>
<g>
	<g>
		<path d="M375.467,256c-4.71,0-8.533,3.823-8.533,8.533V281.6c0,4.71,3.823,8.533,8.533,8.533S384,286.31,384,281.6v-17.067
			C384,259.823,380.177,256,375.467,256z"/>
	</g>
</g>
<g>
	<g>
		<path d="M443.733,256c-4.71,0-8.533,3.823-8.533,8.533V281.6c0,4.71,3.823,8.533,8.533,8.533s8.533-3.823,8.533-8.533v-17.067
			C452.267,259.823,448.444,256,443.733,256z"/>
	</g>
</g>
<g>
	<g>
		<path d="M409.6,256c-4.71,0-8.533,3.823-8.533,8.533V281.6c0,4.71,3.823,8.533,8.533,8.533s8.533-3.823,8.533-8.533v-17.067
			C418.133,259.823,414.31,256,409.6,256z"/>
	</g>
</g>
<g>
	<g>
		<path d="M375.467,324.267c-4.71,0-8.533,3.823-8.533,8.533v17.067c0,4.71,3.823,8.533,8.533,8.533s8.533-3.823,8.533-8.533V332.8
			C384,328.09,380.177,324.267,375.467,324.267z"/>
	</g>
</g>
<g>
	<g>
		<path d="M443.733,324.267c-4.71,0-8.533,3.823-8.533,8.533v17.067c0,4.71,3.823,8.533,8.533,8.533s8.533-3.823,8.533-8.533V332.8
			C452.267,328.09,448.444,324.267,443.733,324.267z"/>
	</g>
</g>
<g>
	<g>
		<path d="M409.6,324.267c-4.71,0-8.533,3.823-8.533,8.533v17.067c0,4.71,3.823,8.533,8.533,8.533s8.533-3.823,8.533-8.533V332.8
			C418.133,328.09,414.31,324.267,409.6,324.267z"/>
	</g>
</g>
<g>
	<g>
		<path d="M315.733,375.467H128c-4.71,0-8.533,3.823-8.533,8.533v59.733c0,4.71,3.823,8.533,8.533,8.533h187.733
			c4.71,0,8.533-3.823,8.533-8.533V384C324.267,379.29,320.444,375.467,315.733,375.467z M307.2,435.2H136.533v-42.667H307.2V435.2z
			"/>
	</g>
</g>
<g>
	<g>
		<path d="M170.667,409.6c-4.71,0-8.533,3.823-8.533,8.533v25.6c0,4.71,3.823,8.533,8.533,8.533s8.533-3.823,8.533-8.533v-25.6
			C179.2,413.423,175.377,409.6,170.667,409.6z"/>
	</g>
</g>
<g>
	<g>
		<path d="M273.067,409.6c-4.71,0-8.533,3.823-8.533,8.533v25.6c0,4.71,3.823,8.533,8.533,8.533c4.71,0,8.533-3.823,8.533-8.533
			v-25.6C281.6,413.423,277.777,409.6,273.067,409.6z"/>
	</g>
</g>
<g>
	<g>
		<path d="M401.067,409.6c-4.71,0-8.533,3.823-8.533,8.533v25.6c0,4.71,3.823,8.533,8.533,8.533s8.533-3.823,8.533-8.533v-25.6
			C409.6,413.423,405.777,409.6,401.067,409.6z"/>
	</g>
</g>
<g>
	<g>
		<path d="M238.933,409.6c-4.71,0-8.533,3.823-8.533,8.533v25.6c0,4.71,3.823,8.533,8.533,8.533s8.533-3.823,8.533-8.533v-25.6
			C247.467,413.423,243.644,409.6,238.933,409.6z"/>
	</g>
</g>
<g>
	<g>
		<path d="M204.8,409.6c-4.71,0-8.533,3.823-8.533,8.533v25.6c0,4.71,3.823,8.533,8.533,8.533c4.71,0,8.533-3.823,8.533-8.533v-25.6
			C213.333,413.423,209.51,409.6,204.8,409.6z"/>
	</g>
</g>
<g>
	<g>
		<path d="M324.267,145.067h-85.333c-4.71,0-8.533,3.823-8.533,8.533c0,4.71,3.823,8.533,8.533,8.533h85.333
			c4.71,0,8.533-3.823,8.533-8.533C332.8,148.89,328.977,145.067,324.267,145.067z"/>
	</g>
</g>
<g>
	<g>
		<path d="M324.267,196.267h-85.333c-4.71,0-8.533,3.823-8.533,8.533s3.823,8.533,8.533,8.533h85.333
			c4.71,0,8.533-3.823,8.533-8.533S328.977,196.267,324.267,196.267z"/>
	</g>
</g>
<g>
	<g>
		<path d="M324.267,273.067h-85.333c-4.71,0-8.533,3.823-8.533,8.533c0,4.71,3.823,8.533,8.533,8.533h85.333
			c4.71,0,8.533-3.823,8.533-8.533C332.8,276.89,328.977,273.067,324.267,273.067z"/>
	</g>
</g>
<g>
	<g>
		<path d="M324.267,324.267h-85.333c-4.71,0-8.533,3.823-8.533,8.533s3.823,8.533,8.533,8.533h85.333
			c4.71,0,8.533-3.823,8.533-8.533C332.8,328.09,328.977,324.267,324.267,324.267z"/>
	</g>
</g>
<g>
	<g>
		<path d="M435.2,375.467h-68.267c-4.71,0-8.533,3.823-8.533,8.533v59.733c0,4.71,3.823,8.533,8.533,8.533H435.2
			c4.71,0,8.533-3.823,8.533-8.533V384C443.733,379.29,439.91,375.467,435.2,375.467z M426.667,435.2h-51.2v-42.667h51.2V435.2z"/>
	</g>
</g>
<g>
</g>
<g>
</g>
<g>
</g>
<g>
</g>
<g>
</g>
<g>
</g>
<g>
</g>
<g>
</g>
<g>
</g>
<g>
</g>
<g>
</g>
<g>
</g>
<g>
</g>
<g>
</g>
<g>
</g>
</svg>
