<?xml version="1.0" encoding="iso-8859-1"?>
<!-- Generator: Adobe Illustrator 19.0.0, SVG Export Plug-In . SVG Version: 6.00 Build 0)  -->
<svg version="1.1" id="Capa_1" xmlns="http://www.w3.org/2000/svg" xmlns:xlink="http://www.w3.org/1999/xlink" x="0px" y="0px"
	 viewBox="0 0 512 512" style="enable-background:new 0 0 512 512;" xml:space="preserve">
<g>
	<g>
		<path d="M452.284,0H59.725C26.795,0,0,26.795,0,59.725v290.15c0,32.93,26.795,59.725,59.725,59.725h392.55
			c32.93,0,59.725-26.795,59.725-59.716V59.725C512,26.795,485.205,0,452.284,0z M494.933,349.875
			c0,23.526-19.132,42.658-42.65,42.658H59.725c-23.526,0-42.658-19.132-42.658-42.65V59.725c0-23.526,19.132-42.658,42.658-42.658
			h392.55c23.526,0,42.658,19.132,42.658,42.658V349.875z"/>
	</g>
</g>
<g>
	<g>
		<path d="M435.2,426.667H76.8c-14.114,0-25.6,11.486-25.6,25.6c0,14.114,11.486,25.6,25.6,25.6h358.4
			c14.114,0,25.6-11.486,25.6-25.6C460.8,438.153,449.314,426.667,435.2,426.667z M435.2,460.8H76.8
			c-4.71,0-8.533-3.831-8.533-8.533c0-4.702,3.823-8.533,8.533-8.533h358.4c4.71,0,8.533,3.831,8.533,8.533
			C443.733,456.969,439.91,460.8,435.2,460.8z"/>
	</g>
</g>
<g>
	<g>
		<path d="M256,145.067c-37.641,0-68.267,30.626-68.267,68.267c0,37.641,30.626,68.267,68.267,68.267
			c37.641,0,68.267-30.626,68.267-68.267C324.267,175.693,293.641,145.067,256,145.067z M256,264.533
			c-28.228,0-51.2-22.963-51.2-51.2c0-28.237,22.972-51.2,51.2-51.2s51.2,22.963,51.2,51.2
			C307.2,241.57,284.228,264.533,256,264.533z"/>
	</g>
</g>
<g>
	<g>
		<path d="M281.6,204.8c-4.71,0-8.533,3.823-8.533,8.533c0,9.412-7.654,17.067-17.067,17.067c-9.412,0-17.067-7.654-17.067-17.067
			c0-9.412,7.654-17.067,17.067-17.067c4.71,0,8.533-3.823,8.533-8.533S260.71,179.2,256,179.2
			c-18.825,0-34.133,15.309-34.133,34.133c0,18.825,15.309,34.133,34.133,34.133c18.825,0,34.133-15.309,34.133-34.133
			C290.133,208.623,286.31,204.8,281.6,204.8z"/>
	</g>
</g>
<g>
	<g>
		<path d="M503.467,341.342c-4.71,0-8.533,3.823-8.533,8.533c0,23.526-19.132,42.658-42.65,42.658H59.725
			c-23.526,0-42.658-19.132-42.658-42.658c0-4.71-3.823-8.533-8.533-8.533S0,345.165,0,349.875v102.409
			C0,485.214,26.786,512,59.716,512h392.568c32.93,0,59.716-26.786,59.716-59.716V349.875
			C512,345.165,508.177,341.342,503.467,341.342z M494.933,452.284c0,23.518-19.132,42.65-42.641,42.65H59.716
			c-23.518,0-42.65-19.132-42.65-42.65v-60.646C27.913,402.714,43.025,409.6,59.725,409.6h392.55c16.7,0,31.812-6.886,42.658-17.963
			V452.284z"/>
	</g>
</g>
<g>
	<g>
		<path d="M85.333,42.667H51.2c-4.71,0-8.533,3.823-8.533,8.533v34.133c0,4.71,3.823,8.533,8.533,8.533h34.133
			c4.71,0,8.533-3.823,8.533-8.533V51.2C93.867,46.49,90.044,42.667,85.333,42.667z M76.8,76.8H59.733V59.733H76.8V76.8z"/>
	</g>
</g>
<g>
	<g>
		<path d="M460.8,42.667h-34.133c-4.71,0-8.533,3.823-8.533,8.533v34.133c0,4.71,3.823,8.533,8.533,8.533H460.8
			c4.71,0,8.533-3.823,8.533-8.533V51.2C469.333,46.49,465.51,42.667,460.8,42.667z M452.267,76.8H435.2V59.733h17.067V76.8z"/>
	</g>
</g>
<g>
	<g>
		<path d="M85.333,315.733H51.2c-4.71,0-8.533,3.823-8.533,8.533V358.4c0,4.71,3.823,8.533,8.533,8.533h34.133
			c4.71,0,8.533-3.823,8.533-8.533v-34.133C93.867,319.556,90.044,315.733,85.333,315.733z M76.8,349.867H59.733V332.8H76.8V349.867
			z"/>
	</g>
</g>
<g>
	<g>
		<path d="M460.8,315.733h-34.133c-4.71,0-8.533,3.823-8.533,8.533V358.4c0,4.71,3.823,8.533,8.533,8.533H460.8
			c4.71,0,8.533-3.823,8.533-8.533v-34.133C469.333,319.556,465.51,315.733,460.8,315.733z M452.267,349.867H435.2V332.8h17.067
			V349.867z"/>
	</g>
</g>
<g>
</g>
<g>
</g>
<g>
</g>
<g>
</g>
<g>
</g>
<g>
</g>
<g>
</g>
<g>
</g>
<g>
</g>
<g>
</g>
<g>
</g>
<g>
</g>
<g>
</g>
<g>
</g>
<g>
</g>
</svg>
