<?xml version="1.0" encoding="iso-8859-1"?>
<!-- Generator: Adobe Illustrator 19.0.0, SVG Export Plug-In . SVG Version: 6.00 Build 0)  -->
<svg version="1.1" id="Capa_1" xmlns="http://www.w3.org/2000/svg" xmlns:xlink="http://www.w3.org/1999/xlink" x="0px" y="0px"
	 viewBox="0 0 512 512" style="enable-background:new 0 0 512 512;" xml:space="preserve">
<g>
	<g>
		<path d="M375.458,0H179.2c-4.71,0-8.533,3.823-8.533,8.533v494.933c0,4.71,3.823,8.533,8.533,8.533h196.258
			c18.825,0,34.142-15.317,34.142-34.142V34.142C409.6,15.317,394.283,0,375.458,0z M392.533,477.858
			c0,9.421-7.663,17.075-17.075,17.075H187.733V17.067h187.725c9.412,0,17.075,7.654,17.075,17.075V477.858z"/>
	</g>
</g>
<g>
	<g>
		<path d="M179.2,0h-68.267c-4.71,0-8.533,3.823-8.533,8.533v34.133c0,4.71,3.823,8.533,8.533,8.533h25.6v409.6h-25.6
			c-4.71,0-8.533,3.823-8.533,8.533v34.133c0,4.71,3.823,8.533,8.533,8.533H179.2c4.71,0,8.533-3.823,8.533-8.533V8.533
			C187.733,3.823,183.91,0,179.2,0z M170.667,494.933h-51.2v-17.067h25.6c4.71,0,8.533-3.823,8.533-8.533V42.667
			c0-4.71-3.823-8.533-8.533-8.533h-25.6V17.067h51.2V494.933z"/>
	</g>
</g>
<g>
	<g>
		<path d="M366.933,34.133H332.8c-4.71,0-8.533,3.823-8.533,8.533V76.8c0,4.71,3.823,8.533,8.533,8.533h34.133
			c4.71,0,8.533-3.823,8.533-8.533V42.667C375.467,37.956,371.644,34.133,366.933,34.133z M358.4,68.267h-17.067V51.2H358.4V68.267z
			"/>
	</g>
</g>
<g>
	<g>
		<path d="M366.933,426.667H332.8c-4.71,0-8.533,3.823-8.533,8.533v34.133c0,4.71,3.823,8.533,8.533,8.533h34.133
			c4.71,0,8.533-3.823,8.533-8.533V435.2C375.467,430.49,371.644,426.667,366.933,426.667z M358.4,460.8h-17.067v-17.067H358.4
			V460.8z"/>
	</g>
</g>
<g>
	<g>
		<path d="M315.733,93.867h-102.4c-4.71,0-8.533,3.823-8.533,8.533v51.2c0,4.71,3.823,8.533,8.533,8.533h102.4
			c4.71,0,8.533-3.823,8.533-8.533v-51.2C324.267,97.69,320.444,93.867,315.733,93.867z M307.2,145.067h-85.333v-34.133H307.2
			V145.067z"/>
	</g>
</g>
<g>
	<g>
		<path d="M230.4,76.8c-4.71,0-8.533,3.823-8.533,8.533V102.4c0,4.71,3.823,8.533,8.533,8.533c4.71,0,8.533-3.823,8.533-8.533
			V85.333C238.933,80.623,235.11,76.8,230.4,76.8z"/>
	</g>
</g>
<g>
	<g>
		<path d="M298.667,76.8c-4.71,0-8.533,3.823-8.533,8.533V102.4c0,4.71,3.823,8.533,8.533,8.533s8.533-3.823,8.533-8.533V85.333
			C307.2,80.623,303.377,76.8,298.667,76.8z"/>
	</g>
</g>
<g>
	<g>
		<path d="M264.533,76.8c-4.71,0-8.533,3.823-8.533,8.533V102.4c0,4.71,3.823,8.533,8.533,8.533s8.533-3.823,8.533-8.533V85.333
			C273.067,80.623,269.244,76.8,264.533,76.8z"/>
	</g>
</g>
<g>
	<g>
		<path d="M230.4,145.067c-4.71,0-8.533,3.823-8.533,8.533v17.067c0,4.71,3.823,8.533,8.533,8.533c4.71,0,8.533-3.823,8.533-8.533
			V153.6C238.933,148.89,235.11,145.067,230.4,145.067z"/>
	</g>
</g>
<g>
	<g>
		<path d="M298.667,145.067c-4.71,0-8.533,3.823-8.533,8.533v17.067c0,4.71,3.823,8.533,8.533,8.533s8.533-3.823,8.533-8.533V153.6
			C307.2,148.89,303.377,145.067,298.667,145.067z"/>
	</g>
</g>
<g>
	<g>
		<path d="M264.533,145.067c-4.71,0-8.533,3.823-8.533,8.533v17.067c0,4.71,3.823,8.533,8.533,8.533s8.533-3.823,8.533-8.533V153.6
			C273.067,148.89,269.244,145.067,264.533,145.067z"/>
	</g>
</g>
<g>
	<g>
		<path d="M315.733,349.867h-102.4c-4.71,0-8.533,3.823-8.533,8.533v51.2c0,4.71,3.823,8.533,8.533,8.533h102.4
			c4.71,0,8.533-3.823,8.533-8.533v-51.2C324.267,353.69,320.444,349.867,315.733,349.867z M307.2,401.067h-85.333v-34.133H307.2
			V401.067z"/>
	</g>
</g>
<g>
	<g>
		<path d="M230.4,332.8c-4.71,0-8.533,3.823-8.533,8.533V358.4c0,4.71,3.823,8.533,8.533,8.533c4.71,0,8.533-3.823,8.533-8.533
			v-17.067C238.933,336.623,235.11,332.8,230.4,332.8z"/>
	</g>
</g>
<g>
	<g>
		<path d="M298.667,332.8c-4.71,0-8.533,3.823-8.533,8.533V358.4c0,4.71,3.823,8.533,8.533,8.533s8.533-3.823,8.533-8.533v-17.067
			C307.2,336.623,303.377,332.8,298.667,332.8z"/>
	</g>
</g>
<g>
	<g>
		<path d="M264.533,332.8c-4.71,0-8.533,3.823-8.533,8.533V358.4c0,4.71,3.823,8.533,8.533,8.533s8.533-3.823,8.533-8.533v-17.067
			C273.067,336.623,269.244,332.8,264.533,332.8z"/>
	</g>
</g>
<g>
	<g>
		<path d="M230.4,401.067c-4.71,0-8.533,3.823-8.533,8.533v17.067c0,4.71,3.823,8.533,8.533,8.533c4.71,0,8.533-3.823,8.533-8.533
			V409.6C238.933,404.89,235.11,401.067,230.4,401.067z"/>
	</g>
</g>
<g>
	<g>
		<path d="M298.667,401.067c-4.71,0-8.533,3.823-8.533,8.533v17.067c0,4.71,3.823,8.533,8.533,8.533s8.533-3.823,8.533-8.533V409.6
			C307.2,404.89,303.377,401.067,298.667,401.067z"/>
	</g>
</g>
<g>
	<g>
		<path d="M264.533,401.067c-4.71,0-8.533,3.823-8.533,8.533v17.067c0,4.71,3.823,8.533,8.533,8.533s8.533-3.823,8.533-8.533V409.6
			C273.067,404.89,269.244,401.067,264.533,401.067z"/>
	</g>
</g>
<g>
	<g>
		<path d="M315.733,221.867h-102.4c-4.71,0-8.533,3.823-8.533,8.533v51.2c0,4.71,3.823,8.533,8.533,8.533h102.4
			c4.71,0,8.533-3.823,8.533-8.533v-51.2C324.267,225.69,320.444,221.867,315.733,221.867z M307.2,273.067h-85.333v-34.133H307.2
			V273.067z"/>
	</g>
</g>
<g>
	<g>
		<path d="M230.4,204.8c-4.71,0-8.533,3.823-8.533,8.533V230.4c0,4.71,3.823,8.533,8.533,8.533c4.71,0,8.533-3.823,8.533-8.533
			v-17.067C238.933,208.623,235.11,204.8,230.4,204.8z"/>
	</g>
</g>
<g>
	<g>
		<path d="M298.667,204.8c-4.71,0-8.533,3.823-8.533,8.533V230.4c0,4.71,3.823,8.533,8.533,8.533s8.533-3.823,8.533-8.533v-17.067
			C307.2,208.623,303.377,204.8,298.667,204.8z"/>
	</g>
</g>
<g>
	<g>
		<path d="M264.533,204.8c-4.71,0-8.533,3.823-8.533,8.533V230.4c0,4.71,3.823,8.533,8.533,8.533s8.533-3.823,8.533-8.533v-17.067
			C273.067,208.623,269.244,204.8,264.533,204.8z"/>
	</g>
</g>
<g>
	<g>
		<path d="M230.4,273.067c-4.71,0-8.533,3.823-8.533,8.533v17.067c0,4.71,3.823,8.533,8.533,8.533c4.71,0,8.533-3.823,8.533-8.533
			V281.6C238.933,276.89,235.11,273.067,230.4,273.067z"/>
	</g>
</g>
<g>
	<g>
		<path d="M298.667,273.067c-4.71,0-8.533,3.823-8.533,8.533v17.067c0,4.71,3.823,8.533,8.533,8.533s8.533-3.823,8.533-8.533V281.6
			C307.2,276.89,303.377,273.067,298.667,273.067z"/>
	</g>
</g>
<g>
	<g>
		<path d="M264.533,273.067c-4.71,0-8.533,3.823-8.533,8.533v17.067c0,4.71,3.823,8.533,8.533,8.533s8.533-3.823,8.533-8.533V281.6
			C273.067,276.89,269.244,273.067,264.533,273.067z"/>
	</g>
</g>
<g>
	<g>
		<path d="M401.067,102.4h-34.133c-4.71,0-8.533,3.823-8.533,8.533v290.133c0,4.71,3.823,8.533,8.533,8.533h34.133
			c4.71,0,8.533-3.823,8.533-8.533V110.933C409.6,106.223,405.777,102.4,401.067,102.4z M392.533,392.533h-17.067V119.467h17.067
			V392.533z"/>
	</g>
</g>
<g>
</g>
<g>
</g>
<g>
</g>
<g>
</g>
<g>
</g>
<g>
</g>
<g>
</g>
<g>
</g>
<g>
</g>
<g>
</g>
<g>
</g>
<g>
</g>
<g>
</g>
<g>
</g>
<g>
</g>
</svg>
