<?xml version="1.0" encoding="iso-8859-1"?>
<!-- Generator: Adobe Illustrator 19.0.0, SVG Export Plug-In . SVG Version: 6.00 Build 0)  -->
<svg version="1.1" id="Capa_1" xmlns="http://www.w3.org/2000/svg" xmlns:xlink="http://www.w3.org/1999/xlink" x="0px" y="0px"
	 viewBox="0 0 512 512" style="enable-background:new 0 0 512 512;" xml:space="preserve">
<g>
	<g>
		<path d="M477.85,76.8H34.15C15.317,76.8,0,92.117,0,110.95V401.05c0,18.833,15.317,34.15,34.15,34.15H477.85
			c18.833,0,34.15-15.317,34.15-34.15V110.95C512,92.117,496.683,76.8,477.85,76.8z M494.933,401.05
			c0,9.421-7.663,17.084-17.084,17.084H34.15c-9.421,0-17.084-7.663-17.084-17.084V110.95c0-9.421,7.663-17.084,17.084-17.084
			H477.85c9.421,0,17.084,7.663,17.084,17.084V401.05z"/>
	</g>
</g>
<g>
	<g>
		<path d="M281.6,76.8H34.167C15.326,76.8,0,92.126,0,110.967v162.099c0,4.71,3.823,8.533,8.533,8.533h85.333
			c108.22,0,196.267-88.047,196.267-196.267C290.133,80.623,286.31,76.8,281.6,76.8z M93.867,264.533h-76.8V110.967
			c0-9.429,7.672-17.101,17.101-17.101H272.87C268.399,188.732,189.815,264.533,93.867,264.533z"/>
	</g>
</g>
<g>
	<g>
		<path d="M76.8,110.933H42.667c-4.71,0-8.533,3.823-8.533,8.533V153.6c0,4.71,3.823,8.533,8.533,8.533H76.8
			c4.71,0,8.533-3.823,8.533-8.533v-34.133C85.333,114.756,81.51,110.933,76.8,110.933z M68.267,145.067H51.2V128h17.067V145.067z"
			/>
	</g>
</g>
<g>
	<g>
		<path d="M469.333,110.933H435.2c-4.71,0-8.533,3.823-8.533,8.533V153.6c0,4.71,3.823,8.533,8.533,8.533h34.133
			c4.71,0,8.533-3.823,8.533-8.533v-34.133C477.867,114.756,474.044,110.933,469.333,110.933z M460.8,145.067h-17.067V128H460.8
			V145.067z"/>
	</g>
</g>
<g>
	<g>
		<path d="M76.8,349.867H42.667c-4.71,0-8.533,3.823-8.533,8.533v34.133c0,4.71,3.823,8.533,8.533,8.533H76.8
			c4.71,0,8.533-3.823,8.533-8.533V358.4C85.333,353.69,81.51,349.867,76.8,349.867z M68.267,384H51.2v-17.067h17.067V384z"/>
	</g>
</g>
<g>
	<g>
		<path d="M469.333,349.867H435.2c-4.71,0-8.533,3.823-8.533,8.533v34.133c0,4.71,3.823,8.533,8.533,8.533h34.133
			c4.71,0,8.533-3.823,8.533-8.533V358.4C477.867,353.69,474.044,349.867,469.333,349.867z M460.8,384h-17.067v-17.067H460.8V384z"
			/>
	</g>
</g>
<g>
	<g>
		<path d="M503.467,179.2h-51.2c-4.71,0-8.533,3.823-8.533,8.533v136.533c0,4.71,3.823,8.533,8.533,8.533h51.2
			c4.71,0,8.533-3.823,8.533-8.533V187.733C512,183.023,508.177,179.2,503.467,179.2z M494.933,315.733H460.8V196.267h34.133
			V315.733z"/>
	</g>
</g>
<g>
	<g>
		<path d="M503.467,281.6H486.4c-4.71,0-8.533,3.823-8.533,8.533c0,4.71,3.823,8.533,8.533,8.533h17.067
			c4.71,0,8.533-3.823,8.533-8.533C512,285.423,508.177,281.6,503.467,281.6z"/>
	</g>
</g>
<g>
	<g>
		<path d="M503.467,247.467H486.4c-4.71,0-8.533,3.823-8.533,8.533s3.823,8.533,8.533,8.533h17.067c4.71,0,8.533-3.823,8.533-8.533
			S508.177,247.467,503.467,247.467z"/>
	</g>
</g>
<g>
	<g>
		<path d="M503.467,213.333H486.4c-4.71,0-8.533,3.823-8.533,8.533c0,4.71,3.823,8.533,8.533,8.533h17.067
			c4.71,0,8.533-3.823,8.533-8.533C512,217.156,508.177,213.333,503.467,213.333z"/>
	</g>
</g>
<g>
	<g>
		<path d="M213.333,110.933H128c-4.71,0-8.533,3.823-8.533,8.533c0,4.71,3.823,8.533,8.533,8.533h85.333
			c4.71,0,8.533-3.823,8.533-8.533C221.867,114.756,218.044,110.933,213.333,110.933z"/>
	</g>
</g>
<g>
	<g>
		<path d="M162.133,145.067H128c-4.71,0-8.533,3.823-8.533,8.533s3.823,8.533,8.533,8.533h34.133c4.71,0,8.533-3.823,8.533-8.533
			S166.844,145.067,162.133,145.067z"/>
	</g>
</g>
<g>
	<g>
		<path d="M196.267,179.2H128c-4.71,0-8.533,3.823-8.533,8.533s3.823,8.533,8.533,8.533h68.267c4.71,0,8.533-3.823,8.533-8.533
			S200.977,179.2,196.267,179.2z"/>
	</g>
</g>
<g>
	<g>
		<path d="M76.8,187.733H42.667c-4.71,0-8.533,3.823-8.533,8.533s3.823,8.533,8.533,8.533H76.8c4.71,0,8.533-3.823,8.533-8.533
			S81.51,187.733,76.8,187.733z"/>
	</g>
</g>
<g>
	<g>
		<path d="M76.8,221.867H42.667c-4.71,0-8.533,3.823-8.533,8.533c0,4.71,3.823,8.533,8.533,8.533H76.8
			c4.71,0,8.533-3.823,8.533-8.533C85.333,225.69,81.51,221.867,76.8,221.867z"/>
	</g>
</g>
<g>
	<g>
		<path d="M307.2,238.933c-42.351,0-76.8,34.458-76.8,76.8s34.449,76.8,76.8,76.8s76.8-34.458,76.8-76.8
			S349.551,238.933,307.2,238.933z M307.2,375.467c-32.939,0-59.733-26.795-59.733-59.733S274.261,256,307.2,256
			s59.733,26.795,59.733,59.733S340.139,375.467,307.2,375.467z"/>
	</g>
</g>
<g>
	<g>
		<path d="M341.333,307.2c-4.71,0-8.533,3.823-8.533,8.533c0,14.114-11.486,25.6-25.6,25.6s-25.6-11.486-25.6-25.6
			s11.486-25.6,25.6-25.6c4.71,0,8.533-3.823,8.533-8.533c0-4.71-3.823-8.533-8.533-8.533c-23.526,0-42.667,19.14-42.667,42.667
			c0,23.526,19.14,42.667,42.667,42.667c23.526,0,42.667-19.14,42.667-42.667C349.867,311.023,346.044,307.2,341.333,307.2z"/>
	</g>
</g>
<g>
</g>
<g>
</g>
<g>
</g>
<g>
</g>
<g>
</g>
<g>
</g>
<g>
</g>
<g>
</g>
<g>
</g>
<g>
</g>
<g>
</g>
<g>
</g>
<g>
</g>
<g>
</g>
<g>
</g>
</svg>
