<?xml version="1.0" encoding="iso-8859-1"?>
<!-- Generator: Adobe Illustrator 19.0.0, SVG Export Plug-In . SVG Version: 6.00 Build 0)  -->
<svg version="1.1" id="Capa_1" xmlns="http://www.w3.org/2000/svg" xmlns:xlink="http://www.w3.org/1999/xlink" x="0px" y="0px"
	 viewBox="0 0 512 512" style="enable-background:new 0 0 512 512;" xml:space="preserve">
<g>
	<g>
		<path d="M509.5,70.767L441.233,2.5C439.637,0.896,437.461,0,435.2,0H8.533C3.823,0,0,3.823,0,8.533v494.933
			C0,508.177,3.823,512,8.533,512h494.933c4.71,0,8.533-3.823,8.533-8.533V76.8C512,74.539,511.104,72.363,509.5,70.767z
			 M494.933,494.933H17.067V17.067h414.601l63.266,63.266V494.933z"/>
	</g>
</g>
<g>
	<g>
		<path d="M409.6,0H102.4c-4.71,0-8.533,3.823-8.533,8.533v153.6c0,4.71,3.823,8.533,8.533,8.533h307.2
			c4.71,0,8.533-3.823,8.533-8.533V8.533C418.133,3.823,414.31,0,409.6,0z M401.067,153.6H110.933V17.067h290.133V153.6z"/>
	</g>
</g>
<g>
	<g>
		<path d="M409.6,256H102.4c-4.71,0-8.533,3.823-8.533,8.533v238.933c0,4.71,3.823,8.533,8.533,8.533h307.2
			c4.71,0,8.533-3.823,8.533-8.533V264.533C418.133,259.823,414.31,256,409.6,256z M401.067,494.933H110.933V273.067h290.133
			V494.933z"/>
	</g>
</g>
<g>
	<g>
		<path d="M366.933,34.133H332.8c-4.71,0-8.533,3.823-8.533,8.533V128c0,4.71,3.823,8.533,8.533,8.533h34.133
			c4.71,0,8.533-3.823,8.533-8.533V42.667C375.467,37.956,371.644,34.133,366.933,34.133z M358.4,119.467h-17.067V51.2H358.4
			V119.467z"/>
	</g>
</g>
<g>
	<g>
		<path d="M409.6,0H170.667c-4.71,0-8.533,3.823-8.533,8.533v153.6c0,4.71,3.823,8.533,8.533,8.533H409.6
			c4.71,0,8.533-3.823,8.533-8.533V8.533C418.133,3.823,414.31,0,409.6,0z M401.067,153.6H179.2V17.067h221.867V153.6z"/>
	</g>
</g>
<g>
	<g>
		<path d="M315.733,290.133H145.067c-4.71,0-8.533,3.823-8.533,8.533s3.823,8.533,8.533,8.533h170.667
			c4.71,0,8.533-3.823,8.533-8.533S320.444,290.133,315.733,290.133z"/>
	</g>
</g>
<g>
	<g>
		<path d="M366.933,290.133h-17.067c-4.71,0-8.533,3.823-8.533,8.533s3.823,8.533,8.533,8.533h17.067
			c4.71,0,8.533-3.823,8.533-8.533S371.644,290.133,366.933,290.133z"/>
	</g>
</g>
<g>
	<g>
		<path d="M170.667,332.8h-25.6c-4.71,0-8.533,3.823-8.533,8.533s3.823,8.533,8.533,8.533h25.6c4.71,0,8.533-3.823,8.533-8.533
			S175.377,332.8,170.667,332.8z"/>
	</g>
</g>
<g>
	<g>
		<path d="M366.933,332.8H204.8c-4.71,0-8.533,3.823-8.533,8.533s3.823,8.533,8.533,8.533h162.133c4.71,0,8.533-3.823,8.533-8.533
			S371.644,332.8,366.933,332.8z"/>
	</g>
</g>
<g>
	<g>
		<path d="M315.733,375.467H145.067c-4.71,0-8.533,3.823-8.533,8.533s3.823,8.533,8.533,8.533h170.667
			c4.71,0,8.533-3.823,8.533-8.533S320.444,375.467,315.733,375.467z"/>
	</g>
</g>
<g>
	<g>
		<path d="M366.933,375.467h-17.067c-4.71,0-8.533,3.823-8.533,8.533s3.823,8.533,8.533,8.533h17.067
			c4.71,0,8.533-3.823,8.533-8.533S371.644,375.467,366.933,375.467z"/>
	</g>
</g>
<g>
	<g>
		<path d="M315.733,460.8H145.067c-4.71,0-8.533,3.823-8.533,8.533s3.823,8.533,8.533,8.533h170.667c4.71,0,8.533-3.823,8.533-8.533
			S320.444,460.8,315.733,460.8z"/>
	</g>
</g>
<g>
	<g>
		<path d="M366.933,460.8h-17.067c-4.71,0-8.533,3.823-8.533,8.533s3.823,8.533,8.533,8.533h17.067c4.71,0,8.533-3.823,8.533-8.533
			S371.644,460.8,366.933,460.8z"/>
	</g>
</g>
<g>
	<g>
		<path d="M170.667,418.133h-25.6c-4.71,0-8.533,3.823-8.533,8.533s3.823,8.533,8.533,8.533h25.6c4.71,0,8.533-3.823,8.533-8.533
			S175.377,418.133,170.667,418.133z"/>
	</g>
</g>
<g>
	<g>
		<path d="M366.933,418.133H204.8c-4.71,0-8.533,3.823-8.533,8.533s3.823,8.533,8.533,8.533h162.133c4.71,0,8.533-3.823,8.533-8.533
			S371.644,418.133,366.933,418.133z"/>
	</g>
</g>
<g>
</g>
<g>
</g>
<g>
</g>
<g>
</g>
<g>
</g>
<g>
</g>
<g>
</g>
<g>
</g>
<g>
</g>
<g>
</g>
<g>
</g>
<g>
</g>
<g>
</g>
<g>
</g>
<g>
</g>
</svg>
