<?xml version="1.0" encoding="iso-8859-1"?>
<!-- Generator: Adobe Illustrator 19.0.0, SVG Export Plug-In . SVG Version: 6.00 Build 0)  -->
<svg version="1.1" id="Capa_1" xmlns="http://www.w3.org/2000/svg" xmlns:xlink="http://www.w3.org/1999/xlink" x="0px" y="0px"
	 viewBox="0 0 512 512" style="enable-background:new 0 0 512 512;" xml:space="preserve">
<g>
	<g>
		<path d="M475.733,102.4H36.267C16.273,102.4,0,118.673,0,138.667V441.6c0,19.994,16.273,36.267,36.267,36.267h439.467
			c19.994,0,36.267-16.273,36.267-36.267V138.667C512,118.673,495.727,102.4,475.733,102.4z M494.933,441.6
			c0,10.59-8.61,19.2-19.2,19.2H36.267c-10.59,0-19.2-8.61-19.2-19.2V138.667c0-10.59,8.61-19.2,19.2-19.2h439.467
			c10.59,0,19.2,8.61,19.2,19.2V441.6z"/>
	</g>
</g>
<g>
	<g>
		<path d="M128,460.8H59.733c-4.71,0-8.533,3.823-8.533,8.533v34.133c0,4.71,3.823,8.533,8.533,8.533H128
			c4.71,0,8.533-3.823,8.533-8.533v-34.133C136.533,464.623,132.71,460.8,128,460.8z M119.467,494.933h-51.2v-17.067h51.2V494.933z"
			/>
	</g>
</g>
<g>
	<g>
		<path d="M452.267,460.8H384c-4.71,0-8.533,3.823-8.533,8.533v34.133c0,4.71,3.823,8.533,8.533,8.533h68.267
			c4.71,0,8.533-3.823,8.533-8.533v-34.133C460.8,464.623,456.977,460.8,452.267,460.8z M443.733,494.933h-51.2v-17.067h51.2
			V494.933z"/>
	</g>
</g>
<g>
	<g>
		<path d="M469.333,136.533H42.667c-4.71,0-8.533,3.823-8.533,8.533V230.4c0,4.71,3.823,8.533,8.533,8.533h426.667
			c4.71,0,8.533-3.823,8.533-8.533v-85.333C477.867,140.356,474.044,136.533,469.333,136.533z M460.8,221.867H51.2V153.6h409.6
			V221.867z"/>
	</g>
</g>
<g>
	<g>
		<path d="M324.267,290.133c-28.237,0-51.2,22.963-51.2,51.2c0,28.237,22.963,51.2,51.2,51.2c28.237,0,51.2-22.963,51.2-51.2
			C375.467,313.097,352.503,290.133,324.267,290.133z M324.267,375.467c-18.825,0-34.133-15.309-34.133-34.133
			c0-18.825,15.309-34.133,34.133-34.133c18.825,0,34.133,15.309,34.133,34.133C358.4,360.158,343.091,375.467,324.267,375.467z"/>
	</g>
</g>
<g>
	<g>
		<path d="M330.3,335.3l-42.667-42.667c-3.337-3.337-8.73-3.337-12.066,0c-3.337,3.337-3.337,8.73,0,12.066l42.667,42.667
			c1.664,1.664,3.849,2.5,6.033,2.5c2.185,0,4.369-0.836,6.033-2.5C333.636,344.03,333.636,338.637,330.3,335.3z"/>
	</g>
</g>
<g>
	<g>
		<path d="M435.2,256c-18.825,0-34.133,15.309-34.133,34.133c0,18.825,15.309,34.133,34.133,34.133
			c18.825,0,34.133-15.309,34.133-34.133S454.025,256,435.2,256z M435.2,307.2c-9.412,0-17.067-7.654-17.067-17.067
			c0-9.412,7.654-17.067,17.067-17.067s17.067,7.654,17.067,17.067C452.267,299.546,444.612,307.2,435.2,307.2z"/>
	</g>
</g>
<g>
	<g>
		<path d="M435.2,358.4c-18.825,0-34.133,15.309-34.133,34.133c0,18.825,15.309,34.133,34.133,34.133
			c18.825,0,34.133-15.309,34.133-34.133C469.333,373.709,454.025,358.4,435.2,358.4z M435.2,409.6
			c-9.412,0-17.067-7.654-17.067-17.067c0-9.412,7.654-17.067,17.067-17.067s17.067,7.654,17.067,17.067
			C452.267,401.946,444.612,409.6,435.2,409.6z"/>
	</g>
</g>
<g>
	<g>
		<path d="M93.867,290.133H76.8c-4.71,0-8.533,3.823-8.533,8.533S72.09,307.2,76.8,307.2h17.067c4.71,0,8.533-3.823,8.533-8.533
			S98.577,290.133,93.867,290.133z"/>
	</g>
</g>
<g>
	<g>
		<path d="M128,264.533h-17.067c-4.71,0-8.533,3.823-8.533,8.533c0,4.71,3.823,8.533,8.533,8.533H128
			c4.71,0,8.533-3.823,8.533-8.533C136.533,268.356,132.71,264.533,128,264.533z"/>
	</g>
</g>
<g>
	<g>
		<path d="M128,315.733h-17.067c-4.71,0-8.533,3.823-8.533,8.533s3.823,8.533,8.533,8.533H128c4.71,0,8.533-3.823,8.533-8.533
			S132.71,315.733,128,315.733z"/>
	</g>
</g>
<g>
	<g>
		<path d="M162.133,290.133h-17.067c-4.71,0-8.533,3.823-8.533,8.533s3.823,8.533,8.533,8.533h17.067
			c4.71,0,8.533-3.823,8.533-8.533S166.844,290.133,162.133,290.133z"/>
	</g>
</g>
<g>
	<g>
		<path d="M230.4,290.133h-17.067c-4.71,0-8.533,3.823-8.533,8.533s3.823,8.533,8.533,8.533H230.4c4.71,0,8.533-3.823,8.533-8.533
			S235.11,290.133,230.4,290.133z"/>
	</g>
</g>
<g>
	<g>
		<path d="M230.4,341.333h-17.067c-4.71,0-8.533,3.823-8.533,8.533s3.823,8.533,8.533,8.533H230.4c4.71,0,8.533-3.823,8.533-8.533
			S235.11,341.333,230.4,341.333z"/>
	</g>
</g>
<g>
	<g>
		<path d="M230.4,392.533h-17.067c-4.71,0-8.533,3.823-8.533,8.533s3.823,8.533,8.533,8.533H230.4c4.71,0,8.533-3.823,8.533-8.533
			S235.11,392.533,230.4,392.533z"/>
	</g>
</g>
<g>
	<g>
		<path d="M196.267,264.533H179.2c-4.71,0-8.533,3.823-8.533,8.533c0,4.71,3.823,8.533,8.533,8.533h17.067
			c4.71,0,8.533-3.823,8.533-8.533C204.8,268.356,200.977,264.533,196.267,264.533z"/>
	</g>
</g>
<g>
	<g>
		<path d="M59.733,264.533H42.667c-4.71,0-8.533,3.823-8.533,8.533c0,4.71,3.823,8.533,8.533,8.533h17.067
			c4.71,0,8.533-3.823,8.533-8.533C68.267,268.356,64.444,264.533,59.733,264.533z"/>
	</g>
</g>
<g>
	<g>
		<path d="M196.267,315.733H179.2c-4.71,0-8.533,3.823-8.533,8.533s3.823,8.533,8.533,8.533h17.067c4.71,0,8.533-3.823,8.533-8.533
			S200.977,315.733,196.267,315.733z"/>
	</g>
</g>
<g>
	<g>
		<path d="M59.733,315.733H42.667c-4.71,0-8.533,3.823-8.533,8.533s3.823,8.533,8.533,8.533h17.067c4.71,0,8.533-3.823,8.533-8.533
			S64.444,315.733,59.733,315.733z"/>
	</g>
</g>
<g>
	<g>
		<path d="M93.867,341.333H76.8c-4.71,0-8.533,3.823-8.533,8.533S72.09,358.4,76.8,358.4h17.067c4.71,0,8.533-3.823,8.533-8.533
			S98.577,341.333,93.867,341.333z"/>
	</g>
</g>
<g>
	<g>
		<path d="M93.867,392.533H76.8c-4.71,0-8.533,3.823-8.533,8.533S72.09,409.6,76.8,409.6h17.067c4.71,0,8.533-3.823,8.533-8.533
			S98.577,392.533,93.867,392.533z"/>
	</g>
</g>
<g>
	<g>
		<path d="M128,366.933h-17.067c-4.71,0-8.533,3.823-8.533,8.533s3.823,8.533,8.533,8.533H128c4.71,0,8.533-3.823,8.533-8.533
			S132.71,366.933,128,366.933z"/>
	</g>
</g>
<g>
	<g>
		<path d="M162.133,341.333h-17.067c-4.71,0-8.533,3.823-8.533,8.533s3.823,8.533,8.533,8.533h17.067
			c4.71,0,8.533-3.823,8.533-8.533S166.844,341.333,162.133,341.333z"/>
	</g>
</g>
<g>
	<g>
		<path d="M196.267,366.933H179.2c-4.71,0-8.533,3.823-8.533,8.533S174.49,384,179.2,384h17.067c4.71,0,8.533-3.823,8.533-8.533
			S200.977,366.933,196.267,366.933z"/>
	</g>
</g>
<g>
	<g>
		<path d="M128,418.133h-17.067c-4.71,0-8.533,3.823-8.533,8.533s3.823,8.533,8.533,8.533H128c4.71,0,8.533-3.823,8.533-8.533
			S132.71,418.133,128,418.133z"/>
	</g>
</g>
<g>
	<g>
		<path d="M162.133,392.533h-17.067c-4.71,0-8.533,3.823-8.533,8.533s3.823,8.533,8.533,8.533h17.067
			c4.71,0,8.533-3.823,8.533-8.533S166.844,392.533,162.133,392.533z"/>
	</g>
</g>
<g>
	<g>
		<path d="M196.267,418.133H179.2c-4.71,0-8.533,3.823-8.533,8.533s3.823,8.533,8.533,8.533h17.067c4.71,0,8.533-3.823,8.533-8.533
			S200.977,418.133,196.267,418.133z"/>
	</g>
</g>
<g>
	<g>
		<path d="M59.733,366.933H42.667c-4.71,0-8.533,3.823-8.533,8.533S37.956,384,42.667,384h17.067c4.71,0,8.533-3.823,8.533-8.533
			S64.444,366.933,59.733,366.933z"/>
	</g>
</g>
<g>
	<g>
		<path d="M59.733,418.133H42.667c-4.71,0-8.533,3.823-8.533,8.533s3.823,8.533,8.533,8.533h17.067c4.71,0,8.533-3.823,8.533-8.533
			S64.444,418.133,59.733,418.133z"/>
	</g>
</g>
<g>
	<g>
		<path d="M85.333,196.267c-4.71,0-8.533,3.823-8.533,8.533v25.6c0,4.71,3.823,8.533,8.533,8.533c4.71,0,8.533-3.823,8.533-8.533
			v-25.6C93.867,200.09,90.044,196.267,85.333,196.267z"/>
	</g>
</g>
<g>
	<g>
		<path d="M153.6,196.267c-4.71,0-8.533,3.823-8.533,8.533v25.6c0,4.71,3.823,8.533,8.533,8.533c4.71,0,8.533-3.823,8.533-8.533
			v-25.6C162.133,200.09,158.31,196.267,153.6,196.267z"/>
	</g>
</g>
<g>
	<g>
		<path d="M119.467,179.2c-4.71,0-8.533,3.823-8.533,8.533V230.4c0,4.71,3.823,8.533,8.533,8.533S128,235.11,128,230.4v-42.667
			C128,183.023,124.177,179.2,119.467,179.2z"/>
	</g>
</g>
<g>
	<g>
		<path d="M221.867,196.267c-4.71,0-8.533,3.823-8.533,8.533v25.6c0,4.71,3.823,8.533,8.533,8.533c4.71,0,8.533-3.823,8.533-8.533
			v-25.6C230.4,200.09,226.577,196.267,221.867,196.267z"/>
	</g>
</g>
<g>
	<g>
		<path d="M187.733,179.2c-4.71,0-8.533,3.823-8.533,8.533V230.4c0,4.71,3.823,8.533,8.533,8.533s8.533-3.823,8.533-8.533v-42.667
			C196.267,183.023,192.444,179.2,187.733,179.2z"/>
	</g>
</g>
<g>
	<g>
		<path d="M290.133,196.267c-4.71,0-8.533,3.823-8.533,8.533v25.6c0,4.71,3.823,8.533,8.533,8.533s8.533-3.823,8.533-8.533v-25.6
			C298.667,200.09,294.844,196.267,290.133,196.267z"/>
	</g>
</g>
<g>
	<g>
		<path d="M256,179.2c-4.71,0-8.533,3.823-8.533,8.533V230.4c0,4.71,3.823,8.533,8.533,8.533s8.533-3.823,8.533-8.533v-42.667
			C264.533,183.023,260.71,179.2,256,179.2z"/>
	</g>
</g>
<g>
	<g>
		<path d="M358.4,196.267c-4.71,0-8.533,3.823-8.533,8.533v25.6c0,4.71,3.823,8.533,8.533,8.533s8.533-3.823,8.533-8.533v-25.6
			C366.933,200.09,363.11,196.267,358.4,196.267z"/>
	</g>
</g>
<g>
	<g>
		<path d="M324.267,179.2c-4.71,0-8.533,3.823-8.533,8.533V230.4c0,4.71,3.823,8.533,8.533,8.533s8.533-3.823,8.533-8.533v-42.667
			C332.8,183.023,328.977,179.2,324.267,179.2z"/>
	</g>
</g>
<g>
	<g>
		<path d="M426.667,196.267c-4.71,0-8.533,3.823-8.533,8.533v25.6c0,4.71,3.823,8.533,8.533,8.533s8.533-3.823,8.533-8.533v-25.6
			C435.2,200.09,431.377,196.267,426.667,196.267z"/>
	</g>
</g>
<g>
	<g>
		<path d="M392.533,179.2c-4.71,0-8.533,3.823-8.533,8.533V230.4c0,4.71,3.823,8.533,8.533,8.533c4.71,0,8.533-3.823,8.533-8.533
			v-42.667C401.067,183.023,397.244,179.2,392.533,179.2z"/>
	</g>
</g>
<g>
	<g>
		<path d="M426.667,0c-14.114,0-25.6,11.486-25.6,25.6v85.333c0,4.71,3.823,8.533,8.533,8.533h34.133
			c4.71,0,8.533-3.823,8.533-8.533V25.6C452.267,11.486,440.781,0,426.667,0z M435.2,102.4h-17.067V25.6
			c0-4.702,3.831-8.533,8.533-8.533s8.533,3.831,8.533,8.533V102.4z"/>
	</g>
</g>
<g>
	<g>
		<path d="M366.933,409.6H281.6c-4.71,0-8.533,3.823-8.533,8.533s3.823,8.533,8.533,8.533h85.333c4.71,0,8.533-3.823,8.533-8.533
			S371.644,409.6,366.933,409.6z"/>
	</g>
</g>
<g>
	<g>
		<path d="M366.933,256H281.6c-4.71,0-8.533,3.823-8.533,8.533c0,4.71,3.823,8.533,8.533,8.533h85.333
			c4.71,0,8.533-3.823,8.533-8.533C375.467,259.823,371.644,256,366.933,256z"/>
	</g>
</g>
<g>
</g>
<g>
</g>
<g>
</g>
<g>
</g>
<g>
</g>
<g>
</g>
<g>
</g>
<g>
</g>
<g>
</g>
<g>
</g>
<g>
</g>
<g>
</g>
<g>
</g>
<g>
</g>
<g>
</g>
</svg>
