<?xml version="1.0" encoding="iso-8859-1"?>
<!-- Generator: Adobe Illustrator 19.0.0, SVG Export Plug-In . SVG Version: 6.00 Build 0)  -->
<svg version="1.1" id="Capa_1" xmlns="http://www.w3.org/2000/svg" xmlns:xlink="http://www.w3.org/1999/xlink" x="0px" y="0px"
	 viewBox="0 0 512 512" style="enable-background:new 0 0 512 512;" xml:space="preserve">
<g>
	<g>
		<path d="M298.667,34.133h-85.333c-4.71,0-8.533,3.823-8.533,8.533c0,4.71,3.823,8.533,8.533,8.533h85.333
			c4.71,0,8.533-3.823,8.533-8.533C307.2,37.956,303.377,34.133,298.667,34.133z"/>
	</g>
</g>
<g>
	<g>
		<path d="M358.4,34.133h-8.533c-4.71,0-8.533,3.823-8.533,8.533c0,4.71,3.823,8.533,8.533,8.533h8.533
			c4.71,0,8.533-3.823,8.533-8.533C366.933,37.956,363.11,34.133,358.4,34.133z"/>
	</g>
</g>
<g>
	<g>
		<path d="M266.598,435.2H245.41c-12.979,0-23.543,10.564-23.543,23.544v4.113c0,12.979,10.564,23.543,23.535,23.543h21.188
			c12.979,0,23.543-10.564,23.543-23.544v-4.113C290.133,445.764,279.569,435.2,266.598,435.2z M273.067,462.857
			c0,3.575-2.901,6.477-6.468,6.477H245.41c-3.575,0-6.477-2.901-6.477-6.477v-4.113c0-3.575,2.901-6.477,6.477-6.477h21.18
			c3.576,0,6.477,2.901,6.477,6.477V462.857z"/>
	</g>
</g>
<g>
	<g>
		<path d="M370.227,0H141.781c-17.007,0-30.848,13.841-30.848,30.848v450.304c0,17.007,13.841,30.848,30.848,30.848h228.437
			c17.007,0,30.848-13.841,30.848-30.839V30.848C401.067,13.841,387.226,0,370.227,0z M384,481.152
			c0,7.595-6.178,13.781-13.773,13.781H141.781c-7.603,0-13.781-6.187-13.781-13.773V30.848c0-7.595,6.178-13.781,13.781-13.781
			h228.437c7.603,0,13.781,6.187,13.781,13.781V481.152z"/>
	</g>
</g>
<g>
	<g>
		<path d="M179.2,59.733h-25.6c-4.71,0-8.533,3.823-8.533,8.533v25.6c0,4.71,3.823,8.533,8.533,8.533s8.533-3.823,8.533-8.533V76.8
			H179.2c4.71,0,8.533-3.823,8.533-8.533S183.91,59.733,179.2,59.733z"/>
	</g>
</g>
<g>
	<g>
		<path d="M358.4,392.533c-4.71,0-8.533,3.823-8.533,8.533v17.067H332.8c-4.71,0-8.533,3.823-8.533,8.533s3.823,8.533,8.533,8.533
			h25.6c4.71,0,8.533-3.823,8.533-8.533v-25.6C366.933,396.356,363.11,392.533,358.4,392.533z"/>
	</g>
</g>
<g>
</g>
<g>
</g>
<g>
</g>
<g>
</g>
<g>
</g>
<g>
</g>
<g>
</g>
<g>
</g>
<g>
</g>
<g>
</g>
<g>
</g>
<g>
</g>
<g>
</g>
<g>
</g>
<g>
</g>
</svg>
