<?xml version="1.0" encoding="iso-8859-1"?>
<!-- Generator: Adobe Illustrator 19.0.0, SVG Export Plug-In . SVG Version: 6.00 Build 0)  -->
<svg version="1.1" id="Capa_1" xmlns="http://www.w3.org/2000/svg" xmlns:xlink="http://www.w3.org/1999/xlink" x="0px" y="0px"
	 viewBox="0 0 512 512" style="enable-background:new 0 0 512 512;" xml:space="preserve">
<g>
	<g>
		<path d="M475.733,128H36.267C16.273,128,0,144.273,0,164.267v183.467C0,367.727,16.273,384,36.267,384h439.467
			C495.727,384,512,367.727,512,347.733V164.267C512,144.273,495.727,128,475.733,128z M494.933,347.733
			c0,10.59-8.61,19.2-19.2,19.2H36.267c-10.59,0-19.2-8.61-19.2-19.2V164.267c0-10.59,8.61-19.2,19.2-19.2h439.467
			c10.59,0,19.2,8.61,19.2,19.2V347.733z"/>
	</g>
</g>
<g>
	<g>
		<path d="M469.333,162.133H42.667c-4.71,0-8.533,3.823-8.533,8.533v170.667c0,4.71,3.823,8.533,8.533,8.533h426.667
			c4.71,0,8.533-3.823,8.533-8.533V170.667C477.867,165.956,474.044,162.133,469.333,162.133z M460.8,332.8H51.2V179.2h409.6V332.8z
			"/>
	</g>
</g>
<g>
	<g>
		<path d="M110.933,366.933H42.667c-4.71,0-8.533,3.823-8.533,8.533V409.6c0,4.71,3.823,8.533,8.533,8.533h68.267
			c4.71,0,8.533-3.823,8.533-8.533v-34.133C119.467,370.756,115.644,366.933,110.933,366.933z M102.4,401.067H51.2V384h51.2V401.067
			z"/>
	</g>
</g>
<g>
	<g>
		<path d="M469.333,366.933h-68.267c-4.71,0-8.533,3.823-8.533,8.533V409.6c0,4.71,3.823,8.533,8.533,8.533h68.267
			c4.71,0,8.533-3.823,8.533-8.533v-34.133C477.867,370.756,474.044,366.933,469.333,366.933z M460.8,401.067h-51.2V384h51.2
			V401.067z"/>
	</g>
</g>
<g>
	<g>
		<path d="M366.933,93.867h-68.267c-4.71,0-8.533,3.823-8.533,8.533v34.133c0,4.71,3.823,8.533,8.533,8.533h68.267
			c4.71,0,8.533-3.823,8.533-8.533V102.4C375.467,97.69,371.644,93.867,366.933,93.867z M358.4,128h-51.2v-17.067h51.2V128z"/>
	</g>
</g>
<g>
	<g>
		<path d="M469.333,93.867h-68.267c-4.71,0-8.533,3.823-8.533,8.533v34.133c0,4.71,3.823,8.533,8.533,8.533h68.267
			c4.71,0,8.533-3.823,8.533-8.533V102.4C477.867,97.69,474.044,93.867,469.333,93.867z M460.8,128h-51.2v-17.067h51.2V128z"/>
	</g>
</g>
<g>
	<g>
		<path d="M256,264.533c-4.71,0-8.533,3.823-8.533,8.533v8.533c0,4.71,3.823,8.533,8.533,8.533s8.533-3.823,8.533-8.533v-8.533
			C264.533,268.356,260.71,264.533,256,264.533z"/>
	</g>
</g>
<g>
	<g>
		<path d="M256,221.867c-4.71,0-8.533,3.823-8.533,8.533v8.533c0,4.71,3.823,8.533,8.533,8.533s8.533-3.823,8.533-8.533V230.4
			C264.533,225.69,260.71,221.867,256,221.867z"/>
	</g>
</g>
<g>
	<g>
		<path d="M341.333,204.8h-51.2c-4.71,0-8.533,3.823-8.533,8.533v85.333c0,4.71,3.823,8.533,8.533,8.533h51.2
			c4.71,0,8.533-3.823,8.533-8.533v-85.333C349.867,208.623,346.044,204.8,341.333,204.8z M332.8,290.133h-34.133v-68.267H332.8
			V290.133z"/>
	</g>
</g>
<g>
	<g>
		<path d="M221.867,247.467H179.2v-25.6h42.667c4.71,0,8.533-3.823,8.533-8.533s-3.823-8.533-8.533-8.533h-51.2
			c-4.71,0-8.533,3.823-8.533,8.533V256c0,4.71,3.823,8.533,8.533,8.533h42.667v25.6h-42.667c-4.71,0-8.533,3.823-8.533,8.533
			c0,4.71,3.823,8.533,8.533,8.533h51.2c4.71,0,8.533-3.823,8.533-8.533V256C230.4,251.29,226.577,247.467,221.867,247.467z"/>
	</g>
</g>
<g>
	<g>
		<path d="M116.053,206.507c-3.78-2.825-9.122-2.048-11.947,1.707l-25.6,34.133c-2.825,3.772-2.065,9.122,1.707,11.947
			c1.536,1.152,3.337,1.707,5.112,1.707c2.594,0,5.163-1.178,6.835-3.413l25.6-34.133
			C120.585,214.682,119.825,209.331,116.053,206.507z"/>
	</g>
</g>
<g>
	<g>
		<path d="M110.933,204.8c-4.71,0-8.533,3.823-8.533,8.533v85.333c0,4.71,3.823,8.533,8.533,8.533s8.533-3.823,8.533-8.533v-85.333
			C119.467,208.623,115.644,204.8,110.933,204.8z"/>
	</g>
</g>
<g>
	<g>
		<path d="M136.533,290.133h-51.2c-4.71,0-8.533,3.823-8.533,8.533c0,4.71,3.823,8.533,8.533,8.533h51.2
			c4.71,0,8.533-3.823,8.533-8.533C145.067,293.956,141.244,290.133,136.533,290.133z"/>
	</g>
</g>
<g>
	<g>
		<path d="M426.667,204.8h-51.2c-4.71,0-8.533,3.823-8.533,8.533s3.823,8.533,8.533,8.533h42.667v25.6h-42.667
			c-4.71,0-8.533,3.823-8.533,8.533c0,4.71,3.823,8.533,8.533,8.533h51.2c4.71,0,8.533-3.823,8.533-8.533v-42.667
			C435.2,208.623,431.377,204.8,426.667,204.8z"/>
	</g>
</g>
<g>
	<g>
		<path d="M426.667,247.467h-51.2c-4.71,0-8.533,3.823-8.533,8.533c0,4.71,3.823,8.533,8.533,8.533h42.667v25.6h-42.667
			c-4.71,0-8.533,3.823-8.533,8.533c0,4.71,3.823,8.533,8.533,8.533h51.2c4.71,0,8.533-3.823,8.533-8.533V256
			C435.2,251.29,431.377,247.467,426.667,247.467z"/>
	</g>
</g>
<g>
</g>
<g>
</g>
<g>
</g>
<g>
</g>
<g>
</g>
<g>
</g>
<g>
</g>
<g>
</g>
<g>
</g>
<g>
</g>
<g>
</g>
<g>
</g>
<g>
</g>
<g>
</g>
<g>
</g>
</svg>
