<?xml version="1.0" encoding="iso-8859-1"?>
<!-- Generator: Adobe Illustrator 19.0.0, SVG Export Plug-In . SVG Version: 6.00 Build 0)  -->
<svg version="1.1" id="Capa_1" xmlns="http://www.w3.org/2000/svg" xmlns:xlink="http://www.w3.org/1999/xlink" x="0px" y="0px"
	 viewBox="0 0 512 512" style="enable-background:new 0 0 512 512;" xml:space="preserve">
<g>
	<g>
		<path d="M341.333,81.067c-65.877,0-119.467,53.589-119.467,119.467S275.456,320,341.333,320S460.8,266.411,460.8,200.533
			S407.211,81.067,341.333,81.067z M341.333,302.933c-56.465,0-102.4-45.935-102.4-102.4s45.935-102.4,102.4-102.4
			c56.465,0,102.4,45.935,102.4,102.4S397.798,302.933,341.333,302.933z"/>
	</g>
</g>
<g>
	<g>
		<path d="M341.333,115.2c-47.053,0-85.333,38.281-85.333,85.333s38.281,85.333,85.333,85.333s85.333-38.281,85.333-85.333
			S388.386,115.2,341.333,115.2z M341.333,268.8c-37.641,0-68.267-30.626-68.267-68.267c0-37.641,30.626-68.267,68.267-68.267
			c37.641,0,68.267,30.626,68.267,68.267S378.974,268.8,341.333,268.8z"/>
	</g>
</g>
<g>
	<g>
		<path d="M375.467,192c-4.71,0-8.533,3.823-8.533,8.533c0,14.114-11.486,25.6-25.6,25.6s-25.6-11.486-25.6-25.6
			s11.486-25.6,25.6-25.6c4.71,0,8.533-3.823,8.533-8.533c0-4.71-3.823-8.533-8.533-8.533c-23.526,0-42.667,19.14-42.667,42.667
			s19.14,42.667,42.667,42.667c23.526,0,42.667-19.14,42.667-42.667C384,195.823,380.177,192,375.467,192z"/>
	</g>
</g>
<g>
	<g>
		<path d="M102.4,379.733H34.133c-4.71,0-8.533,3.823-8.533,8.533V422.4c0,4.71,3.823,8.533,8.533,8.533H102.4
			c4.71,0,8.533-3.823,8.533-8.533v-34.133C110.933,383.556,107.11,379.733,102.4,379.733z M93.867,413.867h-51.2V396.8h51.2
			V413.867z"/>
	</g>
</g>
<g>
	<g>
		<path d="M477.867,379.733H409.6c-4.71,0-8.533,3.823-8.533,8.533V422.4c0,4.71,3.823,8.533,8.533,8.533h68.267
			c4.71,0,8.533-3.823,8.533-8.533v-34.133C486.4,383.556,482.577,379.733,477.867,379.733z M469.333,413.867h-51.2V396.8h51.2
			V413.867z"/>
	</g>
</g>
<g>
	<g>
		<path d="M196.267,226.133h-153.6c-4.71,0-8.533,3.823-8.533,8.533v68.267c0,4.71,3.823,8.533,8.533,8.533h153.6
			c4.71,0,8.533-3.823,8.533-8.533v-68.267C204.8,229.956,200.977,226.133,196.267,226.133z M187.733,294.4H51.2v-51.2h136.533
			V294.4z"/>
	</g>
</g>
<g>
	<g>
		<path d="M102.4,260.267H76.8c-4.71,0-8.533,3.823-8.533,8.533s3.823,8.533,8.533,8.533h25.6c4.71,0,8.533-3.823,8.533-8.533
			S107.11,260.267,102.4,260.267z"/>
	</g>
</g>
<g>
	<g>
		<path d="M162.133,260.267h-25.6c-4.71,0-8.533,3.823-8.533,8.533s3.823,8.533,8.533,8.533h25.6c4.71,0,8.533-3.823,8.533-8.533
			S166.844,260.267,162.133,260.267z"/>
	</g>
</g>
<g>
	<g>
		<path d="M196.267,337.067h-153.6c-4.71,0-8.533,3.823-8.533,8.533c0,4.71,3.823,8.533,8.533,8.533h153.6
			c4.71,0,8.533-3.823,8.533-8.533C204.8,340.89,200.977,337.067,196.267,337.067z"/>
	</g>
</g>
<g>
	<g>
		<path d="M477.892,192h-25.626c-4.71,0-8.533,3.823-8.533,8.533c0,56.465-45.935,102.4-102.4,102.4
			c-56.465,0-102.4-45.935-102.4-102.4c0-4.71-3.823-8.533-8.533-8.533H34.108C15.3,192,0,207.3,0,226.108v136.585
			C0,381.5,15.3,396.8,34.108,396.8h443.785C496.7,396.8,512,381.5,512,362.692V226.108C512,207.3,496.7,192,477.892,192z
			 M494.933,362.692c0,9.395-7.646,17.041-17.041,17.041H34.108c-9.395,0-17.041-7.646-17.041-17.041V226.108
			c0-9.395,7.646-17.041,17.041-17.041h188.058C226.56,270.967,278.332,320,341.333,320s114.773-49.033,119.168-110.933h17.391
			c9.395,0,17.041,7.646,17.041,17.041V362.692z"/>
	</g>
</g>
<g>
	<g>
		<path d="M469.333,311.467H435.2c-4.71,0-8.533,3.823-8.533,8.533v34.133c0,4.71,3.823,8.533,8.533,8.533h34.133
			c4.71,0,8.533-3.823,8.533-8.533V320C477.867,315.29,474.044,311.467,469.333,311.467z M460.8,345.6h-17.067v-17.067H460.8V345.6z
			"/>
	</g>
</g>
<g>
</g>
<g>
</g>
<g>
</g>
<g>
</g>
<g>
</g>
<g>
</g>
<g>
</g>
<g>
</g>
<g>
</g>
<g>
</g>
<g>
</g>
<g>
</g>
<g>
</g>
<g>
</g>
<g>
</g>
</svg>
