<?xml version="1.0" encoding="iso-8859-1"?>
<!-- Generator: Adobe Illustrator 19.0.0, SVG Export Plug-In . SVG Version: 6.00 Build 0)  -->
<svg version="1.1" id="Capa_1" xmlns="http://www.w3.org/2000/svg" xmlns:xlink="http://www.w3.org/1999/xlink" x="0px" y="0px"
	 viewBox="0 0 512 512" style="enable-background:new 0 0 512 512;" xml:space="preserve">
<g>
	<g>
		<path d="M123.733,0C62.566,0,12.8,49.766,12.8,110.933s49.766,110.933,110.933,110.933S234.667,172.1,234.667,110.933
			S184.9,0,123.733,0z M123.733,204.8c-51.755,0-93.867-42.112-93.867-93.867c0-51.755,42.112-93.867,93.867-93.867
			c51.755,0,93.867,42.112,93.867,93.867C217.6,162.688,175.488,204.8,123.733,204.8z"/>
	</g>
</g>
<g>
	<g>
		<path d="M123.733,34.133c-42.351,0-76.8,34.458-76.8,76.8s34.449,76.8,76.8,76.8c42.351,0,76.8-34.458,76.8-76.8
			S166.084,34.133,123.733,34.133z M123.733,170.667C90.795,170.667,64,143.872,64,110.933S90.795,51.2,123.733,51.2
			s59.733,26.795,59.733,59.733S156.672,170.667,123.733,170.667z"/>
	</g>
</g>
<g>
	<g>
		<path d="M157.867,102.4c-4.71,0-8.533,3.823-8.533,8.533c0,14.114-11.486,25.6-25.6,25.6s-25.6-11.486-25.6-25.6
			s11.486-25.6,25.6-25.6c4.71,0,8.533-3.823,8.533-8.533s-3.823-8.533-8.533-8.533c-23.526,0-42.667,19.14-42.667,42.667
			c0,23.526,19.14,42.667,42.667,42.667c23.526,0,42.667-19.14,42.667-42.667C166.4,106.223,162.577,102.4,157.867,102.4z"/>
	</g>
</g>
<g>
	<g>
		<path d="M211.533,159.326c-3.61-1.075-7.492,0.316-9.574,3.448c-17.476,26.317-46.72,42.027-78.225,42.027
			s-60.749-15.71-78.225-42.035c-2.082-3.132-5.965-4.523-9.574-3.448c-3.601,1.092-6.067,4.412-6.067,8.175v318.899
			c0,14.114,11.494,25.609,25.617,25.609h136.499c14.123,0,25.617-11.494,25.617-25.609V167.492
			C217.6,163.729,215.134,160.41,211.533,159.326z M200.533,486.391c0,4.71-3.831,8.542-8.542,8.542H55.484
			c-4.719,0-8.55-3.831-8.55-8.542V190.959c20.446,19.661,47.812,30.908,76.8,30.908s56.354-11.247,76.8-30.908V486.391z"/>
	</g>
</g>
<g>
	<g>
		<path d="M140.8,264.533h-34.133c-4.71,0-8.533,3.823-8.533,8.533V307.2c0,4.71,3.823,8.533,8.533,8.533H140.8
			c4.71,0,8.533-3.823,8.533-8.533v-34.133C149.333,268.356,145.51,264.533,140.8,264.533z M132.267,298.667H115.2V281.6h17.067
			V298.667z"/>
	</g>
</g>
<g>
	<g>
		<path d="M123.733,204.8c-4.71,0-8.533,3.823-8.533,8.533v59.733c0,4.71,3.823,8.533,8.533,8.533s8.533-3.823,8.533-8.533v-59.733
			C132.267,208.623,128.444,204.8,123.733,204.8z"/>
	</g>
</g>
<g>
	<g>
		<path d="M174.933,426.667h-102.4c-4.71,0-8.533,3.823-8.533,8.533v34.133c0,4.71,3.823,8.533,8.533,8.533h102.4
			c4.71,0,8.533-3.823,8.533-8.533V435.2C183.467,430.49,179.644,426.667,174.933,426.667z M166.4,460.8H81.067v-17.067H166.4V460.8
			z"/>
	</g>
</g>
<g>
	<g>
		<path d="M294.4,238.933h-85.333c-4.71,0-8.533,3.823-8.533,8.533v68.267c0,4.71,3.823,8.533,8.533,8.533H294.4
			c23.526,0,42.667-19.14,42.667-42.667C337.067,258.074,317.926,238.933,294.4,238.933z M294.4,307.2h-76.8V256h76.8
			c14.114,0,25.6,11.486,25.6,25.6S308.514,307.2,294.4,307.2z"/>
	</g>
</g>
<g>
	<g>
		<path d="M473.583,170.667H268.817c-14.123,0-25.617,11.494-25.617,25.617v51.183c0,4.71,3.823,8.533,8.533,8.533h41.199
			c13.875,0,25.711,10.129,26.94,23.057c0.7,7.339-1.621,14.353-6.528,19.755c-4.838,5.333-11.75,8.388-18.944,8.388h-42.667
			c-4.71,0-8.533,3.823-8.533,8.533v51.183c0,14.123,11.494,25.617,25.617,25.617h204.766c14.123,0,25.617-11.494,25.617-25.617
			V196.284C499.2,182.161,487.706,170.667,473.583,170.667z M482.133,366.916c0,4.71-3.831,8.55-8.55,8.55H268.817
			c-4.719,0-8.55-3.84-8.55-8.55v-42.65H294.4c11.998,0,23.501-5.094,31.573-13.969c8.064-8.875,12.032-20.847,10.889-32.862
			c-2.057-21.589-21.35-38.502-43.93-38.502h-32.666v-42.65c0-4.71,3.831-8.55,8.55-8.55h204.766c4.719,0,8.55,3.84,8.55,8.55
			V366.916z"/>
	</g>
</g>
<g>
	<g>
		<path d="M473.583,170.667h-17.05c-4.71,0-8.533,3.823-8.533,8.533V384c0,4.71,3.823,8.533,8.533,8.533h17.05
			c14.123,0,25.617-11.494,25.617-25.617V196.284C499.2,182.161,487.706,170.667,473.583,170.667z M482.133,366.916
			c0,4.71-3.831,8.55-8.55,8.55h-8.516V187.733h8.516c4.719,0,8.55,3.84,8.55,8.55V366.916z"/>
	</g>
</g>
<g>
	<g>
		<path d="M174.933,392.533h-102.4c-4.71,0-8.533,3.823-8.533,8.533s3.823,8.533,8.533,8.533h102.4c4.71,0,8.533-3.823,8.533-8.533
			S179.644,392.533,174.933,392.533z"/>
	</g>
</g>
<g>
	<g>
		<path d="M157.867,358.4H89.6c-4.71,0-8.533,3.823-8.533,8.533s3.823,8.533,8.533,8.533h68.267c4.71,0,8.533-3.823,8.533-8.533
			S162.577,358.4,157.867,358.4z"/>
	</g>
</g>
<g>
</g>
<g>
</g>
<g>
</g>
<g>
</g>
<g>
</g>
<g>
</g>
<g>
</g>
<g>
</g>
<g>
</g>
<g>
</g>
<g>
</g>
<g>
</g>
<g>
</g>
<g>
</g>
<g>
</g>
</svg>
