<?xml version="1.0" encoding="iso-8859-1"?>
<!-- Generator: Adobe Illustrator 19.0.0, SVG Export Plug-In . SVG Version: 6.00 Build 0)  -->
<svg version="1.1" id="Capa_1" xmlns="http://www.w3.org/2000/svg" xmlns:xlink="http://www.w3.org/1999/xlink" x="0px" y="0px"
	 viewBox="0 0 512 512" style="enable-background:new 0 0 512 512;" xml:space="preserve">
<g>
	<g>
		<path d="M435.2,221.867h-88.593l-14.703-29.414c-1.451-2.893-4.403-4.719-7.637-4.719H187.733c-3.234,0-6.187,1.826-7.637,4.719
			l-14.703,29.414H76.8c-18.825,0-34.133,15.309-34.133,34.133v221.867C42.667,496.691,57.975,512,76.8,512h358.4
			c18.825,0,34.133-15.309,34.133-34.133V256C469.333,237.175,454.025,221.867,435.2,221.867z M452.267,477.867
			c0,9.412-7.654,17.067-17.067,17.067H76.8c-9.412,0-17.067-7.654-17.067-17.067V256c0-9.412,7.654-17.067,17.067-17.067h93.867
			c3.234,0,6.187-1.826,7.637-4.719l14.703-29.414h125.986l14.703,29.414c1.451,2.893,4.403,4.719,7.637,4.719H435.2
			c9.412,0,17.067,7.654,17.067,17.067V477.867z"/>
	</g>
</g>
<g>
	<g>
		<path d="M290.133,153.6h-68.267c-4.71,0-8.533,3.823-8.533,8.533v34.133c0,4.71,3.823,8.533,8.533,8.533h68.267
			c4.71,0,8.533-3.823,8.533-8.533v-34.133C298.667,157.423,294.844,153.6,290.133,153.6z M281.6,187.733h-51.2v-17.067h51.2
			V187.733z"/>
	</g>
</g>
<g>
	<g>
		<path d="M331.529,123.511c-1.562-2.509-4.301-4.045-7.262-4.045H187.733c-2.961,0-5.7,1.536-7.262,4.045
			c-1.553,2.517-1.698,5.658-0.375,8.303l17.067,34.133c1.451,2.893,4.403,4.719,7.637,4.719h102.4c3.234,0,6.187-1.826,7.637-4.719
			l17.067-34.133C333.227,129.169,333.082,126.029,331.529,123.511z M301.926,153.6h-91.853l-8.533-17.067H310.46L301.926,153.6z"/>
	</g>
</g>
<g>
	<g>
		<path d="M332.8,0H179.191C165.077,0,153.6,11.486,153.6,25.6v85.333c0,14.114,11.477,25.6,25.591,25.6h153.617
			c14.114,0,25.591-11.486,25.591-25.6V25.6C358.4,11.486,346.923,0,332.8,0z M341.333,110.933c0,4.71-3.823,8.533-8.533,8.533
			H179.191c-4.702,0-8.525-3.831-8.525-8.533V25.6c0-4.71,3.823-8.533,8.525-8.533h153.617c4.702,0,8.525,3.831,8.525,8.533V110.933
			z"/>
	</g>
</g>
<g>
	<g>
		<path d="M119.467,256H85.333c-4.71,0-8.533,3.823-8.533,8.533v34.133c0,4.71,3.823,8.533,8.533,8.533h34.133
			c4.71,0,8.533-3.823,8.533-8.533v-34.133C128,259.823,124.177,256,119.467,256z M110.933,290.133H93.867v-17.067h17.067V290.133z"
			/>
	</g>
</g>
<g>
	<g>
		<path d="M256,256c-61.167,0-110.933,49.766-110.933,110.933S194.833,477.867,256,477.867S366.933,428.1,366.933,366.933
			S317.167,256,256,256z M256,460.8c-51.755,0-93.867-42.112-93.867-93.867s42.112-93.867,93.867-93.867
			s93.867,42.112,93.867,93.867S307.755,460.8,256,460.8z"/>
	</g>
</g>
<g>
	<g>
		<path d="M256,290.133c-42.351,0-76.8,34.458-76.8,76.8s34.449,76.8,76.8,76.8s76.8-34.458,76.8-76.8S298.351,290.133,256,290.133z
			 M256,426.667c-32.939,0-59.733-26.795-59.733-59.733S223.061,307.2,256,307.2s59.733,26.795,59.733,59.733
			S288.939,426.667,256,426.667z"/>
	</g>
</g>
<g>
	<g>
		<path d="M281.6,358.4c-4.71,0-8.533,3.823-8.533,8.533c0,9.412-7.654,17.067-17.067,17.067s-17.067-7.654-17.067-17.067
			s7.654-17.067,17.067-17.067c4.71,0,8.533-3.823,8.533-8.533S260.71,332.8,256,332.8c-18.825,0-34.133,15.309-34.133,34.133
			s15.309,34.133,34.133,34.133s34.133-15.309,34.133-34.133C290.133,362.223,286.31,358.4,281.6,358.4z"/>
	</g>
</g>
<g>
	<g>
		<path d="M435.174,221.867h-34.108V512h34.108c18.833,0,34.159-15.317,34.159-34.159V256.017
			C469.333,237.184,454.007,221.867,435.174,221.867z M452.267,477.85c0,9.421-7.663,17.084-17.092,17.084h-17.041v-256h17.041
			c9.429,0,17.092,7.663,17.092,17.084V477.85z"/>
	</g>
</g>
<g>
	<g>
		<path d="M290.133,42.667h-128c-4.71,0-8.533,3.823-8.533,8.533s3.823,8.533,8.533,8.533h128c4.71,0,8.533-3.823,8.533-8.533
			S294.844,42.667,290.133,42.667z"/>
	</g>
</g>
<g>
	<g>
		<path d="M349.867,42.667h-25.6c-4.71,0-8.533,3.823-8.533,8.533s3.823,8.533,8.533,8.533h25.6c4.71,0,8.533-3.823,8.533-8.533
			S354.577,42.667,349.867,42.667z"/>
	</g>
</g>
<g>
	<g>
		<path d="M349.867,76.8h-128c-4.71,0-8.533,3.823-8.533,8.533c0,4.71,3.823,8.533,8.533,8.533h128c4.71,0,8.533-3.823,8.533-8.533
			C358.4,80.623,354.577,76.8,349.867,76.8z"/>
	</g>
</g>
<g>
	<g>
		<path d="M187.733,76.8h-25.6c-4.71,0-8.533,3.823-8.533,8.533c0,4.71,3.823,8.533,8.533,8.533h25.6
			c4.71,0,8.533-3.823,8.533-8.533C196.267,80.623,192.444,76.8,187.733,76.8z"/>
	</g>
</g>
<g>
	<g>
		<path d="M136.533,187.733h-51.2c-4.71,0-8.533,3.823-8.533,8.533V230.4c0,4.71,3.823,8.533,8.533,8.533h51.2
			c4.71,0,8.533-3.823,8.533-8.533v-34.133C145.067,191.556,141.244,187.733,136.533,187.733z M128,221.867H93.867V204.8H128
			V221.867z"/>
	</g>
</g>
<g>
	<g>
		<path d="M392.533,196.267c-4.71,0-8.533,3.823-8.533,8.533v25.6c0,4.71,3.823,8.533,8.533,8.533s8.533-3.823,8.533-8.533v-25.6
			C401.067,200.09,397.244,196.267,392.533,196.267z"/>
	</g>
</g>
<g>
	<g>
		<path d="M415.633,181.7c-3.328-3.336-8.738-3.336-12.066,0L386.5,198.767c-3.336,3.336-3.336,8.73,0,12.066
			c1.664,1.664,3.849,2.5,6.033,2.5c2.185,0,4.369-0.836,6.033-2.5l17.067-17.067C418.97,190.43,418.97,185.037,415.633,181.7z"/>
	</g>
</g>
<g>
	<g>
		<path d="M398.566,198.767L381.5,181.7c-3.328-3.336-8.738-3.336-12.066,0c-3.336,3.337-3.336,8.73,0,12.066l17.067,17.067
			c1.664,1.664,3.849,2.5,6.033,2.5c2.185,0,4.369-0.836,6.033-2.5C401.903,207.497,401.903,202.104,398.566,198.767z"/>
	</g>
</g>
<g>
	<g>
		<path d="M290.133,221.867h-68.267c-4.71,0-8.533,3.823-8.533,8.533s3.823,8.533,8.533,8.533h68.267
			c4.71,0,8.533-3.823,8.533-8.533S294.844,221.867,290.133,221.867z"/>
	</g>
</g>
<g>
	<g>
		<path d="M51.2,409.6c-4.71,0-8.533,3.823-8.533,8.533v59.733C42.667,496.691,57.975,512,76.8,512h59.733
			c4.71,0,8.533-3.823,8.533-8.533C145.067,451.712,102.955,409.6,51.2,409.6z M76.8,494.933c-9.412,0-17.067-7.654-17.067-17.067
			v-50.731c35.541,3.951,63.846,32.256,67.797,67.797H76.8z"/>
	</g>
</g>
<g>
</g>
<g>
</g>
<g>
</g>
<g>
</g>
<g>
</g>
<g>
</g>
<g>
</g>
<g>
</g>
<g>
</g>
<g>
</g>
<g>
</g>
<g>
</g>
<g>
</g>
<g>
</g>
<g>
</g>
</svg>
