<?xml version="1.0" encoding="iso-8859-1"?>
<!-- Generator: Adobe Illustrator 19.0.0, SVG Export Plug-In . SVG Version: 6.00 Build 0)  -->
<svg version="1.1" id="Capa_1" xmlns="http://www.w3.org/2000/svg" xmlns:xlink="http://www.w3.org/1999/xlink" x="0px" y="0px"
	 viewBox="0 0 512 512" style="enable-background:new 0 0 512 512;" xml:space="preserve">
<g>
	<g>
		<path d="M128,204.8H25.609C11.486,204.8,0,216.286,0,230.4v221.867c0,14.114,11.486,25.6,25.609,25.6h102.383
			c14.123,0,25.609-11.486,25.609-25.6V230.4C153.6,216.286,142.114,204.8,128,204.8z M136.533,452.267
			c0,4.702-3.831,8.533-8.533,8.533H25.609c-4.71,0-8.542-3.823-8.542-8.533V230.4c0-4.702,3.831-8.533,8.542-8.533h102.383
			c4.71,0,8.542,3.823,8.542,8.533V452.267z"/>
	</g>
</g>
<g>
	<g>
		<path d="M110.933,170.667H42.667c-4.71,0-8.533,3.823-8.533,8.533v34.133c0,4.71,3.823,8.533,8.533,8.533h68.267
			c4.71,0,8.533-3.823,8.533-8.533V179.2C119.467,174.49,115.644,170.667,110.933,170.667z M102.4,204.8H51.2v-17.067h51.2V204.8z"
			/>
	</g>
</g>
<g>
	<g>
		<path d="M128,34.133H76.8c-32.939,0-59.733,26.795-59.733,59.733S43.861,153.6,76.8,153.6H128c4.71,0,8.533-3.823,8.533-8.533
			v-102.4C136.533,37.956,132.71,34.133,128,34.133z M119.467,136.533H76.8c-23.526,0-42.667-19.14-42.667-42.667
			C34.133,70.34,53.274,51.2,76.8,51.2h42.667V136.533z"/>
	</g>
</g>
<g>
	<g>
		<path d="M93.867,136.533H59.733c-4.71,0-8.533,3.823-8.533,8.533V179.2c0,4.71,3.823,8.533,8.533,8.533h34.133
			c4.71,0,8.533-3.823,8.533-8.533v-34.133C102.4,140.356,98.577,136.533,93.867,136.533z M85.333,170.667H68.267V153.6h17.067
			V170.667z"/>
	</g>
</g>
<g>
	<g>
		<path d="M128,34.133H93.867c-4.71,0-8.533,3.823-8.533,8.533v102.4c0,4.71,3.823,8.533,8.533,8.533H128
			c4.71,0,8.533-3.823,8.533-8.533v-102.4C136.533,37.956,132.71,34.133,128,34.133z M119.467,136.533H102.4V51.2h17.067V136.533z"
			/>
	</g>
</g>
<g>
	<g>
		<path d="M230.4,273.067h-51.2c-4.71,0-8.533,3.823-8.533,8.533v119.467c0,4.71,3.823,8.533,8.533,8.533h51.2
			c4.71,0,8.533-3.823,8.533-8.533V281.6C238.933,276.89,235.11,273.067,230.4,273.067z M221.867,392.533h-34.133v-102.4h34.133
			V392.533z"/>
	</g>
</g>
<g>
	<g>
		<path d="M332.8,256H230.4c-4.71,0-8.533,3.823-8.533,8.533v153.6c0,4.71,3.823,8.533,8.533,8.533h102.4
			c4.71,0,8.533-3.823,8.533-8.533v-153.6C341.333,259.823,337.51,256,332.8,256z M324.267,409.6h-85.333V273.067h85.333V409.6z"/>
	</g>
</g>
<g>
	<g>
		<path d="M418.133,256H332.8c-4.71,0-8.533,3.823-8.533,8.533v153.6c0,4.71,3.823,8.533,8.533,8.533h85.333
			c4.71,0,8.533-3.823,8.533-8.533v-153.6C426.667,259.823,422.844,256,418.133,256z M409.6,409.6h-68.267V273.067H409.6V409.6z"/>
	</g>
</g>
<g>
	<g>
		<path d="M503.467,221.867h-51.191c-23.526,0-42.675,19.149-42.675,42.675v153.583c0,23.526,19.149,42.675,42.675,42.675h51.191
			c4.71,0,8.533-3.823,8.533-8.533V230.4C512,225.69,508.177,221.867,503.467,221.867z M494.933,443.733h-42.658
			c-14.123,0-25.609-11.494-25.609-25.617V264.542c0-14.114,11.486-25.609,25.609-25.609h42.658V443.733z"/>
	</g>
</g>
<g>
	<g>
		<path d="M179.2,290.133h-34.133c-4.71,0-8.533,3.823-8.533,8.533V384c0,4.71,3.823,8.533,8.533,8.533H179.2
			c4.71,0,8.533-3.823,8.533-8.533v-85.333C187.733,293.956,183.91,290.133,179.2,290.133z M170.667,375.467H153.6V307.2h17.067
			V375.467z"/>
	</g>
</g>
<g>
	<g>
		<path d="M418.133,290.133H332.8c-4.71,0-8.533,3.823-8.533,8.533c0,4.71,3.823,8.533,8.533,8.533h85.333
			c4.71,0,8.533-3.823,8.533-8.533C426.667,293.956,422.844,290.133,418.133,290.133z"/>
	</g>
</g>
<g>
	<g>
		<path d="M418.133,375.467H332.8c-4.71,0-8.533,3.823-8.533,8.533s3.823,8.533,8.533,8.533h85.333c4.71,0,8.533-3.823,8.533-8.533
			S422.844,375.467,418.133,375.467z"/>
	</g>
</g>
<g>
	<g>
		<path d="M418.133,332.8H332.8c-4.71,0-8.533,3.823-8.533,8.533s3.823,8.533,8.533,8.533h85.333c4.71,0,8.533-3.823,8.533-8.533
			S422.844,332.8,418.133,332.8z"/>
	</g>
</g>
<g>
	<g>
		<path d="M93.867,238.933H59.733c-4.71,0-8.533,3.823-8.533,8.533V281.6c0,4.71,3.823,8.533,8.533,8.533h34.133
			c4.71,0,8.533-3.823,8.533-8.533v-34.133C102.4,242.756,98.577,238.933,93.867,238.933z M85.333,273.067H68.267V256h17.067
			V273.067z"/>
	</g>
</g>
<g>
	<g>
		<path d="M93.867,392.533H59.733c-4.71,0-8.533,3.823-8.533,8.533V435.2c0,4.71,3.823,8.533,8.533,8.533h34.133
			c4.71,0,8.533-3.823,8.533-8.533v-34.133C102.4,396.356,98.577,392.533,93.867,392.533z M85.333,426.667H68.267V409.6h17.067
			V426.667z"/>
	</g>
</g>
<g>
	<g>
		<path d="M93.867,315.733H59.733c-4.71,0-8.533,3.823-8.533,8.533s3.823,8.533,8.533,8.533h34.133c4.71,0,8.533-3.823,8.533-8.533
			S98.577,315.733,93.867,315.733z"/>
	</g>
</g>
<g>
	<g>
		<path d="M93.867,349.867H59.733c-4.71,0-8.533,3.823-8.533,8.533s3.823,8.533,8.533,8.533h34.133c4.71,0,8.533-3.823,8.533-8.533
			S98.577,349.867,93.867,349.867z"/>
	</g>
</g>
<g>
	<g>
		<path d="M469.333,221.867c-4.71,0-8.533,3.823-8.533,8.533v162.133c0,4.71,3.823,8.533,8.533,8.533s8.533-3.823,8.533-8.533V230.4
			C477.867,225.69,474.044,221.867,469.333,221.867z"/>
	</g>
</g>
<g>
	<g>
		<path d="M469.333,418.133c-4.71,0-8.533,3.823-8.533,8.533v25.6c0,4.71,3.823,8.533,8.533,8.533s8.533-3.823,8.533-8.533v-25.6
			C477.867,421.956,474.044,418.133,469.333,418.133z"/>
	</g>
</g>
<g>
</g>
<g>
</g>
<g>
</g>
<g>
</g>
<g>
</g>
<g>
</g>
<g>
</g>
<g>
</g>
<g>
</g>
<g>
</g>
<g>
</g>
<g>
</g>
<g>
</g>
<g>
</g>
<g>
</g>
</svg>
