<?xml version="1.0" encoding="iso-8859-1"?>
<!-- Generator: Adobe Illustrator 19.0.0, SVG Export Plug-In . SVG Version: 6.00 Build 0)  -->
<svg version="1.1" id="Capa_1" xmlns="http://www.w3.org/2000/svg" xmlns:xlink="http://www.w3.org/1999/xlink" x="0px" y="0px"
	 viewBox="0 0 512 512" style="enable-background:new 0 0 512 512;" xml:space="preserve">
<g>
	<g>
		<path d="M452.301,42.667H59.708C26.786,42.667,0,69.453,0,102.374v238.985c0,32.922,26.786,59.708,59.708,59.708h392.585
			c32.922,0,59.708-26.786,59.708-59.699V102.374C512,69.453,485.214,42.667,452.301,42.667z M494.933,341.359
			c0,23.509-19.123,42.641-42.633,42.641H59.708c-23.518,0-42.641-19.132-42.641-42.633V102.374
			c0-23.509,19.123-42.641,42.641-42.641h392.585c23.518,0,42.641,19.132,42.641,42.641V341.359z"/>
	</g>
</g>
<g>
	<g>
		<path d="M204.8,85.333H51.2c-4.71,0-8.533,3.823-8.533,8.533V230.4c0,4.71,3.823,8.533,8.533,8.533h153.6
			c4.71,0,8.533-3.823,8.533-8.533V93.867C213.333,89.156,209.51,85.333,204.8,85.333z M196.267,221.867H59.733V102.4h136.533
			V221.867z"/>
	</g>
</g>
<g>
	<g>
		<path d="M460.8,85.333H238.933c-4.71,0-8.533,3.823-8.533,8.533v221.867c0,4.71,3.823,8.533,8.533,8.533H460.8
			c4.71,0,8.533-3.823,8.533-8.533V93.867C469.333,89.156,465.51,85.333,460.8,85.333z M452.267,307.2h-204.8V102.4h204.8V307.2z"/>
	</g>
</g>
<g>
	<g>
		<path d="M349.867,119.467c-47.053,0-85.333,38.281-85.333,85.333s38.281,85.333,85.333,85.333S435.2,251.853,435.2,204.8
			S396.919,119.467,349.867,119.467z M349.867,273.067c-37.641,0-68.267-30.626-68.267-68.267c0-37.641,30.626-68.267,68.267-68.267
			c37.641,0,68.267,30.626,68.267,68.267C418.133,242.441,387.507,273.067,349.867,273.067z"/>
	</g>
</g>
<g>
	<g>
		<path d="M119.467,435.2H8.533c-4.71,0-8.533,3.823-8.533,8.533v51.2c0,4.71,3.823,8.533,8.533,8.533h110.933
			c18.825,0,34.133-15.309,34.133-34.133C153.6,450.509,138.291,435.2,119.467,435.2z M119.467,486.4h-102.4v-34.133h102.4
			c9.412,0,17.067,7.654,17.067,17.067C136.533,478.746,128.879,486.4,119.467,486.4z"/>
	</g>
</g>
<g>
	<g>
		<path d="M384,384H196.267c-4.71,0-8.533,3.823-8.533,8.533v34.133c0,4.71,3.823,8.533,8.533,8.533H384
			c4.71,0,8.533-3.823,8.533-8.533v-34.133C392.533,387.823,388.71,384,384,384z M375.467,418.133H204.8v-17.067h170.667V418.133z"
			/>
	</g>
</g>
<g>
	<g>
		<path d="M341.333,418.133h-102.4c-4.71,0-8.533,3.823-8.533,8.533v68.267c0,4.71,3.823,8.533,8.533,8.533h102.4
			c4.71,0,8.533-3.823,8.533-8.533v-68.267C349.867,421.956,346.044,418.133,341.333,418.133z M332.8,486.4h-85.333v-51.2H332.8
			V486.4z"/>
	</g>
</g>
<g>
	<g>
		<path d="M119.467,8.533H51.2c-4.71,0-8.533,3.823-8.533,8.533V51.2c0,4.71,3.823,8.533,8.533,8.533h68.267
			c4.71,0,8.533-3.823,8.533-8.533V17.067C128,12.356,124.177,8.533,119.467,8.533z M110.933,42.667h-51.2V25.6h51.2V42.667z"/>
	</g>
</g>
<g>
	<g>
		<path d="M349.867,153.6c-28.228,0-51.2,22.963-51.2,51.2s22.972,51.2,51.2,51.2s51.2-22.963,51.2-51.2
			S378.095,153.6,349.867,153.6z M349.867,238.933c-18.825,0-34.133-15.309-34.133-34.133s15.309-34.133,34.133-34.133
			c18.825,0,34.133,15.309,34.133,34.133S368.691,238.933,349.867,238.933z"/>
	</g>
</g>
<g>
	<g>
		<rect x="145.067" y="460.8" width="93.867" height="17.067"/>
	</g>
</g>
<g>
	<g>
		<path d="M384,460.8h-42.667c-4.71,0-8.533,3.823-8.533,8.533s3.823,8.533,8.533,8.533H384c4.71,0,8.533-3.823,8.533-8.533
			S388.71,460.8,384,460.8z"/>
	</g>
</g>
<g>
	<g>
		<path d="M102.4,119.467H85.333c-4.71,0-8.533,3.823-8.533,8.533v17.067c0,4.71,3.823,8.533,8.533,8.533
			c4.71,0,8.533-3.823,8.533-8.533v-8.533h8.533c4.71,0,8.533-3.823,8.533-8.533S107.11,119.467,102.4,119.467z"/>
	</g>
</g>
<g>
	<g>
		<path d="M170.667,119.467H153.6c-4.71,0-8.533,3.823-8.533,8.533s3.823,8.533,8.533,8.533h8.533v8.533
			c0,4.71,3.823,8.533,8.533,8.533s8.533-3.823,8.533-8.533V128C179.2,123.29,175.377,119.467,170.667,119.467z"/>
	</g>
</g>
<g>
	<g>
		<path d="M170.667,170.667c-4.71,0-8.533,3.823-8.533,8.533v8.533H153.6c-4.71,0-8.533,3.823-8.533,8.533s3.823,8.533,8.533,8.533
			h17.067c4.71,0,8.533-3.823,8.533-8.533V179.2C179.2,174.49,175.377,170.667,170.667,170.667z"/>
	</g>
</g>
<g>
	<g>
		<path d="M102.4,187.733h-8.533V179.2c0-4.71-3.823-8.533-8.533-8.533c-4.71,0-8.533,3.823-8.533,8.533v17.067
			c0,4.71,3.823,8.533,8.533,8.533H102.4c4.71,0,8.533-3.823,8.533-8.533S107.11,187.733,102.4,187.733z"/>
	</g>
</g>
<g>
	<g>
		<path d="M162.133,256c-28.228,0-51.2,22.963-51.2,51.2c0,28.237,22.972,51.2,51.2,51.2s51.2-22.963,51.2-51.2
			C213.333,278.963,190.362,256,162.133,256z M162.133,341.333c-18.825,0-34.133-15.309-34.133-34.133s15.309-34.133,34.133-34.133
			s34.133,15.309,34.133,34.133S180.958,341.333,162.133,341.333z"/>
	</g>
</g>
<g>
	<g>
		<path d="M168.166,301.167L125.5,258.5c-3.328-3.337-8.738-3.337-12.066,0c-3.337,3.336-3.337,8.73,0,12.066l42.667,42.667
			c1.664,1.664,3.849,2.5,6.033,2.5c2.185,0,4.369-0.836,6.033-2.5C171.503,309.897,171.503,304.503,168.166,301.167z"/>
	</g>
</g>
<g>
	<g>
		<path d="M51.2,256c-4.71,0-8.533,3.823-8.533,8.533v85.333c0,4.71,3.823,8.533,8.533,8.533s8.533-3.823,8.533-8.533v-85.333
			C59.733,259.823,55.91,256,51.2,256z"/>
	</g>
</g>
<g>
	<g>
		<path d="M85.333,256c-4.71,0-8.533,3.823-8.533,8.533v85.333c0,4.71,3.823,8.533,8.533,8.533c4.71,0,8.533-3.823,8.533-8.533
			v-85.333C93.867,259.823,90.044,256,85.333,256z"/>
	</g>
</g>
<g>
	<g>
		<path d="M93.867,435.2H51.2c-4.71,0-8.533,3.823-8.533,8.533v51.2c0,4.71,3.823,8.533,8.533,8.533h42.667
			c4.71,0,8.533-3.823,8.533-8.533v-51.2C102.4,439.023,98.577,435.2,93.867,435.2z M85.333,486.4h-25.6v-34.133h25.6V486.4z"/>
	</g>
</g>
<g>
	<g>
		<path d="M384,443.733c-4.71,0-8.533,3.823-8.533,8.533V486.4c0,4.71,3.823,8.533,8.533,8.533s8.533-3.823,8.533-8.533v-34.133
			C392.533,447.556,388.71,443.733,384,443.733z"/>
	</g>
</g>
<g>
</g>
<g>
</g>
<g>
</g>
<g>
</g>
<g>
</g>
<g>
</g>
<g>
</g>
<g>
</g>
<g>
</g>
<g>
</g>
<g>
</g>
<g>
</g>
<g>
</g>
<g>
</g>
<g>
</g>
</svg>
