<?xml version="1.0" encoding="iso-8859-1"?>
<!-- Generator: Adobe Illustrator 19.0.0, SVG Export Plug-In . SVG Version: 6.00 Build 0)  -->
<svg version="1.1" id="Capa_1" xmlns="http://www.w3.org/2000/svg" xmlns:xlink="http://www.w3.org/1999/xlink" x="0px" y="0px"
	 viewBox="0 0 512 512" style="enable-background:new 0 0 512 512;" xml:space="preserve">
<g>
	<g>
		<path d="M247.501,59.733H76.766c-14.097,0-25.566,11.469-25.566,25.566v341.402c0,14.097,11.469,25.566,25.566,25.566h170.735
			c14.097,0,25.566-11.469,25.566-25.566V85.299C273.067,71.202,261.598,59.733,247.501,59.733z M256,426.701
			c0,4.685-3.814,8.499-8.499,8.499H76.766c-4.685,0-8.499-3.814-8.499-8.499V85.299c0-4.685,3.814-8.499,8.499-8.499h170.735
			c4.685,0,8.499,3.814,8.499,8.499V426.701z"/>
	</g>
</g>
<g>
	<g>
		<path d="M162.133,93.867c-42.351,0-76.8,34.458-76.8,76.8c0,42.342,34.449,76.8,76.8,76.8c42.351,0,76.8-34.458,76.8-76.8
			C238.933,128.324,204.484,93.867,162.133,93.867z M162.133,230.4c-32.939,0-59.733-26.795-59.733-59.733
			c0-32.939,26.795-59.733,59.733-59.733s59.733,26.795,59.733,59.733C221.867,203.605,195.072,230.4,162.133,230.4z"/>
	</g>
</g>
<g>
	<g>
		<path d="M162.133,128c-23.526,0-42.667,19.14-42.667,42.667c0,23.526,19.14,42.667,42.667,42.667
			c23.526,0,42.667-19.14,42.667-42.667C204.8,147.14,185.66,128,162.133,128z M162.133,196.267c-14.114,0-25.6-11.486-25.6-25.6
			s11.486-25.6,25.6-25.6s25.6,11.486,25.6,25.6S176.247,196.267,162.133,196.267z"/>
	</g>
</g>
<g>
	<g>
		<path d="M162.133,349.867C143.309,349.867,128,365.175,128,384s15.309,34.133,34.133,34.133s34.133-15.309,34.133-34.133
			S180.958,349.867,162.133,349.867z M162.133,401.067c-9.412,0-17.067-7.654-17.067-17.067s7.654-17.067,17.067-17.067
			c9.412,0,17.067,7.654,17.067,17.067S171.546,401.067,162.133,401.067z"/>
	</g>
</g>
<g>
	<g>
		<path d="M102.4,375.467h-8.533c-4.71,0-8.533,3.823-8.533,8.533s3.823,8.533,8.533,8.533h8.533c4.71,0,8.533-3.823,8.533-8.533
			S107.11,375.467,102.4,375.467z"/>
	</g>
</g>
<g>
	<g>
		<path d="M230.4,375.467h-8.533c-4.71,0-8.533,3.823-8.533,8.533s3.823,8.533,8.533,8.533h8.533c4.71,0,8.533-3.823,8.533-8.533
			S235.11,375.467,230.4,375.467z"/>
	</g>
</g>
<g>
	<g>
		<path d="M170.667,264.533H153.6c-4.71,0-8.533,3.823-8.533,8.533s3.823,8.533,8.533,8.533h17.067c4.71,0,8.533-3.823,8.533-8.533
			S175.377,264.533,170.667,264.533z"/>
	</g>
</g>
<g>
	<g>
		<path d="M110.933,264.533H93.867c-4.71,0-8.533,3.823-8.533,8.533s3.823,8.533,8.533,8.533h17.067c4.71,0,8.533-3.823,8.533-8.533
			S115.644,264.533,110.933,264.533z"/>
	</g>
</g>
<g>
	<g>
		<path d="M230.4,264.533h-17.067c-4.71,0-8.533,3.823-8.533,8.533s3.823,8.533,8.533,8.533H230.4c4.71,0,8.533-3.823,8.533-8.533
			S235.11,264.533,230.4,264.533z"/>
	</g>
</g>
<g>
	<g>
		<path d="M170.667,315.733H153.6c-4.71,0-8.533,3.823-8.533,8.533s3.823,8.533,8.533,8.533h17.067c4.71,0,8.533-3.823,8.533-8.533
			S175.377,315.733,170.667,315.733z"/>
	</g>
</g>
<g>
	<g>
		<path d="M204.8,290.133h-17.067c-4.71,0-8.533,3.823-8.533,8.533c0,4.71,3.823,8.533,8.533,8.533H204.8
			c4.71,0,8.533-3.823,8.533-8.533C213.333,293.956,209.51,290.133,204.8,290.133z"/>
	</g>
</g>
<g>
	<g>
		<path d="M136.533,290.133h-17.067c-4.71,0-8.533,3.823-8.533,8.533c0,4.71,3.823,8.533,8.533,8.533h17.067
			c4.71,0,8.533-3.823,8.533-8.533C145.067,293.956,141.244,290.133,136.533,290.133z"/>
	</g>
</g>
<g>
	<g>
		<path d="M59.733,162.133h-51.2c-4.71,0-8.533,3.823-8.533,8.533v170.667c0,4.71,3.823,8.533,8.533,8.533h51.2
			c4.71,0,8.533-3.823,8.533-8.533V170.667C68.267,165.956,64.444,162.133,59.733,162.133z M51.2,332.8H17.067V179.2H51.2V332.8z"/>
	</g>
</g>
<g>
	<g>
		<path d="M298.667,170.667h-34.133c-4.71,0-8.533,3.823-8.533,8.533v153.6c0,4.71,3.823,8.533,8.533,8.533h34.133
			c4.71,0,8.533-3.823,8.533-8.533V179.2C307.2,174.49,303.377,170.667,298.667,170.667z M290.133,324.267h-17.067V187.733h17.067
			V324.267z"/>
	</g>
</g>
<g>
	<g>
		<path d="M503.467,153.6h-204.8c-4.71,0-8.533,3.823-8.533,8.533v187.733c0,4.71,3.823,8.533,8.533,8.533h204.8
			c4.71,0,8.533-3.823,8.533-8.533V162.133C512,157.423,508.177,153.6,503.467,153.6z M494.933,341.333H307.2V170.667h187.733
			V341.333z"/>
	</g>
</g>
<g>
	<g>
		<path d="M25.6,196.267H8.533C3.823,196.267,0,200.09,0,204.8s3.823,8.533,8.533,8.533H25.6c4.71,0,8.533-3.823,8.533-8.533
			S30.31,196.267,25.6,196.267z"/>
	</g>
</g>
<g>
	<g>
		<path d="M25.6,230.4H8.533c-4.71,0-8.533,3.823-8.533,8.533c0,4.71,3.823,8.533,8.533,8.533H25.6c4.71,0,8.533-3.823,8.533-8.533
			C34.133,234.223,30.31,230.4,25.6,230.4z"/>
	</g>
</g>
<g>
	<g>
		<path d="M25.6,264.533H8.533c-4.71,0-8.533,3.823-8.533,8.533s3.823,8.533,8.533,8.533H25.6c4.71,0,8.533-3.823,8.533-8.533
			S30.31,264.533,25.6,264.533z"/>
	</g>
</g>
<g>
	<g>
		<path d="M25.6,298.667H8.533C3.823,298.667,0,302.49,0,307.2s3.823,8.533,8.533,8.533H25.6c4.71,0,8.533-3.823,8.533-8.533
			S30.31,298.667,25.6,298.667z"/>
	</g>
</g>
<g>
	<g>
		<path d="M469.333,153.6H332.8c-4.71,0-8.533,3.823-8.533,8.533v34.133c0,4.71,3.823,8.533,8.533,8.533h136.533
			c4.71,0,8.533-3.823,8.533-8.533v-34.133C477.867,157.423,474.044,153.6,469.333,153.6z M460.8,187.733H341.333v-17.067H460.8
			V187.733z"/>
	</g>
</g>
<g>
	<g>
		<path d="M469.333,307.2H332.8c-4.71,0-8.533,3.823-8.533,8.533v34.133c0,4.71,3.823,8.533,8.533,8.533h136.533
			c4.71,0,8.533-3.823,8.533-8.533v-34.133C477.867,311.023,474.044,307.2,469.333,307.2z M460.8,341.333H341.333v-17.067H460.8
			V341.333z"/>
	</g>
</g>
<g>
	<g>
		<path d="M503.467,221.867h-34.133c-4.71,0-8.533,3.823-8.533,8.533v51.2c0,4.71,3.823,8.533,8.533,8.533h34.133
			c4.71,0,8.533-3.823,8.533-8.533v-51.2C512,225.69,508.177,221.867,503.467,221.867z M494.933,273.067h-17.067v-34.133h17.067
			V273.067z"/>
	</g>
</g>
<g>
</g>
<g>
</g>
<g>
</g>
<g>
</g>
<g>
</g>
<g>
</g>
<g>
</g>
<g>
</g>
<g>
</g>
<g>
</g>
<g>
</g>
<g>
</g>
<g>
</g>
<g>
</g>
<g>
</g>
</svg>
