<?xml version="1.0" encoding="iso-8859-1"?>
<!-- Generator: Adobe Illustrator 19.0.0, SVG Export Plug-In . SVG Version: 6.00 Build 0)  -->
<svg version="1.1" id="Capa_1" xmlns="http://www.w3.org/2000/svg" xmlns:xlink="http://www.w3.org/1999/xlink" x="0px" y="0px"
	 viewBox="0 0 512 512" style="enable-background:new 0 0 512 512;" xml:space="preserve">
<g>
	<g>
		<path d="M247.467,34.133h-85.333c-4.71,0-8.533,3.823-8.533,8.533c0,4.71,3.823,8.533,8.533,8.533h85.333
			c4.71,0,8.533-3.823,8.533-8.533C256,37.956,252.177,34.133,247.467,34.133z"/>
	</g>
</g>
<g>
	<g>
		<path d="M356.139,0H53.47c-20.07,0-36.403,16.333-36.403,36.403v439.194c0,20.07,16.333,36.403,36.403,36.403h302.66
			c20.07,0,36.403-16.333,36.403-36.395V36.403C392.533,16.333,376.201,0,356.139,0z M375.467,475.597
			c0,10.658-8.678,19.336-19.328,19.336H53.47c-10.658,0-19.337-8.678-19.337-19.328V36.403c0-10.658,8.678-19.337,19.337-19.337
			h302.66c10.658,0,19.337,8.678,19.337,19.337V475.597z"/>
	</g>
</g>
<g>
	<g>
		<path d="M349.867,68.267H59.733c-4.71,0-8.533,3.823-8.533,8.533v341.333c0,4.71,3.823,8.533,8.533,8.533h290.133
			c4.71,0,8.533-3.823,8.533-8.533V76.8C358.4,72.09,354.577,68.267,349.867,68.267z M341.333,409.6H68.267V85.333h273.067V409.6z"
			/>
	</g>
</g>
<g>
	<g>
		<path d="M221.867,435.2h-34.133c-4.71,0-8.533,3.823-8.533,8.533v34.133c0,4.71,3.823,8.533,8.533,8.533h34.133
			c4.71,0,8.533-3.823,8.533-8.533v-34.133C230.4,439.023,226.577,435.2,221.867,435.2z M213.333,469.333h-17.067v-17.067h17.067
			V469.333z"/>
	</g>
</g>
<g>
	<g>
		<path d="M170.667,110.933H102.4c-4.71,0-8.533,3.823-8.533,8.533v68.267c0,4.71,3.823,8.533,8.533,8.533h68.267
			c4.71,0,8.533-3.823,8.533-8.533v-68.267C179.2,114.756,175.377,110.933,170.667,110.933z M162.133,179.2h-51.2V128h51.2V179.2z"
			/>
	</g>
</g>
<g>
	<g>
		<path d="M307.2,110.933h-68.267c-4.71,0-8.533,3.823-8.533,8.533v68.267c0,4.71,3.823,8.533,8.533,8.533H307.2
			c4.71,0,8.533-3.823,8.533-8.533v-68.267C315.733,114.756,311.91,110.933,307.2,110.933z M298.667,179.2h-51.2V128h51.2V179.2z"/>
	</g>
</g>
<g>
	<g>
		<path d="M170.667,221.867H102.4c-4.71,0-8.533,3.823-8.533,8.533v68.267c0,4.71,3.823,8.533,8.533,8.533h68.267
			c4.71,0,8.533-3.823,8.533-8.533V230.4C179.2,225.69,175.377,221.867,170.667,221.867z M162.133,290.133h-51.2v-51.2h51.2V290.133
			z"/>
	</g>
</g>
<g>
	<g>
		<path d="M307.2,221.867h-68.267c-4.71,0-8.533,3.823-8.533,8.533v68.267c0,4.71,3.823,8.533,8.533,8.533H307.2
			c4.71,0,8.533-3.823,8.533-8.533V230.4C315.733,225.69,311.91,221.867,307.2,221.867z M298.667,290.133h-51.2v-51.2h51.2V290.133z
			"/>
	</g>
</g>
<g>
	<g>
		<path d="M349.867,324.267H59.733c-4.71,0-8.533,3.823-8.533,8.533v85.333c0,4.71,3.823,8.533,8.533,8.533h290.133
			c4.71,0,8.533-3.823,8.533-8.533V332.8C358.4,328.09,354.577,324.267,349.867,324.267z M341.333,409.6H68.267v-68.267h273.067
			V409.6z"/>
	</g>
</g>
<g>
	<g>
		<path d="M315.733,375.467H93.867c-4.71,0-8.533,3.823-8.533,8.533s3.823,8.533,8.533,8.533h221.867
			c4.71,0,8.533-3.823,8.533-8.533S320.444,375.467,315.733,375.467z"/>
	</g>
</g>
<g>
	<g>
		<path d="M204.8,358.4c-4.71,0-8.533,3.823-8.533,8.533V384c0,4.71,3.823,8.533,8.533,8.533s8.533-3.823,8.533-8.533v-17.067
			C213.333,362.223,209.51,358.4,204.8,358.4z"/>
	</g>
</g>
<g>
	<g>
		<path d="M460.8,0c-18.825,0-34.133,15.309-34.133,34.133v409.6c0,1.152,0.23,2.304,0.691,3.362l25.6,59.733
			c1.34,3.14,4.429,5.171,7.842,5.171c3.413,0,6.502-2.031,7.842-5.171l25.6-59.733c0.461-1.058,0.691-2.21,0.691-3.362v-409.6
			C494.933,15.309,479.625,0,460.8,0z M477.867,441.984L460.8,481.809l-17.067-39.825V34.133c0-9.412,7.654-17.067,17.067-17.067
			c9.412,0,17.067,7.654,17.067,17.067V441.984z"/>
	</g>
</g>
<g>
	<g>
		<path d="M486.4,51.2h-51.2c-4.71,0-8.533,3.823-8.533,8.533v51.2c0,4.71,3.823,8.533,8.533,8.533h51.2
			c4.71,0,8.533-3.823,8.533-8.533v-51.2C494.933,55.023,491.11,51.2,486.4,51.2z M477.867,102.4h-34.133V68.267h34.133V102.4z"/>
	</g>
</g>
<g>
	<g>
		<path d="M486.4,435.2h-51.2c-4.71,0-8.533,3.823-8.533,8.533s3.823,8.533,8.533,8.533h51.2c4.71,0,8.533-3.823,8.533-8.533
			S491.11,435.2,486.4,435.2z"/>
	</g>
</g>
<g>
</g>
<g>
</g>
<g>
</g>
<g>
</g>
<g>
</g>
<g>
</g>
<g>
</g>
<g>
</g>
<g>
</g>
<g>
</g>
<g>
</g>
<g>
</g>
<g>
</g>
<g>
</g>
<g>
</g>
</svg>
