<?xml version="1.0" encoding="iso-8859-1"?>
<!-- Generator: Adobe Illustrator 19.0.0, SVG Export Plug-In . SVG Version: 6.00 Build 0)  -->
<svg version="1.1" id="Capa_1" xmlns="http://www.w3.org/2000/svg" xmlns:xlink="http://www.w3.org/1999/xlink" x="0px" y="0px"
	 viewBox="0 0 512 512" style="enable-background:new 0 0 512 512;" xml:space="preserve">
<g>
	<g>
		<path d="M328.499,205.926c-4.087-2.33-9.301-0.913-11.639,3.174l-53.641,93.867c-2.338,4.088-0.913,9.301,3.174,11.639
			c1.331,0.768,2.79,1.126,4.224,1.126c2.961,0,5.845-1.544,7.415-4.301l53.641-93.867
			C334.012,213.478,332.587,208.265,328.499,205.926z"/>
	</g>
</g>
<g>
	<g>
		<path d="M396.766,86.46c-4.087-2.338-9.301-0.922-11.639,3.174l-43.887,76.8c-2.338,4.087-0.913,9.301,3.174,11.639
			c1.331,0.768,2.79,1.126,4.224,1.126c2.961,0,5.845-1.536,7.415-4.301l43.887-76.8C402.278,94.012,400.853,88.798,396.766,86.46z"
			/>
	</g>
</g>
<g>
	<g>
		<path d="M396.766,205.926c-4.087-2.338-9.301-0.922-11.639,3.174l-59.733,104.533c-2.338,4.087-0.913,9.301,3.174,11.639
			c1.331,0.768,2.79,1.126,4.224,1.126c2.961,0,5.845-1.545,7.415-4.301l59.733-104.533
			C402.278,213.478,400.853,208.265,396.766,205.926z"/>
	</g>
</g>
<g>
	<g>
		<path d="M298.667,34.133h-85.333c-4.71,0-8.533,3.823-8.533,8.533c0,4.71,3.823,8.533,8.533,8.533h85.333
			c4.71,0,8.533-3.823,8.533-8.533C307.2,37.956,303.377,34.133,298.667,34.133z"/>
	</g>
</g>
<g>
	<g>
		<path d="M358.4,34.133h-8.533c-4.71,0-8.533,3.823-8.533,8.533c0,4.71,3.823,8.533,8.533,8.533h8.533
			c4.71,0,8.533-3.823,8.533-8.533C366.933,37.956,363.11,34.133,358.4,34.133z"/>
	</g>
</g>
<g>
	<g>
		<path d="M266.598,435.2H245.41c-12.979,0-23.543,10.564-23.543,23.544v4.113c0,12.979,10.564,23.543,23.535,23.543h21.188
			c12.979,0,23.543-10.564,23.543-23.544v-4.113C290.133,445.764,279.569,435.2,266.598,435.2z M273.067,462.857
			c0,3.575-2.901,6.477-6.468,6.477H245.41c-3.575,0-6.477-2.901-6.477-6.477v-4.113c0-3.575,2.901-6.477,6.477-6.477h21.18
			c3.576,0,6.477,2.901,6.477,6.477V462.857z"/>
	</g>
</g>
<g>
	<g>
		<path d="M370.227,0H141.781c-17.007,0-30.848,13.841-30.848,30.848v450.304c0,17.007,13.841,30.848,30.848,30.848h228.437
			c17.007,0,30.848-13.841,30.848-30.839V30.848C401.067,13.841,387.226,0,370.227,0z M384,481.152
			c0,7.595-6.178,13.781-13.773,13.781H141.781c-7.603,0-13.781-6.187-13.781-13.773V30.848c0-7.595,6.178-13.781,13.781-13.781
			h228.437c7.603,0,13.781,6.187,13.781,13.781V481.152z"/>
	</g>
</g>
<g>
	<g>
		<path d="M179.2,401.067h-59.733c-4.71,0-8.533,3.823-8.533,8.533s3.823,8.533,8.533,8.533H179.2c4.71,0,8.533-3.823,8.533-8.533
			S183.91,401.067,179.2,401.067z"/>
	</g>
</g>
<g>
	<g>
		<path d="M392.533,401.067H332.8c-4.71,0-8.533,3.823-8.533,8.533s3.823,8.533,8.533,8.533h59.733c4.71,0,8.533-3.823,8.533-8.533
			S397.244,401.067,392.533,401.067z"/>
	</g>
</g>
<g>
	<g>
		<path d="M298.667,401.067h-8.533c-4.71,0-8.533,3.823-8.533,8.533s3.823,8.533,8.533,8.533h8.533c4.71,0,8.533-3.823,8.533-8.533
			S303.377,401.067,298.667,401.067z"/>
	</g>
</g>
<g>
	<g>
		<path d="M392.533,68.267H332.8c-4.71,0-8.533,3.823-8.533,8.533s3.823,8.533,8.533,8.533h59.733c4.71,0,8.533-3.823,8.533-8.533
			S397.244,68.267,392.533,68.267z"/>
	</g>
</g>
<g>
	<g>
		<path d="M179.2,68.267h-59.733c-4.71,0-8.533,3.823-8.533,8.533s3.823,8.533,8.533,8.533H179.2c4.71,0,8.533-3.823,8.533-8.533
			S183.91,68.267,179.2,68.267z"/>
	</g>
</g>
<g>
	<g>
		<path d="M221.867,68.267h-8.533c-4.71,0-8.533,3.823-8.533,8.533s3.823,8.533,8.533,8.533h8.533c4.71,0,8.533-3.823,8.533-8.533
			S226.577,68.267,221.867,68.267z"/>
	</g>
</g>
<g>
</g>
<g>
</g>
<g>
</g>
<g>
</g>
<g>
</g>
<g>
</g>
<g>
</g>
<g>
</g>
<g>
</g>
<g>
</g>
<g>
</g>
<g>
</g>
<g>
</g>
<g>
</g>
<g>
</g>
</svg>
